<svg width="34" height="41" viewBox="0 0 34 41" fill="none" xmlns="http://www.w3.org/2000/svg">
<path d="M27.6532 22.7325C26.5376 17.1182 31.8666 13.8254 31.8666 13.8254C31.8666 13.8254 29.7904 10.8216 26.301 10.0488C22.8133 9.27439 21.0678 10.242 19.3256 10.9677C17.5818 11.6952 16.7117 11.6952 16.7117 11.6952C14.1951 11.6952 12.3555 9.03073 7.56091 10.2438C4.25775 11.0774 0.780486 14.8905 0.152223 19.4416C-0.476039 23.9943 0.879723 29.8036 3.4937 34.3059C6.10769 38.8117 8.77048 40.505 10.6604 40.5537C12.5505 40.6007 14.437 39.1997 16.7117 38.8586C18.9881 38.521 20.389 39.6836 22.6219 40.3119C24.846 40.9384 25.6257 40.3571 28.1875 38.1782C30.7562 35.9992 33.0813 29.7497 33.0813 29.7497C33.0813 29.7497 28.7688 28.3503 27.6532 22.7325Z" fill="#008080"/>
<path d="M22.7136 6.41663C25.1849 3.89842 24.3478 0 24.3478 0C24.3478 0 20.8775 0.609141 18.5524 3.0282C16.229 5.44903 16.6136 9.27258 16.6136 9.27258C16.6136 9.27258 20.2423 8.93323 22.7136 6.41663Z" fill="#008080"/>
</svg>
