<svg width="36" height="43" viewBox="0 0 36 43" fill="none" xmlns="http://www.w3.org/2000/svg">
<path d="M17.6656 20.7133C20.5112 20.7133 22.9753 19.6927 24.9887 17.679C27.002 15.6657 28.0226 13.2023 28.0226 10.3563C28.0226 7.51135 27.002 5.04759 24.9884 3.03361C22.9747 1.02061 20.5109 0 17.6656 0C14.8196 0 12.3562 1.02061 10.3429 3.03393C8.32953 5.04726 7.30859 7.51102 7.30859 10.3563C7.30859 13.2023 8.32953 15.666 10.3432 17.6794C12.3569 19.6924 14.8206 20.7133 17.6656 20.7133V20.7133Z" fill="white"/>
<path d="M35.7883 33.0647C35.7302 32.2268 35.6128 31.3128 35.4399 30.3477C35.2654 29.3753 35.0406 28.4561 34.7716 27.6159C34.4938 26.7475 34.1158 25.8899 33.6487 25.0681C33.1638 24.2152 32.5943 23.4724 31.9552 22.8613C31.2869 22.2219 30.4687 21.7078 29.5226 21.3328C28.5797 20.9598 27.5348 20.7708 26.4171 20.7708C25.9782 20.7708 25.5536 20.9509 24.7338 21.4847C24.2293 21.8138 23.6391 22.1943 22.9803 22.6152C22.417 22.9741 21.6539 23.3104 20.7114 23.6148C19.7918 23.9124 18.8582 24.0633 17.9366 24.0633C17.0151 24.0633 16.0818 23.9124 15.1612 23.6148C14.2197 23.3107 13.4566 22.9744 12.8939 22.6155C12.2414 22.1986 11.6509 21.818 11.1388 21.4844C10.3199 20.9506 9.8951 20.7705 9.45615 20.7705C8.3381 20.7705 7.29354 20.9598 6.35101 21.3331C5.40553 21.7075 4.58701 22.2215 3.91808 22.8616C3.27934 23.4731 2.70949 24.2155 2.22527 25.0681C1.75843 25.8899 1.3805 26.7472 1.1023 27.6162C0.833613 28.4564 0.608889 29.3753 0.434358 30.3477C0.261468 31.3115 0.144021 32.2258 0.0859531 33.0657C0.0288697 33.8885 0 34.7424 0 35.6049C0 37.8495 0.713542 39.6667 2.12061 41.0068C3.5103 42.3292 5.3491 43.0001 7.58519 43.0001H28.29C30.5261 43.0001 32.3643 42.3296 33.7543 41.0068C35.1617 39.6676 35.8752 37.8502 35.8752 35.6046C35.8749 34.7382 35.8457 33.8835 35.7883 33.0647V33.0647Z" fill="white"/>
</svg>
