<svg width="25" height="32" viewBox="0 0 25 32" fill="none" xmlns="http://www.w3.org/2000/svg">
<path d="M1.20117 1.37109H23.8006V30.8219H1.20117V1.37109Z" fill="#2472B2"/>
<path d="M1.20117 1.37109H2.44146V30.8219H1.20117V1.37109Z" fill="#1C5D9F"/>
<path d="M17.4463 29.0713H23.8005V30.8219H17.4463V29.0713Z" fill="#525468"/>
<path d="M1.20117 29.0713H7.63437V30.8219H1.20117V29.0713Z" fill="#525468"/>
<path d="M1.20117 29.0713H2.44146V30.8219H1.20117V29.0713Z" fill="#3E4151"/>
<path d="M19.4143 12.8008H5.58405C5.21884 12.8008 4.92285 13.0968 4.92285 13.4617V17.1315C4.92285 17.4967 5.21884 17.7925 5.58405 17.7925H19.4143C19.7795 17.7925 20.0753 17.4967 20.0753 17.1315V13.4617C20.0755 13.0968 19.7795 12.8008 19.4143 12.8008Z" fill="#F3A334"/>
<path d="M6.16338 17.1313V13.4615C6.16338 13.0963 6.45936 12.8003 6.82434 12.8003H5.58405C5.21884 12.8003 4.92285 13.0963 4.92285 13.4615V17.1313C4.92285 17.4962 5.21884 17.7922 5.58405 17.7922H6.82434C6.45936 17.7922 6.16338 17.4962 6.16338 17.1313Z" fill="#E87E04"/>
<path d="M17.4189 21.3325H7.57973C7.36418 21.3325 7.18945 21.5072 7.18945 21.723V30.822H17.8095V21.723C17.8095 21.5072 17.6345 21.3325 17.4189 21.3325Z" fill="#B4E1F9"/>
<path d="M12.4993 21.3325H7.57973C7.36418 21.3325 7.18945 21.5072 7.18945 21.723V30.822H12.4993V21.3325Z" fill="#72BDF6"/>
<path d="M8.82025 21.3325H7.57973C7.36418 21.3325 7.18945 21.5072 7.18945 21.723V30.822H8.42974V21.723C8.42974 21.5072 8.60447 21.3325 8.82025 21.3325Z" fill="#4B98D4"/>
<path d="M13.9784 27.2289C13.7216 27.2289 13.5132 27.0205 13.5132 26.7637V25.1727C13.5132 24.9159 13.7216 24.7075 13.9784 24.7075C14.2353 24.7075 14.4434 24.9159 14.4434 25.1727V26.7637C14.4434 27.0205 14.2353 27.2289 13.9784 27.2289Z" fill="#E4E3E1"/>
<path d="M11.0241 27.2289C10.7672 27.2289 10.5591 27.0205 10.5591 26.7637V25.1727C10.5591 24.9159 10.7672 24.7075 11.0241 24.7075C11.2811 24.7075 11.4893 24.9159 11.4893 25.1727V26.7637C11.4893 27.0205 11.2811 27.2289 11.0241 27.2289Z" fill="#E4E3E1"/>
<path d="M6.18701 3.4751H9.3431V7.01788H6.18701V3.4751Z" fill="#B4E1F9"/>
<path d="M9.34375 3.4751H12.4998V7.01788H9.34375V3.4751Z" fill="#72BDF6"/>
<path d="M6.18685 3.4751H3.23294C3.12123 3.4751 3.03076 3.56556 3.03076 3.67728V6.8157C3.03076 6.92742 3.12123 7.01788 3.23294 7.01788H6.18685V3.4751Z" fill="#72BDF6"/>
<path d="M18.8128 7.01788H15.6567V3.4751H18.8128V7.01788Z" fill="#72BDF6"/>
<path d="M15.6566 7.01788H12.5005V3.4751H15.6566V7.01788Z" fill="#B4E1F9"/>
<path d="M18.8105 3.4751H21.7647C21.8762 3.4751 21.9666 3.56556 21.9666 3.67728V6.8157C21.9666 6.92742 21.8762 7.01788 21.7647 7.01788H18.8105V3.4751Z" fill="#B4E1F9"/>
<path d="M24.1897 8.87744H0.808561C0.618556 8.87744 0.464355 9.0314 0.464355 9.22165V10.2836C0.464355 10.4739 0.618556 10.6278 0.808561 10.6278H24.1897C24.3799 10.6278 24.5339 10.4739 24.5339 10.2836V9.22165C24.5339 9.0314 24.3799 8.87744 24.1897 8.87744Z" fill="#E4E3E1"/>
<path d="M24.1897 0H0.808561C0.618556 0 0.464355 0.1542 0.464355 0.344205V1.40618C0.464355 1.59643 0.618556 1.75039 0.808561 1.75039H24.1897C24.3799 1.75039 24.5339 1.59643 24.5339 1.40618V0.344205C24.5339 0.1542 24.3799 0 24.1897 0V0Z" fill="#E4E3E1"/>
<path d="M24.1897 9.41211H0.808561C0.644813 9.41211 0.508276 9.29778 0.473187 9.14453C0.467459 9.16936 0.464355 9.19514 0.464355 9.22163V10.2836C0.464355 10.4739 0.618556 10.6278 0.808561 10.6278H24.1897C24.3799 10.6278 24.5341 10.4739 24.5341 10.2836V9.22163C24.5341 9.19514 24.5308 9.16936 24.5251 9.14453C24.49 9.29778 24.3534 9.41211 24.1897 9.41211Z" fill="#D1D0CF"/>
<path d="M24.1897 0.534434H0.808561C0.644813 0.534434 0.508276 0.420096 0.473187 0.26709C0.467459 0.291915 0.464355 0.317456 0.464355 0.343951V1.40593C0.464355 1.59617 0.618317 1.75013 0.808561 1.75013H24.1897C24.3799 1.75013 24.5339 1.59617 24.5339 1.40593V0.343951C24.5339 0.317456 24.5308 0.291676 24.5251 0.26709C24.49 0.420096 24.3534 0.534434 24.1897 0.534434Z" fill="#D1D0CF"/>
<path d="M24.5348 31.2871H0.465226C0.208146 31.2871 0 31.079 0 30.8219C0 30.5651 0.208146 30.3569 0.465226 30.3569H24.5348C24.7919 30.3569 25 30.5651 25 30.8219C25 31.079 24.7919 31.2871 24.5348 31.2871Z" fill="#3E4151"/>
<path d="M7.11914 13.8021C7.11914 13.6486 7.28217 13.5718 7.44544 13.5718H8.42913C8.90891 13.5718 9.38894 13.7446 9.38894 14.4261C9.38894 14.8147 9.23522 15.0691 8.981 15.1794C9.27365 15.2899 9.47535 15.4673 9.47535 15.9473V16.0481C9.47535 16.8064 9.05309 17.0797 8.51076 17.0797H7.44544C7.24374 17.0797 7.11914 16.9742 7.11914 16.8544V13.8021ZM7.86293 14.8915H8.36683C8.54895 14.8915 8.64014 14.7235 8.64014 14.5602C8.64014 14.3924 8.54895 14.2244 8.36683 14.2244H7.86293V14.8915ZM8.34272 16.4271C8.58261 16.4271 8.72655 16.2927 8.72655 15.9857V15.9089C8.72655 15.5826 8.58261 15.4673 8.34272 15.4673H7.86293V16.4271H8.34272Z" fill="#E4E3E1"/>
<path d="M9.62256 16.7728C9.62256 16.7583 9.62733 16.7392 9.63235 16.7198L10.5248 13.7926C10.5776 13.6246 10.7936 13.543 11.0144 13.543C11.2352 13.543 11.451 13.6246 11.5038 13.7926L12.4013 16.7198C12.406 16.7392 12.4108 16.7583 12.4108 16.7728C12.4108 16.9502 12.1373 17.0798 11.931 17.0798C11.811 17.0798 11.715 17.0414 11.6861 16.9406L11.5231 16.3408H10.5105L10.3473 16.9406C10.3186 17.0414 10.2224 17.0798 10.1026 17.0798C9.89611 17.0798 9.62256 16.9502 9.62256 16.7728ZM11.3648 15.765L11.0144 14.4789L10.664 15.765H11.3648Z" fill="#E4E3E1"/>
<path d="M14.3499 16.8782L13.438 15.2179V16.8494C13.438 17.0031 13.2509 17.0797 13.0637 17.0797C12.8766 17.0797 12.6895 17.0029 12.6895 16.8494V13.8021C12.6895 13.6439 12.8766 13.5718 13.0637 13.5718C13.3325 13.5718 13.4332 13.5959 13.6156 13.9461L14.3931 15.4289V13.7973C14.3931 13.6391 14.5802 13.5718 14.7673 13.5718C14.9545 13.5718 15.1416 13.6391 15.1416 13.7973V16.8496C15.1416 17.0031 14.9545 17.0797 14.7673 17.0797C14.5945 17.0797 14.441 17.0461 14.3499 16.8782Z" fill="#E4E3E1"/>
<path d="M15.6606 13.7973C15.6606 13.6389 15.8478 13.5718 16.0349 13.5718C16.2221 13.5718 16.4092 13.6389 16.4092 13.7973V14.9491L17.3067 13.6773C17.3595 13.6007 17.4265 13.5718 17.5034 13.5718C17.6953 13.5718 17.9448 13.7685 17.9448 13.9556C17.9448 13.994 17.9352 14.0468 17.8968 14.0995L17.1098 15.0882L18.1033 16.6095C18.1271 16.6479 18.1417 16.6911 18.1417 16.7343C18.1417 16.9215 17.9063 17.1086 17.6905 17.1086C17.5898 17.1086 17.4936 17.0702 17.4313 16.9694L16.6107 15.7217L16.4092 15.9807V16.8494C16.4092 17.0029 16.2221 17.0797 16.0349 17.0797C15.8478 17.0797 15.6606 17.0029 15.6606 16.8494V13.7973Z" fill="#E4E3E1"/>
</svg>
