<svg width="27" height="40" viewBox="0 0 27 40" fill="none" xmlns="http://www.w3.org/2000/svg">
<path d="M26.2525 7.9545V26.83C26.2523 27.7212 25.8982 28.5758 25.2681 29.2059C24.6379 29.8361 23.7833 30.1902 22.8922 30.1903H22.3146V32.1593C22.3146 32.6815 22.1072 33.1823 21.7379 33.5515C21.3687 33.9208 20.8679 34.1282 20.3457 34.1282C19.8235 34.1282 19.3227 33.9208 18.9534 33.5515C18.5842 33.1823 18.3767 32.6815 18.3767 32.1593V30.1903H15.7515V33.8263C15.7513 34.4285 15.512 35.006 15.0862 35.4318C14.6604 35.8577 14.0829 36.097 13.4806 36.0972H12.7718C12.1696 36.097 11.5921 35.8577 11.1663 35.4318C10.7405 35.006 10.5012 34.4285 10.501 33.8263V30.1903H7.87574V32.1593C7.87574 32.6815 7.6683 33.1823 7.29905 33.5515C6.92981 33.9208 6.429 34.1282 5.90681 34.1282C5.38461 34.1282 4.88381 33.9208 4.51456 33.5515C4.14531 33.1823 3.93787 32.6815 3.93787 32.1593V30.1903H3.36032C2.46916 30.1902 1.61455 29.8361 0.984406 29.2059C0.354263 28.5758 0.000174003 27.7212 0 26.83V7.9545C0.000174003 7.06334 0.354263 6.20873 0.984406 5.57859C1.61455 4.94845 2.46916 4.59436 3.36032 4.59418H8.53205C8.53205 3.37573 9.01608 2.20718 9.87766 1.34561C10.7392 0.484029 11.9078 0 13.1262 0C14.3447 0 15.5132 0.484029 16.3748 1.34561C17.2364 2.20718 17.7204 3.37573 17.7204 4.59418H22.8922C23.7833 4.59436 24.6379 4.94845 25.2681 5.57859C25.8982 6.20873 26.2523 7.06334 26.2525 7.9545Z" fill="#FF5252"/>
<path d="M3.28174 7.87598H22.9711V27.5653H3.28174V7.87598Z" fill="#B3B3B3"/>
<path d="M22.3154 30.1903H22.893C23.7841 30.1902 24.6387 29.8361 25.2689 29.2059C25.899 28.5758 26.2531 27.7212 26.2533 26.83V7.9545C26.2531 7.06334 25.899 6.20873 25.2689 5.57859C24.6387 4.94845 23.7841 4.59436 22.893 4.59418H17.7212C17.7212 3.37573 17.2372 2.20718 16.3756 1.34561C15.5141 0.484029 14.3455 0 13.1271 0C11.9086 0 10.7401 0.484029 9.87848 1.34561C9.01691 2.20718 8.53288 3.37573 8.53288 4.59418H3.72211C3.51357 5.67766 3.37872 6.77403 3.31848 7.87574H22.9717V27.5651H13.1271V28.7117C13.965 29.3313 14.8419 29.8964 15.7523 30.4036V30.1903H18.3776V31.6677C19.6095 32.1709 20.8809 32.5713 22.1789 32.8648C22.2676 32.6401 22.3139 32.4009 22.3154 32.1593V30.1903ZM13.1271 5.90681C12.7376 5.90681 12.357 5.79133 12.0332 5.57498C11.7094 5.35863 11.457 5.05113 11.308 4.69135C11.159 4.33157 11.12 3.93569 11.196 3.55375C11.2719 3.17181 11.4595 2.82098 11.7348 2.54562C12.0102 2.27026 12.361 2.08274 12.7429 2.00677C13.1249 1.9308 13.5208 1.96979 13.8805 2.11881C14.2403 2.26784 14.5478 2.5202 14.7642 2.84399C14.9805 3.16778 15.096 3.54845 15.096 3.93787C15.096 4.46007 14.8886 4.96087 14.5193 5.33012C14.1501 5.69937 13.6493 5.90681 13.1271 5.90681Z" fill="#F96B6B"/>
<path d="M22.9711 7.87598V27.5653H11.7022C10.5523 26.5719 9.49762 25.4733 8.55194 24.2838C5.13408 19.9954 3.27567 14.6724 3.28175 9.1886C3.28175 8.74887 3.29488 8.30914 3.32113 7.87598H22.9711Z" fill="#E6E6E6"/>
<path d="M13.1264 5.90662C14.2138 5.90662 15.0953 5.0251 15.0953 3.93769C15.0953 2.85027 14.2138 1.96875 13.1264 1.96875C12.039 1.96875 11.1575 2.85027 11.1575 3.93769C11.1575 5.0251 12.039 5.90662 13.1264 5.90662Z" fill="#BCBCBC"/>
<path d="M10.501 24.9396H8.53204C8.35798 24.9396 8.19104 24.8704 8.06796 24.7473C7.94488 24.6243 7.87573 24.4573 7.87573 24.2833C7.87573 24.1092 7.94488 23.9423 8.06796 23.8192C8.19104 23.6961 8.35798 23.627 8.53204 23.627H10.501C10.675 23.627 10.842 23.6961 10.9651 23.8192C11.0881 23.9423 11.1573 24.1092 11.1573 24.2833C11.1573 24.4573 11.0881 24.6243 10.9651 24.7473C10.842 24.8704 10.675 24.9396 10.501 24.9396Z" fill="#BCBCBC"/>
<path d="M20.3457 24.9396H12.4699C12.2958 24.9396 12.1289 24.8704 12.0058 24.7473C11.8827 24.6243 11.8136 24.4573 11.8136 24.2833C11.8136 24.1092 11.8827 23.9423 12.0058 23.8192C12.1289 23.6961 12.2958 23.627 12.4699 23.627H20.3457C20.5197 23.627 20.6867 23.6961 20.8097 23.8192C20.9328 23.9423 21.002 24.1092 21.002 24.2833C21.002 24.4573 20.9328 24.6243 20.8097 24.7473C20.6867 24.8704 20.5197 24.9396 20.3457 24.9396Z" fill="#BCBCBC"/>
<path d="M19.0337 22.9708H10.5016C10.3276 22.9708 10.1606 22.9017 10.0376 22.7786C9.91448 22.6555 9.84534 22.4886 9.84534 22.3145C9.84534 22.1405 9.91448 21.9735 10.0376 21.8504C10.1606 21.7273 10.3276 21.6582 10.5016 21.6582H19.0337C19.2078 21.6582 19.3747 21.7273 19.4978 21.8504C19.6209 21.9735 19.69 22.1405 19.69 22.3145C19.69 22.4886 19.6209 22.6555 19.4978 22.7786C19.3747 22.9017 19.2078 22.9708 19.0337 22.9708Z" fill="#BCBCBC"/>
<path d="M12.4696 27.5649H13.7822V39.3786H12.4696V27.5649Z" fill="#999999"/>
<path d="M20.2052 15.5351C19.4045 15.5594 18.7462 13.8445 17.4986 12.4715C16.2509 11.0984 14.6069 10.2794 14.7086 9.48392C14.8103 8.68847 17.6522 8.3229 19.6473 10.5196C21.6425 12.7163 21.0066 15.5108 20.2052 15.5351Z" fill="#F2F2F2"/>
<path d="M11.158 17.7204C11.158 18.4167 10.8814 19.0844 10.389 19.5767C9.89672 20.0691 9.22898 20.3457 8.53272 20.3457C7.83646 20.3457 7.16872 20.0691 6.67639 19.5767C6.18406 19.0844 5.90747 18.4167 5.90747 17.7204C5.90899 16.8548 6.09 15.9989 6.43908 15.2067L8.53272 10.501L10.6264 15.2067C10.9754 15.9989 11.1564 16.8548 11.158 17.7204Z" fill="#FF5252"/>
</svg>
