<svg width="51" height="44" viewBox="0 0 51 44" fill="none" xmlns="http://www.w3.org/2000/svg">
<path d="M33.5519 2.21674C33.4691 2.15488 32.7025 1.59625 31.337 1.05871C29.5778 0.366107 27.5592 0 25.4996 0C23.44 0 21.4215 0.366107 19.6621 1.05871C18.2966 1.59625 17.53 2.15488 17.4472 2.21684C17.0314 2.52743 16.7874 3.01033 16.7874 3.52251V6.09863L18.4635 6.97682L20.1397 6.09863V4.45232C21.0596 3.99244 22.8992 3.28384 25.4995 3.28384C28.0999 3.28384 29.9394 3.99244 30.8593 4.45232V6.09853L32.5354 6.97672L34.2116 6.09853V3.52251C34.2118 3.01024 33.9678 2.52733 33.5519 2.21674Z" fill="#E8834D"/>
<path d="M16.7875 6.09863V7.9116L18.4637 8.78979L20.1399 7.9116V6.09863H16.7875Z" fill="#D66E41"/>
<path d="M34.2118 6.09863H30.8595V7.9116L32.5357 8.78979L34.2118 7.9116V6.09863Z" fill="#D66E41"/>
<path d="M1.31946 25.9746V40.5615C1.31946 42.2932 2.75254 43.697 4.52031 43.697H46.4796C48.2473 43.697 49.6804 42.2932 49.6804 40.5615V25.9746H1.31946Z" fill="#365E7D"/>
<path d="M1.31946 24.1617V25.9748C3.97863 28.043 11.0067 32.058 25.4999 32.058C39.9932 32.058 47.0212 28.043 49.6804 25.9747V24.1616H1.31946V24.1617Z" fill="#2B4D66"/>
<path d="M1.18057 23.1171C3.72908 25.1496 10.7474 29.3097 25.5 29.3097C40.2526 29.3097 47.2708 25.1496 49.8194 23.1171C50.5665 22.5213 51 20.7503 51 19.8066V11.0467C51 9.31497 49.5669 7.91113 47.7992 7.91113H3.20085C1.43308 7.91113 0 9.31497 0 11.0467V19.8066C0 20.7503 0.4335 22.5213 1.18057 23.1171Z" fill="#407093"/>
<path d="M49.8194 22.2394C47.2709 24.2719 40.2526 28.432 25.5 28.432C10.7474 28.432 3.72918 24.2718 1.18057 22.2394C0.4335 21.6436 0 20.7508 0 19.8071V21.6202C0 22.5639 0.4335 23.4567 1.18057 24.0525C3.72908 26.085 10.7474 30.2451 25.5 30.2451C40.2526 30.2451 47.2708 26.085 49.8194 24.0525C50.5665 23.4567 51 22.5639 51 21.6202V19.8071C51 20.7508 50.5665 21.6436 49.8194 22.2394Z" fill="#365E7D"/>
<path d="M25.4997 33.2622C27.1556 33.2622 28.4979 32.0578 28.4979 29.447V27.6662C28.4979 27.089 28.0202 26.6211 27.431 26.6211H23.5684C22.9791 26.6211 22.5015 27.0891 22.5015 27.6662V29.4473C22.5014 32.0578 23.8438 33.2622 25.4997 33.2622Z" fill="#FFE27A"/>
<path d="M25.4997 32.3843C23.8438 32.3843 22.5015 31.0694 22.5015 29.4473V31.2603C22.5015 32.8824 23.8438 34.1974 25.4997 34.1974C27.1556 34.1974 28.4979 32.8824 28.4979 31.2603V29.4473C28.4979 31.0693 27.1556 32.3843 25.4997 32.3843Z" fill="#F9CF58"/>
</svg>
