<svg width="14" height="14" viewBox="0 0 14 14" fill="none" xmlns="http://www.w3.org/2000/svg">
<path d="M11.8152 1.2627H1.62764C0.728736 1.2627 0 1.99143 0 2.89033V12.3724C0 13.2713 0.728736 14.0001 1.62764 14.0001H11.8152C12.7141 14.0001 13.4428 13.2713 13.4428 12.3724V2.89033C13.4428 1.99138 12.7141 1.2627 11.8152 1.2627Z" fill="#EBF0F3"/>
<path d="M13.4428 4.32047V2.34834C13.4428 1.44944 12.7141 0.720703 11.8152 0.720703H1.62764C0.728736 0.720703 0 1.44944 0 2.34834V4.32047H13.4428Z" fill="#CE412D"/>
<path d="M13.4428 4.68879V2.89033C13.4428 1.99143 12.7141 1.2627 11.8152 1.2627H1.62764C0.728736 1.2627 0 1.99143 0 2.89033V4.68879H13.4428Z" fill="#E56353"/>
<path d="M2.66597 2.13672C2.35223 2.13672 2.0979 2.39105 2.0979 2.70479C2.0979 3.01853 2.35223 3.27282 2.66597 3.27282C2.97971 3.27282 3.234 3.01849 3.234 2.70479C3.23405 2.39105 2.97971 2.13672 2.66597 2.13672Z" fill="#D15241"/>
<path d="M2.66597 0C2.49815 0 2.36206 0.136085 2.36206 0.303909V2.67175C2.36206 2.83962 2.49815 2.97566 2.66597 2.97566C2.83379 2.97566 2.96988 2.83962 2.96988 2.67175V0.303909C2.96988 0.136085 2.83384 0 2.66597 0V0Z" fill="#4D5C7D"/>
<path d="M5.36959 2.13672C5.05585 2.13672 4.80151 2.39105 4.80151 2.70479C4.80151 3.01853 5.05585 3.27282 5.36959 3.27282C5.68333 3.27282 5.93761 3.01849 5.93761 2.70479C5.93766 2.39105 5.68333 2.13672 5.36959 2.13672Z" fill="#D15241"/>
<path d="M5.36958 0C5.20176 0 5.06567 0.136085 5.06567 0.303909V2.67175C5.06567 2.83962 5.20176 2.97566 5.36958 2.97566C5.53741 2.97566 5.67349 2.83962 5.67349 2.67175V0.303909C5.67349 0.136085 5.53741 0 5.36958 0V0Z" fill="#4D5C7D"/>
<path d="M8.0732 2.13672C7.75946 2.13672 7.50513 2.39105 7.50513 2.70479C7.50513 3.01853 7.75946 3.27282 8.0732 3.27282C8.38694 3.27282 8.64123 3.01849 8.64123 2.70479C8.64123 2.39105 8.38694 2.13672 8.0732 2.13672Z" fill="#D15241"/>
<path d="M8.07319 0C7.90537 0 7.76929 0.136085 7.76929 0.303909V2.67175C7.76929 2.83962 7.90537 2.97566 8.07319 2.97566C8.24102 2.97566 8.3771 2.83962 8.3771 2.67175V0.303909C8.3771 0.136085 8.24102 0 8.07319 0V0Z" fill="#4D5C7D"/>
<path d="M10.7768 2.13672C10.4631 2.13672 10.2087 2.39105 10.2087 2.70479C10.2087 3.01853 10.4631 3.27282 10.7768 3.27282C11.0906 3.27282 11.3448 3.01849 11.3448 2.70479C11.3448 2.39105 11.0905 2.13672 10.7768 2.13672Z" fill="#D15241"/>
<path d="M10.7768 0C10.609 0 10.4729 0.136085 10.4729 0.303909V2.67175C10.4729 2.83962 10.609 2.97566 10.7768 2.97566C10.9446 2.97566 11.0807 2.83962 11.0807 2.67175V0.303909C11.0807 0.136085 10.9447 0 10.7768 0V0Z" fill="#4D5C7D"/>
<path d="M4.96021 6.93799H6.18881V8.16659H4.96021V6.93799Z" fill="#E56353"/>
<path d="M7.25415 6.93799H8.48275V8.16659H7.25415V6.93799Z" fill="#E56353"/>
<path d="M9.5481 6.93799H10.7767V8.16659H9.5481V6.93799Z" fill="#E56353"/>
<path d="M2.66602 8.86377H3.89462V10.0924H2.66602V8.86377Z" fill="#E56353"/>
<path d="M4.96021 8.86377H6.18881V10.0924H4.96021V8.86377Z" fill="#E56353"/>
<path d="M7.25415 8.86377H8.48275V10.0924H7.25415V8.86377Z" fill="#E56353"/>
<path d="M9.5481 8.86377H10.7767V10.0924H9.5481V8.86377Z" fill="#E56353"/>
<path d="M2.66602 10.79H3.89462V12.0186H2.66602V10.79Z" fill="#E56353"/>
<path d="M4.96021 10.79H6.18881V12.0186H4.96021V10.79Z" fill="#E56353"/>
<path d="M7.25415 10.79H8.48275V12.0186H7.25415V10.79Z" fill="#E56353"/>
</svg>
