<svg width="39" height="33" viewBox="0 0 39 33" fill="none" xmlns="http://www.w3.org/2000/svg">
<path d="M35.41 0.671387H3.58998C1.64912 0.671387 0 2.23748 0 4.26137V28.7384C0 29.9587 0.599473 31.0129 1.50211 31.6581L15.0203 18.1399C15.4667 17.6935 16.1903 17.6935 16.6367 18.1399L20.7241 22.2273L29.7063 13.2443C29.9211 13.0303 30.2113 12.9099 30.5145 12.9099C30.8176 12.9099 31.1078 13.0303 31.3226 13.2443L39 20.9217V4.26137C39 2.23748 37.3509 0.671387 35.41 0.671387ZM9.70963 15.1951C7.05504 15.1951 4.89557 13.0356 4.89557 10.381C4.89557 7.72642 7.05504 5.56695 9.70963 5.56695C12.3642 5.56695 14.5237 7.72642 14.5237 10.381C14.5237 13.0356 12.3642 15.1951 9.70963 15.1951ZM9.70963 7.85211C8.31492 7.85211 7.18072 8.98631 7.18072 10.381C7.18072 11.775 8.31492 12.9099 9.70963 12.9099C11.1036 12.9099 12.2385 11.775 12.2385 10.381C12.2385 8.98631 11.1036 7.85211 9.70963 7.85211ZM30.5145 15.6681L21.5315 24.651C21.0859 25.0967 20.3623 25.0967 19.9159 24.651L15.8285 20.5637L4.06377 32.3284H35.41C37.3509 32.3284 39 30.7623 39 28.7384V24.1536L30.5145 15.6681Z" fill="#008080"/>
</svg>
