<svg width="22" height="22" viewBox="0 0 22 22" fill="none" xmlns="http://www.w3.org/2000/svg">
<path d="M14.4375 11.6875H7.5625C7.183 11.6875 6.875 11.9955 6.875 12.375C6.875 12.7545 7.183 13.0625 7.5625 13.0625H14.4375C14.817 13.0625 15.125 12.7545 15.125 12.375C15.125 11.9955 14.817 11.6875 14.4375 11.6875ZM15.8125 7.5625H6.1875C5.808 7.5625 5.5 7.8705 5.5 8.25C5.5 8.6295 5.808 8.9375 6.1875 8.9375H15.8125C16.192 8.9375 16.5 8.6295 16.5 8.25C16.5 7.8705 16.192 7.5625 15.8125 7.5625ZM11 0C4.92527 0 0 4.30923 0 9.625C0 12.6631 1.61218 15.3677 4.125 17.1318V22L8.94368 19.076C9.61059 19.1861 10.2967 19.25 11 19.25C17.0755 19.25 22 14.9408 22 9.625C22 4.30923 17.0755 0 11 0ZM11 17.875C10.197 17.875 9.4215 17.7815 8.67623 17.6227L5.43946 19.5683L5.48278 16.3797C3.00163 14.8871 1.375 12.4204 1.375 9.625C1.375 5.06895 5.68423 1.375 11 1.375C16.3158 1.375 20.625 5.06895 20.625 9.625C20.625 14.181 16.3158 17.875 11 17.875Z" fill="white"/>
</svg>
