<svg width="24" height="26" viewBox="0 0 24 26" fill="none" xmlns="http://www.w3.org/2000/svg">
<path d="M15.6162 24.7101H3.26109L1.49609 11.0312H17.3812L15.6162 24.7101Z" fill="#4398D1"/>
<path d="M18.705 9.26611H0.172363V11.0311H18.705V9.26611Z" fill="#4398D1"/>
<path d="M1.49585 11.0312L1.72353 12.7962H17.1532L17.3809 11.0312H1.49585Z" fill="#398CC4"/>
<path d="M8.55619 9.26639H2.37866V5.29513L4.14366 3.08887H6.7912L8.55619 5.29513V9.26639Z" fill="#726891"/>
<path d="M6.79085 0H4.14331V3.08876H6.79085V0Z" fill="#E8594A"/>
<path d="M8.55639 5.29492H2.37866V9.26628H8.55639V5.29492Z" fill="#7A709C"/>
<path d="M15.5329 1.49018L14.7434 1.88428L16.5444 5.49237L17.334 5.09827L15.5329 1.49018Z" fill="#E66712"/>
<path d="M18.264 0H16.499V1.76499H18.264V0Z" fill="#F77219"/>
<path d="M14.2925 3.53004H10.3213C10.3213 1.58055 11.9018 0 13.8513 0H16.4988V1.76499L14.2925 3.53004Z" fill="#F77219"/>
<path d="M14.2921 3.52979H11.6445V5.29478H14.2921V3.52979Z" fill="#D4D4D4"/>
<path d="M11.645 5.29492H14.2925L16.4988 7.50119V9.26618H10.3213V6.61869L11.645 5.29492Z" fill="#EBEBEB"/>
<path d="M21.7938 18.5327H21.1028C20.6867 18.5327 20.2763 18.6298 19.9038 18.8155C19.1493 19.1932 18.2606 19.1932 17.5061 18.8155C17.1337 18.6298 16.7233 18.5327 16.3072 18.5327H15.6162C14.3979 18.5327 13.4099 19.5207 13.4099 20.739V23.3865C13.4099 24.6048 14.3979 25.5928 15.6162 25.5928H16.3072C16.7233 25.5928 17.1336 25.4957 17.5061 25.31C18.2606 24.9323 19.1493 24.9323 19.9038 25.31C20.2762 25.4957 20.6866 25.5928 21.1027 25.5928H21.7937C23.012 25.5928 24 24.6048 24 23.3865V20.739C24 19.5207 23.0121 18.5327 21.7938 18.5327Z" fill="#F5A338"/>
<path d="M21.7938 22.9452H21.1028C20.6867 22.9452 20.2763 22.8482 19.9038 22.6624C19.1493 22.2847 18.2606 22.2847 17.5061 22.6624C17.1337 22.8482 16.7233 22.9452 16.3072 22.9452H15.6162C14.3979 22.9452 13.4099 21.9573 13.4099 20.739C13.4099 19.5207 14.3979 18.5327 15.6162 18.5327H16.3072C16.7233 18.5327 17.1336 18.6298 17.5061 18.8155C18.2606 19.1932 19.1493 19.1932 19.9038 18.8155C20.2762 18.6298 20.6866 18.5327 21.1027 18.5327H21.7937C23.012 18.5327 24 19.5207 24 20.739C24 21.9573 23.0121 22.9452 21.7938 22.9452Z" fill="#F9B44D"/>
<path d="M22.235 19.8564H21.3525V20.7389H22.235V19.8564Z" fill="#F5A338"/>
<path d="M17.8224 19.8564H16.9399V20.7389H17.8224V19.8564Z" fill="#F5A338"/>
<path d="M16.0573 20.2979H15.1748V21.1803H16.0573V20.2979Z" fill="#F5A338"/>
<path d="M20.4701 20.2979H19.5876V21.1803H20.4701V20.2979Z" fill="#F5A338"/>
<path d="M11.6447 12.7961V9.26611H4.58472V19.4149C4.58472 20.146 5.1773 20.7387 5.90849 20.7387H10.321C11.0522 20.7387 11.6448 20.1461 11.6448 19.4149V15.0024L13.4363 15.8981C13.9088 16.1346 14.4834 15.9431 14.7199 15.471C14.7199 15.4705 14.7203 15.4705 14.7203 15.4701L14.7314 15.448C14.9784 14.9631 14.7852 14.3696 14.3007 14.123C14.2989 14.1221 14.2967 14.1208 14.2945 14.1199L11.6447 12.7961Z" fill="#97D3E6"/>
<path d="M14.2945 14.1199L11.6447 12.7961V9.26611H11.3103C9.70855 14.5324 6.89776 17.751 4.60327 19.6095C4.69814 20.2577 5.25368 20.7382 5.9085 20.7387H10.321C11.0522 20.7387 11.6448 20.1461 11.6448 19.4149V15.0024L13.4363 15.8981C13.9088 16.1346 14.4834 15.9431 14.7199 15.471C14.7199 15.4705 14.7203 15.4705 14.7203 15.4701L14.7314 15.448C14.9784 14.9631 14.7852 14.3696 14.3007 14.123C14.2985 14.1221 14.2967 14.1208 14.2945 14.1199Z" fill="#8AC9DE"/>
<path d="M6.79094 16.3262H5.90845V20.7389H6.79094V16.3262Z" fill="#7DBDD1"/>
<path d="M8.55584 16.3262H7.67334V20.7389H8.55584V16.3262Z" fill="#7DBDD1"/>
<path d="M10.3205 16.3262H9.43799V20.7389H10.3205V16.3262Z" fill="#7DBDD1"/>
</svg>
