<svg width="34" height="40" viewBox="0 0 34 40" fill="none" xmlns="http://www.w3.org/2000/svg">
<path d="M2.51915 1.23389H30.2298C31.621 1.23389 32.749 2.33883 32.749 3.70163V37.0161C32.749 38.3789 31.621 39.4839 30.2298 39.4839H2.51915C1.12796 39.4839 0 38.3789 0 37.0161V3.70163C0 2.33883 1.12796 1.23389 2.51915 1.23389Z" fill="#ECCE93"/>
<path d="M2.51904 28.89V3.70166H30.2297V37.0162H10.8145L2.51904 28.89Z" fill="#EFEFEF"/>
<path d="M10.8145 28.8901V37.0163L2.51904 28.8901H10.8145Z" fill="#E76E54"/>
<path d="M10.0767 4.93548V0H22.6724V4.93548C22.6724 6.29829 21.5445 7.40323 20.1533 7.40323H12.5958C11.2046 7.40323 10.0767 6.29829 10.0767 4.93548Z" fill="#E76E54"/>
<path d="M34 34C34 37.0286 31.5447 39.4839 28.5161 39.4839C25.4875 39.4839 23.0322 37.0286 23.0322 34C23.0322 30.9714 25.4875 28.5161 28.5161 28.5161C31.5447 28.5161 34 30.9714 34 34Z" fill="#48C8EF"/>
<path d="M27.7575 36.1937L26.5109 34.9266C26.2597 34.6713 26.2597 34.2576 26.5109 34.0025C26.762 33.7474 27.1692 33.7474 27.4205 34.0025L27.8373 34.4253L30.7507 31.9583C31.0237 31.727 31.4297 31.7645 31.6571 32.0419C31.8848 32.3192 31.8479 32.7317 31.5748 32.9627L27.7575 36.1937Z" fill="white"/>
<path d="M13.8553 9.87061H23.9319C24.6275 9.87061 25.1915 10.4231 25.1915 11.1045C25.1915 11.7859 24.6275 12.3383 23.9319 12.3383H13.8553C13.1597 12.3383 12.5957 11.7859 12.5957 11.1045C12.5957 10.4231 13.1597 9.87061 13.8553 9.87061Z" fill="#77959E"/>
<path d="M7.55737 9.87109H10.0765V12.3388H7.55737V9.87109Z" fill="#77959E"/>
<path d="M7.55737 14.8062H10.0765V17.2739H7.55737V14.8062Z" fill="#77959E"/>
<path d="M7.55737 19.7417H10.0765V22.2094H7.55737V19.7417Z" fill="#77959E"/>
<path d="M7.55737 24.6772H10.0765V27.145H7.55737V24.6772Z" fill="#77959E"/>
<path d="M13.8553 14.8062H21.4127C22.1083 14.8062 22.6723 15.3586 22.6723 16.04C22.6723 16.7214 22.1083 17.2739 21.4127 17.2739H13.8553C13.1597 17.2739 12.5957 16.7214 12.5957 16.04C12.5957 15.3586 13.1597 14.8062 13.8553 14.8062Z" fill="#77959E"/>
<path d="M13.8553 19.7417H16.3744C17.07 19.7417 17.634 20.2942 17.634 20.9756C17.634 21.657 17.07 22.2094 16.3744 22.2094H13.8553C13.1597 22.2094 12.5957 21.657 12.5957 20.9756C12.5957 20.2942 13.1597 19.7417 13.8553 19.7417Z" fill="#77959E"/>
</svg>
