<svg width="27" height="28" viewBox="0 0 27 28" fill="none" xmlns="http://www.w3.org/2000/svg">
<path d="M7.16382 5.05859C7.16382 5.05859 7.57747 6.5951 8.76866 6.66635C8.76866 6.66635 7.17862 7.21558 7.1518 8.39014C7.1518 8.39014 6.83877 6.74282 5.58301 6.6837C5.58301 6.6837 7.04572 6.46207 7.16382 5.05859Z" fill="#D7E057"/>
<path d="M4.52926 7.11963C4.52926 7.11963 4.82189 8.20643 5.66437 8.25693C5.66437 8.25693 4.53969 8.64545 4.52076 9.47616C4.52076 9.47616 4.29937 8.31094 3.41113 8.26919C3.41113 8.26919 4.44575 8.11237 4.52926 7.11963Z" fill="#D7E057"/>
<path d="M4.52926 3.88428C4.52926 3.88428 4.82189 4.97108 5.66437 5.02158C5.66437 5.02158 4.53969 5.4101 4.52076 6.24081C4.52076 6.24081 4.29937 5.07571 3.41113 5.03384C3.41113 5.03384 4.44575 4.87714 4.52926 3.88428Z" fill="#D7E057"/>
<path d="M4.92352 27.0187H0.476404C0.282294 27.0187 0.125 26.8614 0.125 26.6673V24.2215C0.125 24.0274 0.282295 23.8701 0.476404 23.8701H4.92352C5.11763 23.8701 5.27493 24.0274 5.27493 24.2215V26.6673C5.27493 26.8614 5.11763 27.0187 4.92352 27.0187Z" fill="#87796F" stroke="#726C68" stroke-width="0.25"/>
<path d="M10.3239 27.0187H5.87679C5.68268 27.0187 5.52539 26.8614 5.52539 26.6673V24.2215C5.52539 24.0274 5.68269 23.8701 5.87679 23.8701H10.3239C10.518 23.8701 10.6753 24.0274 10.6753 24.2215V26.6673C10.6753 26.8614 10.518 27.0187 10.3239 27.0187Z" fill="#87796F" stroke="#726C68" stroke-width="0.25"/>
<path d="M16.0747 26.6673V26.6673C16.0748 26.8614 15.9175 27.0187 15.7234 27.0187H11.2762C11.0821 27.0187 10.9248 26.8614 10.9248 26.6673V24.2215C10.9248 24.0274 11.0821 23.8701 11.2762 23.8701H15.7233C15.9174 23.8701 16.0747 24.0274 16.0747 24.2215V26.6673Z" fill="#87796F" stroke="#726C68" stroke-width="0.25"/>
<path d="M21.1237 27.0187H16.6766C16.4825 27.0187 16.3252 26.8614 16.3252 26.6673V24.2215C16.3252 24.0274 16.4825 23.8701 16.6766 23.8701H21.1237C21.3178 23.8701 21.4751 24.0274 21.4751 24.2215V26.6673C21.4751 26.8614 21.3178 27.0187 21.1237 27.0187Z" fill="#87796F" stroke="#726C68" stroke-width="0.25"/>
<path d="M26.5231 27.0187H22.076C21.8819 27.0187 21.7246 26.8614 21.7246 26.6673V24.2215C21.7246 24.0274 21.8819 23.8701 22.076 23.8701H26.5231C26.7172 23.8701 26.8745 24.0274 26.8745 24.2215V26.6673C26.8745 26.8614 26.7172 27.0187 26.5231 27.0187Z" fill="#87796F" stroke="#726C68" stroke-width="0.25"/>
<path d="M7.62372 23.6202H3.1766C2.98249 23.6202 2.8252 23.4629 2.8252 23.2688V20.8231C2.8252 20.629 2.98249 20.4717 3.1766 20.4717H7.62372C7.81783 20.4717 7.97512 20.629 7.97512 20.8231V23.2688C7.97512 23.4629 7.81783 23.6202 7.62372 23.6202Z" fill="#87796F" stroke="#726C68" stroke-width="0.25"/>
<path d="M13.0231 23.6202H8.57601C8.3819 23.6202 8.22461 23.4629 8.22461 23.2688V20.8231C8.22461 20.629 8.3819 20.4717 8.57601 20.4717H13.0231C13.2172 20.4717 13.3745 20.629 13.3745 20.8231V23.2688C13.3745 23.4629 13.2172 23.6202 13.0231 23.6202Z" fill="#87796F" stroke="#726C68" stroke-width="0.25"/>
<path d="M18.7749 23.2688V23.2689C18.775 23.4629 18.6177 23.6202 18.4235 23.6202H13.9764C13.7823 23.6202 13.625 23.4629 13.625 23.2688V20.8231C13.625 20.629 13.7823 20.4717 13.9764 20.4717H18.4235C18.6176 20.4717 18.7749 20.629 18.7749 20.8231V23.2688Z" fill="#87796F" stroke="#726C68" stroke-width="0.25"/>
<path d="M23.8229 23.6202H19.3758C19.1817 23.6202 19.0244 23.4629 19.0244 23.2688V20.8231C19.0244 20.629 19.1817 20.4717 19.3758 20.4717H23.8229C24.017 20.4717 24.1743 20.629 24.1743 20.8231V23.2688C24.1743 23.4629 24.017 23.6202 23.8229 23.6202Z" fill="#87796F" stroke="#726C68" stroke-width="0.25"/>
<path d="M10.3239 20.2218H5.87679C5.68268 20.2218 5.52539 20.0645 5.52539 19.8704V17.4246C5.52539 17.2305 5.68269 17.0732 5.87679 17.0732H10.3239C10.518 17.0732 10.6753 17.2305 10.6753 17.4246V19.8704C10.6753 20.0645 10.518 20.2218 10.3239 20.2218Z" fill="#87796F" stroke="#726C68" stroke-width="0.25"/>
<path d="M15.7234 20.3468H11.2762C11.0131 20.3468 10.7998 20.1335 10.7998 19.8704V17.4246C10.7998 17.1615 11.0131 16.9482 11.2762 16.9482H15.7233C15.9865 16.9482 16.1997 17.1615 16.1997 17.4246V19.8704C16.1998 20.1335 15.9865 20.3468 15.7234 20.3468Z" fill="#87796F"/>
<path d="M21.1237 20.2218H16.6766C16.4825 20.2218 16.3252 20.0645 16.3252 19.8704V17.4246C16.3252 17.2305 16.4825 17.0732 16.6766 17.0732H21.1237C21.3178 17.0732 21.4751 17.2305 21.4751 17.4246V19.8704C21.4751 20.0645 21.3178 20.2218 21.1237 20.2218Z" fill="#87796F" stroke="#726C68" stroke-width="0.25"/>
<path d="M13.0231 16.8233H8.57601C8.3819 16.8233 8.22461 16.6661 8.22461 16.4719V14.0262C8.22461 13.8321 8.3819 13.6748 8.57601 13.6748H13.0231C13.2172 13.6748 13.3745 13.8321 13.3745 14.0262V16.4719C13.3745 16.6661 13.2172 16.8233 13.0231 16.8233Z" fill="#87796F" stroke="#726C68" stroke-width="0.25"/>
<path d="M18.7749 16.4719V16.472C18.775 16.666 18.6177 16.8233 18.4235 16.8233H13.9764C13.7823 16.8233 13.625 16.6661 13.625 16.4719V14.0262C13.625 13.8321 13.7823 13.6748 13.9764 13.6748H18.4235C18.6176 13.6748 18.7749 13.8321 18.7749 14.0262V16.4719Z" fill="#87796F" stroke="#726C68" stroke-width="0.25"/>
<path d="M11.2762 10.2759H12.5536H14.446H15.7233C15.9174 10.2759 16.0747 10.4332 16.0747 10.6273V13.0729C16.0747 13.267 15.9174 13.4243 15.7233 13.4243H11.2762C11.0821 13.4243 10.9248 13.267 10.9248 13.0729V10.6273C10.9248 10.4332 11.0821 10.2759 11.2762 10.2759Z" fill="#87796F" stroke="#726C68" stroke-width="0.25"/>
<path d="M19.8369 7.81006L21.012 6.63502L25.0854 10.7085L23.9104 11.8835L19.8369 7.81006Z" fill="#87796F"/>
<path d="M23.6285 12.687L24.5459 13.6044C24.7965 13.855 25.2034 13.8558 25.4548 13.6044L26.8119 12.2473C27.0632 11.9959 27.0625 11.5891 26.8119 11.3384L23.6693 8.19585C23.4181 7.94448 23.0118 7.94448 22.7604 8.19585L21.4033 9.55297C21.1521 9.80434 21.152 10.2105 21.4033 10.4618L22.2469 11.3054L23.6285 12.687Z" fill="#8AC6DD"/>
<path d="M16.457 8.89035C17.0925 9.52588 18.123 9.52588 18.7587 8.89035L22.0981 5.55092C22.7336 4.91539 22.7336 3.8849 22.0981 3.24925C20.0177 1.16886 17.1961 0 14.2539 0H14.066C13.5922 0 13.208 0.384157 13.208 0.858011V1.0459C13.2079 3.98819 14.3766 6.80983 16.457 8.89035Z" fill="#D7E057"/>
<path d="M21.9689 5.42245L18.6286 8.76152C18.3555 9.03461 17.9926 9.18512 17.6066 9.18512C17.2704 9.18512 16.9524 9.07103 16.6963 8.86226C16.7351 8.8307 16.7728 8.79672 16.808 8.76152L20.1482 5.42245C20.7114 4.85926 20.7114 3.94165 20.1482 3.37846C18.4004 1.63064 16.1647 0.549175 13.748 0.261512C13.8427 0.211748 13.9507 0.182617 14.0648 0.182617H14.253C17.1672 0.182617 19.9079 1.31749 21.9689 3.37846C22.5321 3.94165 22.5321 4.85926 21.9689 5.42245Z" fill="#B9BC39"/>
</svg>
