<svg width="31" height="28" viewBox="0 0 31 28" fill="none" xmlns="http://www.w3.org/2000/svg">
<path d="M30.9709 8.48429L29.2174 1.46668C29.0024 0.604498 28.2274 0 27.3381 0H3.6638C2.77449 0 1.99949 0.604498 1.7825 1.46668L0.0290624 8.48429C0.00968747 8.55985 0 8.63929 0 8.71873C0 11.3886 2.06343 13.5625 4.60155 13.5625C6.07598 13.5625 7.39154 12.8282 8.23435 11.6889C9.07716 12.8282 10.3927 13.5625 11.8672 13.5625C13.3416 13.5625 14.6571 12.8282 15.5 11.6889C16.3428 12.8282 17.6564 13.5625 19.1328 13.5625C20.6091 13.5625 21.9228 12.8282 22.7656 11.6889C23.6084 12.8282 24.922 13.5625 26.3984 13.5625C28.9365 13.5625 30.9999 11.3886 30.9999 8.71873C30.9999 8.63929 30.9902 8.55985 30.9709 8.48429Z" fill="#008080"/>
<path d="M26.3984 15.5006C25.0789 15.5006 23.8254 15.0976 22.7656 14.3613C20.646 15.8358 17.6196 15.8358 15.5 14.3613C13.3803 15.8358 10.354 15.8358 8.23436 14.3613C7.17455 15.0976 5.92099 15.5006 4.60156 15.5006C3.65025 15.5006 2.75319 15.2778 1.9375 14.898V25.1881C1.9375 26.2575 2.8055 27.1255 3.87499 27.1255H11.625V19.3756H19.375V27.1255H27.1249C28.1944 27.1255 29.0624 26.2575 29.0624 25.1881V14.898C28.2467 15.2778 27.3497 15.5006 26.3984 15.5006Z" fill="#008080"/>
</svg>
