<svg width="32" height="28" viewBox="0 0 32 28" fill="none" xmlns="http://www.w3.org/2000/svg">
<path d="M27.2432 24.4935C26.9842 24.4935 26.7744 24.2836 26.7744 24.0247V9.90624C26.7744 9.64737 26.9842 9.4375 27.2432 9.4375C27.5021 9.4375 27.7119 9.64737 27.7119 9.90624V24.0247C27.7119 24.2836 27.5021 24.4935 27.2432 24.4935Z" fill="#4C6B7F"/>
<path d="M29.6707 26.0976H24.7773V23.8471C24.7773 23.4917 25.0655 23.2036 25.4208 23.2036H29.0272C29.3825 23.2036 29.6707 23.4917 29.6707 23.8471V26.0976Z" fill="#CD795E"/>
<path d="M29.0272 23.2036H27.0957C27.4513 23.2036 27.7396 23.4915 27.7396 23.8467V26.0976H29.6711V23.8467C29.6711 23.4916 29.3828 23.2036 29.0272 23.2036Z" fill="#BE6454"/>
<path d="M20.8939 22.1729H3.50977V26.0975H20.8939V22.1729Z" fill="#CD795E"/>
<path d="M20.8935 22.1729H18.9619V26.0975H20.8935V22.1729Z" fill="#BE6454"/>
<path d="M17.6086 2.68799H6.66309V8.6048H17.6086V2.68799Z" fill="#51C4F5"/>
<path d="M31.9996 25.1328H0V27.0622H31.9996V25.1328Z" fill="#4C6B7F"/>
<path d="M31.9999 25.1328H30.0684V27.0622H31.9999V25.1328Z" fill="#3B5366"/>
<path d="M19.4988 20.5452H4.90268C4.06169 20.5452 3.37988 19.8634 3.37988 19.0224V14.0506C3.37988 13.2096 4.06169 12.5278 4.90268 12.5278H19.4988C20.3398 12.5278 21.0216 13.2096 21.0216 14.0506V19.0224C21.0216 19.8635 20.3398 20.5452 19.4988 20.5452Z" fill="#FFB06A"/>
<path d="M19.5273 12.5278H17.5957C18.4213 12.5278 19.0906 13.2223 19.0906 14.0791V18.9941C19.0906 19.8508 18.4213 20.5453 17.5957 20.5453H19.5272C20.3529 20.5453 21.0222 19.8508 21.0222 18.9941V14.0791C21.0222 13.2223 20.3529 12.5278 19.5273 12.5278Z" fill="#FF9242"/>
<path d="M30.0736 10.727H24.2452C24.0874 10.727 23.9691 10.5826 24.0001 10.4279L25.1886 4.49677C25.2121 4.37996 25.3146 4.2959 25.4337 4.2959H28.8851C29.0043 4.2959 29.1068 4.37996 29.1303 4.49677L30.3188 10.4279C30.3498 10.5825 30.2314 10.727 30.0736 10.727Z" fill="#FFD65C"/>
<path d="M28.8849 4.2959H27.1797L28.4684 10.727H30.0735C30.2313 10.727 30.3496 10.5826 30.3186 10.4279L29.13 4.49677C29.1066 4.37996 29.004 4.2959 28.8849 4.2959Z" fill="#FFB254"/>
<path d="M8.40167 15.8279H8.0978V15.5249C8.0978 15.266 7.88793 15.0562 7.62906 15.0562C7.37018 15.0562 7.16031 15.266 7.16031 15.5249V15.8279H6.85644C6.59757 15.8279 6.3877 16.0378 6.3877 16.2966C6.3877 16.5555 6.59757 16.7654 6.85644 16.7654H7.16031V17.0684C7.16031 17.3273 7.37018 17.5371 7.62906 17.5371C7.88793 17.5371 8.0978 17.3273 8.0978 17.0684V16.7654H8.40167C8.66054 16.7654 8.87042 16.5555 8.87042 16.2966C8.87042 16.0378 8.66061 15.8279 8.40167 15.8279Z" fill="#FF9242"/>
<path d="M17.5443 15.8279H17.2404V15.5249C17.2404 15.266 17.0306 15.0562 16.7717 15.0562C16.5128 15.0562 16.303 15.266 16.303 15.5249V15.8279H15.999C15.7401 15.8279 15.5303 16.0378 15.5303 16.2966C15.5303 16.5555 15.7401 16.7654 15.999 16.7654H16.3029V17.0684C16.3029 17.3273 16.5127 17.5371 16.7716 17.5371C17.0306 17.5371 17.2404 17.3273 17.2404 17.0684V16.7654H17.5443C17.8032 16.7654 18.013 16.5555 18.013 16.2966C18.013 16.0378 17.8032 15.8279 17.5443 15.8279Z" fill="#FF9242"/>
<path d="M12.973 15.8279H12.6691V15.5249C12.6691 15.266 12.4592 15.0562 12.2003 15.0562C11.9415 15.0562 11.7316 15.266 11.7316 15.5249V15.8279H11.4277C11.1689 15.8279 10.959 16.0378 10.959 16.2966C10.959 16.5555 11.1689 16.7654 11.4277 16.7654H11.7316V17.0684C11.7316 17.3273 11.9415 17.5371 12.2003 17.5371C12.4592 17.5371 12.6691 17.3273 12.6691 17.0684V16.7654H12.973C13.2318 16.7654 13.4417 16.5555 13.4417 16.2966C13.4417 16.0378 13.2318 15.8279 12.973 15.8279Z" fill="#FF9242"/>
<path d="M19.9269 20.2451H4.47461V23.2032H19.9269V20.2451Z" fill="#DE4747"/>
<path d="M4.47482 23.2039H2.15679C2.01466 23.2039 1.89941 23.0886 1.89941 22.9465V17.4161C1.89941 17.2739 2.01466 17.1587 2.15679 17.1587H4.21745C4.35957 17.1587 4.47482 17.2739 4.47482 17.4161V23.2039Z" fill="#C43F3F"/>
<path d="M22.2458 23.2039H19.9277V17.4161C19.9277 17.2739 20.043 17.1587 20.1851 17.1587H22.2458C22.3879 17.1587 22.5031 17.2739 22.5031 17.4161V22.9465C22.5031 23.0886 22.3879 23.2039 22.2458 23.2039Z" fill="#C43F3F"/>
<path d="M22.8895 0.964677H22.3925V0.468745C22.3925 0.209873 22.1827 0 21.9237 0C21.6648 0 21.455 0.209873 21.455 0.468745V0.964677H20.958C20.6991 0.964677 20.4893 1.17455 20.4893 1.43342C20.4893 1.69229 20.6991 1.90217 20.958 1.90217H21.455V2.3981C21.455 2.65697 21.6648 2.86684 21.9237 2.86684C22.1827 2.86684 22.3925 2.65697 22.3925 2.3981V1.90217H22.8895C23.1485 1.90217 23.3583 1.69229 23.3583 1.43342C23.3583 1.17455 23.1485 0.964677 22.8895 0.964677Z" fill="#FFD65C"/>
<path d="M30.9218 15.2762H30.4248V14.7803C30.4248 14.5214 30.215 14.3115 29.956 14.3115C29.6971 14.3115 29.4873 14.5214 29.4873 14.7803V15.2762H28.9902C28.7313 15.2762 28.5215 15.4861 28.5215 15.7449C28.5215 16.0038 28.7313 16.2137 28.9902 16.2137H29.4873V16.7096C29.4873 16.9685 29.6971 17.1784 29.956 17.1784C30.215 17.1784 30.4248 16.9685 30.4248 16.7096V16.2137H30.9218C31.1807 16.2137 31.3905 16.0038 31.3905 15.7449C31.3905 15.4861 31.1807 15.2762 30.9218 15.2762Z" fill="#FFD65C"/>
<path d="M3.45894 8.96224H2.96189V8.4663C2.96189 8.20743 2.75201 7.99756 2.49314 7.99756C2.23427 7.99756 2.0244 8.20743 2.0244 8.4663V8.96224H1.52734C1.26847 8.96224 1.05859 9.17211 1.05859 9.43098C1.05859 9.68985 1.26847 9.89972 1.52734 9.89972H2.0244V10.3957C2.0244 10.6545 2.23427 10.8644 2.49314 10.8644C2.75201 10.8644 2.96189 10.6545 2.96189 10.3957V9.89972H3.45894C3.71781 9.89972 3.92769 9.68985 3.92769 9.43098C3.92769 9.17211 3.71788 8.96224 3.45894 8.96224Z" fill="#FFD65C"/>
<path d="M17.6096 2.21973H6.66406C6.40519 2.21973 6.19531 2.4296 6.19531 2.68847V8.60509C6.19531 8.86396 6.40519 9.07384 6.66406 9.07384H17.6096C17.8686 9.07384 18.0784 8.86396 18.0784 8.60509V2.68847C18.0784 2.42954 17.8685 2.21973 17.6096 2.21973ZM17.1409 8.13629H7.1328V3.15722H17.1409V8.13629Z" fill="#4C6B7F"/>
</svg>
