<svg width="15" height="13" viewBox="0 0 15 13" fill="none" xmlns="http://www.w3.org/2000/svg">
<path d="M13.8682 9.78585C15.2975 7.78047 15.079 5.03299 13.1267 3.2433C12.2347 2.4256 11.0976 1.91655 9.8692 1.77438C9.86154 1.76497 9.85371 1.75564 9.84513 1.74671C8.7765 0.636653 7.24123 0 5.63299 0C2.57253 0 0 2.28029 0 5.2C0 6.22368 0.31798 7.205 0.922018 8.05252L0.0782022 10.7018C0.0251622 10.8683 0.0773355 11.0503 0.210484 11.1635C0.343864 11.2769 0.532018 11.2986 0.687469 11.2196L3.25358 9.91475C3.78057 10.1417 4.3394 10.2906 4.9181 10.3583C6.03443 11.5322 7.57799 12.1333 9.1572 12.1333C9.97811 12.1333 10.796 11.966 11.5365 11.6481L14.1027 12.9529C14.1649 12.9845 14.2321 13 14.299 13C14.5915 13 14.8011 12.715 14.712 12.4351L13.8682 9.78585ZM3.42848 9.04283C3.30711 8.9852 3.16593 8.9871 3.04619 9.048L1.21848 9.97736L1.81532 8.10345C1.85877 7.96701 1.83205 7.81794 1.74388 7.70513C1.16997 6.97048 0.866609 6.10425 0.866609 5.2C0.866609 2.8106 3.00479 0.866667 5.63299 0.866667C6.69136 0.866667 7.71024 1.1873 8.53672 1.76471C5.75334 2.04458 3.52421 4.21859 3.52421 6.93333C3.52421 7.7777 3.74065 8.59057 4.1487 9.31886C3.90165 9.24528 3.66103 9.15327 3.42848 9.04283V9.04283ZM11.744 10.7813C11.626 10.7213 11.4847 10.7177 11.3617 10.7762C10.6861 11.0971 9.92385 11.2667 9.1572 11.2667C6.529 11.2667 4.39082 9.32273 4.39082 6.93333C4.39082 4.54393 6.529 2.6 9.1572 2.6C11.7854 2.6 13.9236 4.54393 13.9236 6.93333C13.9236 7.83758 13.6202 8.70382 13.0463 9.43843C12.9581 9.55124 12.9314 9.70031 12.9748 9.83675L13.5717 11.7107L11.744 10.7813Z" fill="white"/>
<path d="M7.39378 7.36667C7.63311 7.36667 7.82712 7.17266 7.82712 6.93333C7.82712 6.69401 7.63311 6.5 7.39378 6.5C7.15446 6.5 6.96045 6.69401 6.96045 6.93333C6.96045 7.17266 7.15446 7.36667 7.39378 7.36667Z" fill="white"/>
<path d="M9.12865 7.36667C9.36797 7.36667 9.56198 7.17266 9.56198 6.93333C9.56198 6.69401 9.36797 6.5 9.12865 6.5C8.88932 6.5 8.69531 6.69401 8.69531 6.93333C8.69531 7.17266 8.88932 7.36667 9.12865 7.36667Z" fill="white"/>
<path d="M10.8591 7.36667C11.0984 7.36667 11.2924 7.17266 11.2924 6.93333C11.2924 6.69401 11.0984 6.5 10.8591 6.5C10.6198 6.5 10.4258 6.69401 10.4258 6.93333C10.4258 7.17266 10.6198 7.36667 10.8591 7.36667Z" fill="white"/>
</svg>
