<svg width="24" height="26" viewBox="0 0 24 26" fill="none" xmlns="http://www.w3.org/2000/svg">
<path d="M20.4815 3.52266C17.6212 0.304835 13.9314 -0.442409 9.93059 0.222608C5.64016 0.937681 2.52959 3.34748 1.03509 7.51992C-0.194832 10.9487 0.209184 11.9534 3.30187 13.9949C5.80463 15.6467 8.62916 16.2295 11.5681 16.3725C13.2092 16.4726 14.7859 16.015 16.3233 15.6574C18.9727 15.021 21.3074 13.7518 22.1726 10.9916C23.0379 8.23142 22.4193 5.69648 20.4815 3.52266ZM16.6415 9.09308C16.3734 10.4052 15.3258 11.0667 14.1388 11.3384C13.2078 11.5041 12.2664 11.6045 11.3214 11.6387C9.53373 11.4921 8.12146 11.4421 6.75925 10.8629C5.75457 10.4338 5.51502 9.95831 5.91904 8.96436C7.13824 5.96821 12.4047 4.3164 15.1077 6.12553C16.1446 6.8263 16.9133 7.74874 16.6415 9.09308Z" fill="#322D3C"/>
<path d="M0.234256 17.8958C0.234256 17.5383 0.234256 17.1807 0.234256 16.8232C0.405873 16.3513 -0.36998 15.8829 0.234256 15.3931C0.949328 15.6076 1.11022 16.4371 1.71088 16.7839C4.63195 19.5941 8.10005 21.0064 12.1581 20.7347C14.6215 20.5773 16.8561 19.7586 18.2898 17.6885C19.105 16.5086 19.72 16.6337 20.6746 17.3309C21.2218 17.6762 21.7916 17.9844 22.38 18.2534C23.728 19.1722 23.374 20.1376 22.4909 21.1637C19.4411 24.714 15.5332 26.0369 10.9389 25.7795C7.08822 25.5614 4.00269 23.9918 1.71088 20.8956C1.04586 20.0196 0.402298 19.0578 0.234256 17.8958Z" fill="#26B05D"/>
</svg>
