<svg width="30" height="30" viewBox="0 0 30 30" fill="none" xmlns="http://www.w3.org/2000/svg">
<path d="M14.7368 29.5C22.6045 29.5 28.9825 23.0082 28.9825 15C28.9825 6.99188 22.6045 0.5 14.7368 0.5C6.8692 0.5 0.491211 6.99188 0.491211 15C0.491211 23.0082 6.8692 29.5 14.7368 29.5Z" fill="#FFDE55"/>
<path d="M28.9826 14.9999C28.983 17.9888 28.0759 20.9047 26.3856 23.3487C24.6952 25.7927 22.3042 27.6453 19.5397 28.6529C16.7752 29.6606 13.7723 29.774 10.942 28.9778C8.11168 28.1816 5.59226 26.5146 3.72852 24.205C6.46176 26.4943 9.93446 27.6659 13.47 27.4915C17.0056 27.3171 20.3507 25.8092 22.8536 23.2615C25.3566 20.7139 26.838 17.309 27.0094 13.7104C27.1807 10.1117 26.0297 6.57697 23.7805 3.79492C25.409 5.15367 26.7205 6.86379 27.6202 8.80164C28.5199 10.7395 28.9852 12.8566 28.9826 14.9999Z" fill="#EBBF00"/>
<path d="M26.1979 6.15993C26.1635 6.18993 26.134 6.22493 26.0996 6.24993C25.7256 6.58394 25.2408 6.76052 24.7435 6.74381C24.2463 6.72709 23.7739 6.51833 23.4224 6.15993L22.0322 4.74493L24.8126 1.91992L26.1979 3.33492C26.3811 3.51984 26.5265 3.73986 26.6258 3.9823C26.7251 4.22473 26.7762 4.48478 26.7762 4.74743C26.7762 5.01007 26.7251 5.27012 26.6258 5.51255C26.5265 5.75499 26.3811 5.97501 26.1979 6.15993Z" fill="#57A4FF"/>
<path d="M7.44219 25.2549L4.66184 28.0799L3.27657 26.6649C3.09332 26.4799 2.94787 26.2599 2.84861 26.0175C2.74935 25.775 2.69824 25.515 2.69824 25.2524C2.69824 24.9897 2.74935 24.7297 2.84861 24.4872C2.94787 24.2448 3.09332 24.0248 3.27657 23.8398C3.31096 23.8098 3.34043 23.7748 3.37482 23.7498C3.74878 23.4158 4.23364 23.2393 4.7309 23.256C5.22816 23.2727 5.70052 23.4814 6.05201 23.8398L7.44219 25.2549Z" fill="#57A4FF"/>
<path d="M14.7366 24C19.62 24 23.5788 19.9706 23.5788 15C23.5788 10.0294 19.62 6 14.7366 6C9.85328 6 5.89453 10.0294 5.89453 15C5.89453 19.9706 9.85328 24 14.7366 24Z" fill="#46F8FF"/>
<path d="M23.5793 15.0002C23.5799 16.8312 23.0316 18.6188 22.0076 20.1242C20.9837 21.6296 19.5329 22.7812 17.8489 23.4252C16.165 24.0692 14.3281 24.1749 12.5836 23.7281C10.8391 23.2814 9.27003 22.3036 8.08594 20.9252C9.91018 21.9246 12.0213 22.2403 14.0508 21.8171C16.0804 21.394 17.8995 20.259 19.1908 18.61C20.4821 16.9611 21.1636 14.903 21.1164 12.7949C21.0691 10.6868 20.2961 8.66246 18.9323 7.0752C20.3376 7.84613 21.5116 8.98995 22.3298 10.3852C23.1479 11.7805 23.5797 13.3753 23.5793 15.0002Z" fill="#00E7F0"/>
<path d="M17.6848 14L14.7374 20V16H11.79L14.7374 10V14H17.6848Z" fill="#FFDE55"/>
<path d="M26.7266 6.2924C27.1049 5.81544 27.2959 5.21263 27.2628 4.60056C27.2297 3.9885 26.9748 3.41068 26.5473 2.9789L25.1576 1.5649C25.0637 1.47456 24.9395 1.42422 24.8103 1.42422C24.6811 1.42422 24.5568 1.47456 24.463 1.5649L24.1157 1.9184L22.726 0.504395L22.0314 1.2114L23.4211 2.6254L22.7265 3.3324L21.3368 1.9184L20.6422 2.6254L22.0319 4.0399L21.6841 4.3934C21.592 4.48716 21.5403 4.61432 21.5403 4.7469C21.5403 4.87948 21.592 5.00664 21.6841 5.1004L23.0738 6.5144C23.4454 6.89709 23.9298 7.14557 24.453 7.22194C24.9763 7.29831 25.5098 7.19839 25.972 6.9374C27.6178 9.29148 28.4988 12.1107 28.4916 14.9999C28.4901 17.2975 27.9335 19.5594 26.8707 21.5864C25.8079 23.6134 24.2717 25.3433 22.3973 26.6235C20.5229 27.9037 18.368 28.6951 16.1223 28.9278C13.8766 29.1605 11.6092 28.8274 9.51981 27.9579L9.14746 28.8829C11.386 29.8149 13.8154 30.172 16.2216 29.9228C18.6277 29.6737 20.9367 28.8259 22.945 27.4542C24.9534 26.0826 26.5993 24.2291 27.7379 22.0572C28.8765 19.8853 29.4727 17.4617 29.474 14.9999C29.4819 11.8753 28.5204 8.82801 26.7266 6.2924ZM23.7684 5.8074L22.726 4.7469L24.8103 2.6254L25.8522 3.6864C25.9929 3.82477 26.1052 3.99029 26.1824 4.17329C26.2597 4.3563 26.3003 4.55313 26.302 4.7523C26.3037 4.95147 26.2664 5.14899 26.1923 5.33333C26.1182 5.51768 26.0088 5.68516 25.8705 5.82599C25.7321 5.96683 25.5675 6.07821 25.3864 6.15364C25.2053 6.22906 25.0113 6.26701 24.8156 6.26528C24.6199 6.26355 24.4265 6.22217 24.2467 6.14355C24.067 6.06494 23.9043 5.95067 23.7684 5.8074Z" fill="black"/>
<path d="M2.74749 23.7075C2.36919 24.1845 2.17811 24.7873 2.21123 25.3994C2.24435 26.0114 2.49931 26.5892 2.92679 27.021L4.31648 28.435C4.41033 28.5254 4.5346 28.5757 4.66377 28.5757C4.79295 28.5757 4.91722 28.5254 5.01107 28.435L5.35837 28.0815L6.74806 29.4955L7.44266 28.7885L6.05297 27.3745L6.74757 26.6675L8.13725 28.0815L8.83185 27.3745L7.44216 25.96L7.78995 25.6065C7.88205 25.5128 7.93378 25.3856 7.93378 25.253C7.93378 25.1204 7.88205 24.9933 7.78995 24.8995L6.40027 23.4855C6.02867 23.1028 5.54429 22.8544 5.02102 22.778C4.49775 22.7016 3.9643 22.8015 3.50202 23.0625C1.85625 20.7084 0.975261 17.8893 0.982506 15C0.983975 12.7024 1.54061 10.4405 2.60337 8.41347C3.66613 6.38647 5.20238 4.65664 7.07676 3.37641C8.95113 2.09618 11.1061 1.30484 13.3518 1.07214C15.5974 0.839431 17.8649 1.17249 19.9543 2.04198L20.3266 1.11698C18.088 0.185047 15.6586 -0.172083 13.2525 0.0770654C10.8463 0.326214 8.53736 1.17399 6.52903 2.54567C4.52071 3.91736 2.87472 5.77083 1.73614 7.94273C0.597554 10.1146 0.00134146 12.5383 4.8089e-05 15C-0.00783509 18.1246 0.953678 21.1719 2.74749 23.7075ZM5.70567 24.1925L6.74806 25.253L4.66377 27.3745L3.62188 26.3135C3.48113 26.1752 3.36886 26.0096 3.29162 25.8266C3.21439 25.6436 3.17374 25.4468 3.17203 25.2476C3.17033 25.0485 3.20762 24.8509 3.28172 24.6666C3.35582 24.4822 3.46524 24.3148 3.60361 24.1739C3.74198 24.0331 3.90652 23.9217 4.08763 23.8463C4.26874 23.7709 4.4628 23.7329 4.65847 23.7346C4.85415 23.7364 5.04752 23.7778 5.22732 23.8564C5.40711 23.935 5.56973 24.0493 5.70567 24.1925Z" fill="black"/>
<path d="M5.40332 15C5.40332 16.8789 5.95071 18.7157 6.97627 20.2779C8.00183 21.8402 9.4595 23.0578 11.165 23.7769C12.8704 24.4959 14.747 24.684 16.5575 24.3175C18.368 23.9509 20.031 23.0461 21.3363 21.7175C22.6416 20.3889 23.5306 18.6962 23.8907 16.8534C24.2508 15.0106 24.066 13.1004 23.3596 11.3645C22.6531 9.62862 21.4569 8.14492 19.922 7.10104C18.3871 6.05717 16.5826 5.5 14.7367 5.5C12.2621 5.50278 9.88976 6.50456 8.14001 8.28556C6.39026 10.0666 5.40605 12.4813 5.40332 15ZM23.0876 15C23.0876 16.6812 22.5978 18.3245 21.6802 19.7224C20.7626 21.1202 19.4583 22.2097 17.9324 22.853C16.4065 23.4963 14.7274 23.6647 13.1075 23.3367C11.4876 23.0087 9.99959 22.1992 8.8317 21.0104C7.6638 19.8217 6.86846 18.3071 6.54624 16.6583C6.22402 15.0094 6.38939 13.3004 7.02145 11.7472C7.65351 10.194 8.72387 8.86651 10.0972 7.93251C11.4705 6.99852 13.085 6.5 14.7367 6.5C16.9507 6.50252 19.0734 7.39886 20.6389 8.99238C22.2045 10.5859 23.0851 12.7464 23.0876 15Z" fill="black"/>
<path d="M14.297 9.77648L11.3497 15.7765C11.3122 15.8527 11.2946 15.9375 11.2984 16.0226C11.3021 16.1078 11.3273 16.1905 11.3713 16.263C11.4154 16.3355 11.4769 16.3953 11.55 16.4368C11.6232 16.4783 11.7056 16.5 11.7893 16.5H14.2455V20C14.2455 20.1126 14.2828 20.2219 14.3515 20.3102C14.4201 20.3985 14.516 20.4606 14.6237 20.4865C14.7315 20.5125 14.8447 20.5006 14.945 20.4529C15.0453 20.4052 15.1268 20.3243 15.1763 20.2235L18.1237 14.2235C18.1611 14.1472 18.1788 14.0625 18.175 13.9774C18.1712 13.8922 18.1461 13.8095 18.1021 13.737C18.058 13.6645 17.9965 13.6047 17.9233 13.5632C17.8502 13.5217 17.7678 13.4999 17.6841 13.5H15.2279V9.99998C15.228 9.88725 15.1907 9.77779 15.122 9.68937C15.0533 9.60095 14.9573 9.53875 14.8495 9.51287C14.7417 9.48699 14.6284 9.49894 14.5282 9.54679C14.4279 9.59465 14.3464 9.67559 14.297 9.77648ZM16.8892 14.5L15.2279 17.882V16C15.2279 15.8674 15.1762 15.7402 15.084 15.6464C14.9919 15.5527 14.867 15.5 14.7367 15.5H12.5841L14.2455 12.118V14C14.2455 14.1326 14.2972 14.2598 14.3893 14.3535C14.4815 14.4473 14.6064 14.5 14.7367 14.5H16.8892Z" fill="black"/>
</svg>
