<svg width="24" height="25" viewBox="0 0 24 25" fill="none" xmlns="http://www.w3.org/2000/svg">
<path d="M4.61324 5.79212C5.03715 6.35687 5.26713 7.05006 5.26713 7.76338V12.1725H7.96768V7.76338C7.96768 7.05006 8.19767 6.35687 8.62176 5.79212L10.2668 3.60044C10.4467 3.31008 10.4381 2.93659 10.2449 2.65525L8.50695 0.125437C8.45293 0.0468274 8.36504 0 8.27128 0H8.01291C7.85379 0 7.72469 0.132584 7.72469 0.296197V2.79516C7.72469 3.4231 7.22882 3.93218 6.61741 3.93218H6.61723C6.00581 3.93218 5.51031 3.42329 5.51031 2.79535C5.51031 1.93685 5.51031 0.820138 5.51031 0.296009C5.51031 0.132584 5.38121 0 5.22191 0H4.96353C4.86978 0 4.78189 0.0468274 4.72787 0.125437L2.99013 2.65525C2.79676 2.93659 2.78815 3.31008 2.96797 3.60044L4.61324 5.79212Z" fill="#BBCAD7"/>
<path d="M10.2448 2.65524L8.50683 0.125437C8.45282 0.0468274 8.36492 0 8.27117 0H8.0128C7.94633 0 7.88517 0.0233197 7.83627 0.0622485C7.85166 1.1972 7.86612 2.69286 7.84635 3.30067C7.83994 3.49532 7.7742 3.68281 7.65847 3.83721L6.19101 5.79212C5.7671 6.35687 5.53711 7.05006 5.53711 7.76319V12.1723H7.96757V7.76319C7.96757 7.05006 8.19756 6.35687 8.62165 5.79212L10.2667 3.60044C10.4465 3.31008 10.4379 2.93659 10.2448 2.65524Z" fill="#BACED8"/>
<path d="M15.2891 3.07666H17.0535V12.1723H15.2891V3.07666Z" fill="#BACED8"/>
<path d="M20.7263 0.00830078H19.9893C19.7459 0.00830078 19.5566 0.213288 19.5542 0.463222C19.55 0.907424 19.1982 1.26606 18.7648 1.26606H18.7371C18.3013 1.26606 17.9505 0.899714 17.9476 0.452127C17.9461 0.206706 17.7518 0.00830078 17.5125 0.00830078H15.9677C13.9275 0.00830078 12.2734 1.70706 12.2734 3.80245V5.56703C12.2734 5.68213 12.3644 5.77559 12.4765 5.77559H12.7268C13.1282 5.77559 13.486 5.5155 13.6195 5.12659C13.7528 4.73787 14.1106 4.47778 14.512 4.47778H17.5127C17.7529 4.47778 17.9477 4.27768 17.9477 4.03094C17.9477 3.58317 18.3011 3.22002 18.7371 3.22002H18.7648C19.2008 3.22002 19.5544 3.58317 19.5544 4.03094C19.5544 4.27768 19.749 4.47778 19.9894 4.47778H20.7265C20.9667 4.47778 21.1614 4.27768 21.1614 4.03094V0.455136C21.1614 0.208399 20.9667 0.00830078 20.7263 0.00830078Z" fill="#BBCAD7"/>
<path d="M20.7268 0.00830078H19.9898C19.7464 0.00830078 19.5571 0.213288 19.5547 0.463222C19.5505 0.907424 19.1987 1.26606 18.7653 1.26606H18.7377C18.7355 1.26606 18.7335 1.26568 18.7314 1.26568V3.2204C18.7335 3.2204 18.7357 3.22002 18.7377 3.22002H18.7653C19.2013 3.22002 19.5549 3.58317 19.5549 4.03094C19.5549 4.27768 19.7496 4.47778 19.99 4.47778H20.727C20.9673 4.47778 21.1619 4.27768 21.1619 4.03094V0.455136C21.1619 0.208399 20.9673 0.00830078 20.7268 0.00830078Z" fill="#BACED8"/>
<path d="M22.8744 24.6497H1.12559C0.503925 24.6497 0 24.1322 0 23.4937V12.0432C0 11.4048 0.503925 10.8872 1.12559 10.8872H22.8744C23.4961 10.8872 24 11.4048 24 12.0432V23.4937C24 24.1322 23.4961 24.6497 22.8744 24.6497Z" fill="#C69C6D"/>
<path d="M20.173 10.8872V14.7073C20.173 16.316 18.8989 17.6247 17.3325 17.6247H7.12343C5.55727 17.6247 4.28299 16.316 4.28299 14.7073V10.8872H3.55859V14.7073C3.55859 16.7262 5.1579 18.3685 7.12343 18.3685H17.3327C19.2982 18.3685 20.8974 16.7262 20.8974 14.7073V10.8872H20.173Z" fill="#E1EFFB"/>
<path d="M22.8744 10.8872H20.444C21.0654 10.8872 21.5694 11.4048 21.5694 12.0432V21.5919C21.5694 22.512 20.8431 23.2581 19.9472 23.2581H1.12559C0.503925 23.2581 0 22.7405 0 22.1021V23.4939C0 24.1322 0.503925 24.6497 1.12559 24.6497H22.8744C23.4961 24.6497 24 24.1324 24 23.4939V12.0432C24 11.4048 23.4961 10.8872 22.8744 10.8872Z" fill="#B28456"/>
<path d="M15.8558 19.0016H8.60066C8.3747 19.0016 8.19141 18.8134 8.19141 18.5811V17.6329C8.19141 17.4007 8.3747 17.2124 8.60066 17.2124H15.8558C16.0819 17.2124 16.265 17.4007 16.265 17.6329V18.5811C16.265 18.8134 16.0819 19.0016 15.8558 19.0016Z" fill="#395F80"/>
<path d="M15.8553 17.2124H13.6953C13.7719 17.2124 13.8341 17.2763 13.8341 17.3551V18.8589C13.8341 18.9377 13.7719 19.0016 13.6953 19.0016H15.8553C16.0815 19.0016 16.2646 18.8134 16.2646 18.5811V17.6329C16.2646 17.4007 16.0815 17.2124 15.8553 17.2124Z" fill="#1D4859"/>
<path d="M6.61708 7.73145C6.41694 7.73145 6.25488 7.89807 6.25488 8.10343V10.8869H6.97928V8.10343C6.97928 7.89807 6.81722 7.73145 6.61708 7.73145Z" fill="#E1EFFB"/>
</svg>
