<svg width="29" height="29" viewBox="0 0 29 29" fill="none" xmlns="http://www.w3.org/2000/svg">
<path d="M17.4004 4.8335H18.3671V7.7335H17.4004V4.8335Z" fill="#BA9BC9"/>
<path d="M24.167 4.8335H25.1337V7.7335H24.167V4.8335Z" fill="#BA9BC9"/>
<path d="M0 7.7334H29V27.0667H0V7.7334Z" fill="#838BC5"/>
<path d="M0 25.1333H29V27.0666H0V25.1333Z" fill="#BA9BC9"/>
<path d="M4.83346 27.0664V28.9997H0.966797V27.0664" fill="#8F6C56"/>
<path d="M28.0337 27.0664V28.9997H24.167V27.0664" fill="#8F6C56"/>
<path d="M15.4668 9.6665H27.0668V25.1332H15.4668V9.6665Z" fill="#65C8D0"/>
<path d="M4.83301 9.6665H13.533V25.1332H4.83301V9.6665Z" fill="#F4ECCE"/>
<path d="M4.83359 14.9836H1.93359V13.0503H4.83359" fill="#FCDD7C"/>
<path d="M4.83359 21.2668H1.93359V19.3335H4.83359" fill="#FCDD7C"/>
<path d="M0 24.6499H29V25.6166H0V24.6499Z" fill="#8F6C56"/>
<path d="M18.8496 14.9883L20.2996 15.4716L19.8163 18.3716L22.7163 14.9883L21.2663 14.5049L23.6829 11.6001H20.7829L18.8496 14.9883Z" fill="#FCDD7C"/>
<path d="M16.917 20.7832H25.617V21.7499H16.917V20.7832Z" fill="#F4ECCE"/>
<path d="M16.917 22.7168H25.617V23.6835H16.917V22.7168Z" fill="#F4ECCE"/>
<path d="M6.7666 11.5996H11.5999V14.4996H6.7666V11.5996Z" fill="#65C8D0"/>
<path d="M6.2832 20.7832H12.0832V21.7499H6.2832V20.7832Z" fill="#65C8D0"/>
<path d="M6.2832 18.8496H12.0832V19.8163H6.2832V18.8496Z" fill="#65C8D0"/>
<path d="M6.2832 22.7163H8.21654V23.683H6.2832V22.7163Z" fill="#65C8D0"/>
<path d="M10.1504 22.7163H12.0837V23.683H10.1504V22.7163Z" fill="#65C8D0"/>
<path d="M16.917 2.4165H25.617V5.3165H16.917V2.4165Z" fill="#FCDD7C"/>
<path d="M28.0339 4.35H25.6172V3.38333H27.5505V0H28.5172V3.86667C28.5172 3.99485 28.4663 4.11779 28.3756 4.20843C28.285 4.29908 28.162 4.35 28.0339 4.35Z" fill="#BA9BC9"/>
</svg>
