<svg width="32" height="26" viewBox="0 0 32 26" fill="none" xmlns="http://www.w3.org/2000/svg">
<path d="M29.3327 19.7269C29.0382 19.7269 28.7994 19.4881 28.7994 19.1936C28.7994 18.3099 28.083 17.5936 27.1994 17.5936C26.9048 17.5936 26.666 17.3548 26.666 17.0602C26.666 16.7657 26.9048 16.5269 27.1994 16.5269C28.083 16.5269 28.7994 15.8106 28.7994 14.9269C28.7994 14.6324 29.0382 14.3936 29.3327 14.3936C29.6272 14.3936 29.866 14.6324 29.866 14.9269C29.866 15.8106 30.5824 16.5269 31.466 16.5269C31.7606 16.5269 31.9994 16.7657 31.9994 17.0602C31.9994 17.3548 31.7606 17.5936 31.466 17.5936C30.5824 17.5936 29.866 18.3099 29.866 19.1936C29.866 19.4881 29.6272 19.7269 29.3327 19.7269ZM28.7994 17.0602C29.0014 17.212 29.181 17.3915 29.3327 17.5936C29.4844 17.3915 29.664 17.212 29.866 17.0602C29.664 16.9085 29.4844 16.729 29.3327 16.5269C29.181 16.729 29.0014 16.9085 28.7994 17.0602Z" fill="#87CEE9"/>
<path d="M24.0007 23.9935C23.7061 23.9935 23.4673 23.7547 23.4673 23.4602C23.4673 22.5765 22.751 21.8602 21.8673 21.8602C21.5728 21.8602 21.334 21.6214 21.334 21.3268C21.334 21.0323 21.5728 20.7935 21.8673 20.7935C22.751 20.7935 23.4673 20.0772 23.4673 19.1935C23.4673 18.899 23.7061 18.6602 24.0007 18.6602C24.2952 18.6602 24.534 18.899 24.534 19.1935C24.534 20.0772 25.2503 20.7935 26.134 20.7935C26.4285 20.7935 26.6673 21.0323 26.6673 21.3268C26.6673 21.6214 26.4285 21.8602 26.134 21.8602C25.2503 21.8602 24.534 22.5765 24.534 23.4602C24.534 23.7547 24.2952 23.9935 24.0007 23.9935ZM23.4673 21.3268C23.6694 21.4786 23.8489 21.6581 24.0007 21.8602C24.1524 21.6581 24.3319 21.4786 24.534 21.3268C24.3319 21.1751 24.1524 20.9956 24.0007 20.7935C23.8489 20.9956 23.6694 21.1751 23.4673 21.3268Z" fill="#32B1CC"/>
<path d="M8.00066 7.4603C7.70612 7.4603 7.46732 7.2215 7.46732 6.92696C7.46732 6.04329 6.75099 5.32696 5.86732 5.32696C5.57278 5.32696 5.33398 5.08816 5.33398 4.79362C5.33398 4.49909 5.57278 4.26029 5.86732 4.26029C6.75099 4.26029 7.46732 3.54396 7.46732 2.66029C7.46732 2.36575 7.70612 2.12695 8.00066 2.12695C8.29519 2.12695 8.53399 2.36575 8.53399 2.66029C8.53399 3.54396 9.25033 4.26029 10.134 4.26029C10.4285 4.26029 10.6673 4.49909 10.6673 4.79362C10.6673 5.08816 10.4285 5.32696 10.134 5.32696C9.25033 5.32696 8.53399 6.04329 8.53399 6.92696C8.53399 7.2215 8.29519 7.4603 8.00066 7.4603ZM7.46732 4.79362C7.66939 4.94536 7.84892 5.12489 8.00066 5.32696C8.15239 5.12489 8.33192 4.94536 8.53399 4.79362C8.33192 4.64189 8.15239 4.46236 8.00066 4.26029C7.84892 4.46236 7.66939 4.64189 7.46732 4.79362Z" fill="black"/>
<path d="M2.66667 11.7269C2.37214 11.7269 2.13334 11.4881 2.13334 11.1936C2.13334 10.3099 1.417 9.59356 0.533334 9.59356C0.2388 9.59356 0 9.35476 0 9.06023C0 8.76569 0.2388 8.52689 0.533334 8.52689C1.417 8.52689 2.13334 7.81056 2.13334 6.92689C2.13334 6.63236 2.37214 6.39355 2.66667 6.39355C2.96121 6.39355 3.20001 6.63236 3.20001 6.92689C3.20001 7.81056 3.91634 8.52689 4.80001 8.52689C5.09454 8.52689 5.33334 8.76569 5.33334 9.06023C5.33334 9.35476 5.09454 9.59356 4.80001 9.59356C3.91634 9.59356 3.20001 10.3099 3.20001 11.1936C3.20001 11.4881 2.96121 11.7269 2.66667 11.7269ZM2.13334 9.06023C2.3354 9.21196 2.51494 9.39149 2.66667 9.59356C2.81841 9.39149 2.99794 9.21196 3.20001 9.06023C2.99794 8.90849 2.81841 8.72896 2.66667 8.52689C2.51494 8.72896 2.3354 8.90849 2.13334 9.06023Z" fill="#87CEE9"/>
<path d="M4.7998 0.526855H27.1998V25.0602H4.7998V0.526855Z" fill="#87CEE9"/>
<path d="M17.6006 5.86013C17.306 5.86007 17.0673 5.62127 17.0674 5.32667C17.0674 5.18527 17.1236 5.04966 17.2235 4.94973L22.0235 0.149722C22.2354 -0.0548784 22.573 -0.0490782 22.7777 0.162789C22.9773 0.369456 22.9773 0.697123 22.7777 0.903857L17.9777 5.70387C17.8777 5.80387 17.742 5.86007 17.6006 5.86013Z" fill="#32B1CC"/>
<path d="M17.6006 9.06014C17.306 9.06007 17.0673 8.82127 17.0674 8.52667C17.0674 8.38527 17.1236 8.24967 17.2235 8.14973L25.2235 0.149722C25.4354 -0.0548784 25.773 -0.0490782 25.9777 0.162789C26.1773 0.369456 26.1773 0.697123 25.9777 0.903857L17.9777 8.90387C17.8777 9.00387 17.742 9.06007 17.6006 9.06014Z" fill="#32B1CC"/>
<path d="M14.4004 25.5936C14.1059 25.5935 13.8671 25.3547 13.8672 25.0601C13.8672 24.9187 13.9234 24.7832 14.0233 24.6832L18.8233 19.8831C19.0352 19.6785 19.3728 19.6843 19.5775 19.8962C19.7771 20.1029 19.7771 20.4306 19.5775 20.6373L14.7775 25.4373C14.6775 25.5373 14.5419 25.5935 14.4004 25.5936Z" fill="#32B1CC"/>
<path d="M11.2002 25.5934C10.9057 25.5933 10.6669 25.3545 10.667 25.0599C10.667 24.9185 10.7232 24.783 10.8231 24.683L18.8231 16.683C19.035 16.4783 19.3726 16.4841 19.5773 16.696C19.7769 16.9027 19.7769 17.2304 19.5773 17.4371L11.5773 25.4371C11.4773 25.5371 11.3417 25.5933 11.2002 25.5934Z" fill="#32B1CC"/>
</svg>
