<svg width="32" height="33" viewBox="0 0 32 33" fill="none" xmlns="http://www.w3.org/2000/svg">
<g clip-path="url(#clip0_634:887)">
<path d="M31.9905 16.8646C32.0099 15.7307 31.8943 14.5986 31.646 13.4927H16.3188V19.6151H25.3152C25.1448 20.6884 24.7613 21.7157 24.1879 22.6353C23.6145 23.555 22.8629 24.348 21.9784 24.9666L21.9478 25.1715L26.7945 28.9647L27.1309 28.9988C28.7355 27.432 29.9972 25.5425 30.8345 23.4525C31.6718 21.3624 32.0662 19.1182 31.9921 16.8646" fill="#008080"/>
<path d="M16.3187 32.9936C20.2953 33.107 24.1638 31.6768 27.1292 28.9971L21.9783 24.9648C20.3077 26.0967 18.3292 26.6733 16.3187 26.6142C14.2543 26.6032 12.2458 25.9349 10.5788 24.7044C8.91169 23.4739 7.67085 21.7437 7.03259 19.7598L6.84104 19.776L1.80281 23.7172L1.73682 23.9027C3.09398 26.6358 5.17673 28.9335 7.75218 30.539C10.3276 32.1444 13.2942 32.9943 16.3203 32.9936" fill="#008080"/>
<path d="M7.03122 19.7616C6.67454 18.7113 6.49075 17.6091 6.48715 16.4987C6.49381 15.39 6.6714 14.2892 7.01351 13.2358L7.00385 13.0178L1.90124 9.01318L1.74027 9.09289C0.596645 11.3888 0.000976563 13.9235 0.000976562 16.4938C0.000976563 19.0642 0.596645 21.5988 1.74027 23.8947L7.03605 19.7519" fill="#008080"/>
<path d="M16.319 6.37955C18.6579 6.34304 20.9199 7.22331 22.6305 8.83568L27.2373 4.28127C24.2811 1.48379 20.3687 -0.0497252 16.319 0.00174314C13.2924 0.0012197 10.3252 0.851532 7.74948 2.45759C5.17372 4.06364 3.09087 6.36211 1.73389 9.09594L7.00713 13.2356C7.65282 11.2525 8.89823 9.52418 10.5677 8.29442C12.2372 7.06465 14.2466 6.39546 16.3126 6.38118" fill="#008080"/>
</g>
<defs>
<clipPath id="clip0_634:887">
<rect width="32" height="33" fill="white"/>
</clipPath>
</defs>
</svg>
