<svg width="24" height="30" viewBox="0 0 24 30" fill="none" xmlns="http://www.w3.org/2000/svg">
<path d="M22.1833 29.9999C21.937 29.9999 21.7373 29.8003 21.7373 29.5539V28.1985C21.7373 27.9521 21.937 27.7524 22.1833 27.7524C22.4296 27.7524 22.6293 27.9521 22.6293 28.1985V29.5539C22.6293 29.8003 22.4296 29.9999 22.1833 29.9999Z" fill="#199A8E"/>
<path d="M11.3347 30.0004C11.0884 30.0004 10.8887 29.8008 10.8887 29.5544V28.1989C10.8887 27.9526 11.0884 27.7529 11.3347 27.7529C11.581 27.7529 11.7807 27.9526 11.7807 28.1989V29.5544C11.7807 29.8008 11.581 30.0004 11.3347 30.0004Z" fill="#199A8E"/>
<path d="M22.5585 0H10.96C10.4427 0 10.0234 0.419297 10.0234 0.936562V8.4474H13.5081C13.9823 8.4474 14.3703 8.83535 14.3703 9.30955V27.7748C14.3703 28.249 13.9823 28.637 13.5081 28.637H22.5586C23.0758 28.637 23.4951 28.2177 23.4951 27.7004V0.936562C23.4951 0.419297 23.0758 0 22.5585 0Z" fill="#24D3B5"/>
<path d="M13.5072 7.2583H10.0225V8.44764H13.5072C13.9814 8.44764 14.3693 8.83564 14.3693 9.30978V27.7751C14.3693 28.2493 13.9814 28.6373 13.5072 28.6373H15.3681C15.4901 28.375 15.5587 28.083 15.5587 27.7751V9.30984C15.5587 8.17857 14.6384 7.2583 13.5072 7.2583Z" fill="#20B7A1"/>
<path d="M22.5575 0H10.959C10.4418 0 10.0225 0.419297 10.0225 0.936562V8.4474H13.5071C13.9813 8.4474 14.3693 8.83535 14.3693 9.30955V14.3185H23.4942V0.936562C23.4941 0.419297 23.0748 0 22.5575 0Z" fill="#20B7A1"/>
<path d="M13.5072 7.25807H11.4057C11.2986 7.25807 11.2118 7.17129 11.2118 7.06418V0.936562C11.2119 0.419297 11.6312 0 12.1484 0H10.959C10.4418 0 10.0225 0.419297 10.0225 0.936562V7.25801V8.44734H11.2119H13.5072C13.9814 8.44734 14.3693 8.83529 14.3693 9.30949V14.3184H15.5587V9.30949C15.5587 8.17658 14.6402 7.25807 13.5072 7.25807Z" fill="#199A8E"/>
<path d="M13.7955 1.95703C14.7214 1.95703 15.472 1.20645 15.472 0.280547V0H10.96C10.4427 0 10.0234 0.419297 10.0234 0.936562V1.95703C10.0234 1.95703 13.7955 1.95703 13.7955 1.95703Z" fill="#199A8E"/>
<path d="M10.0225 1.95703H11.2119V0.936562C11.2119 0.419297 11.6312 0 12.1484 0H10.959C10.4449 0 10.0225 0.416484 10.0225 0.936562V1.95703Z" fill="#168C80"/>
<path d="M13.49 29.9996C13.2436 29.9996 13.0439 29.7999 13.0439 29.5536V28.1882C13.0439 27.9419 13.2436 27.7422 13.49 27.7422C13.7363 27.7422 13.936 27.9418 13.936 28.1882V29.5536C13.9359 29.7999 13.7362 29.9996 13.49 29.9996Z" fill="#707487"/>
<path d="M0.880586 30.0001C0.634258 30.0001 0.43457 29.8004 0.43457 29.554V28.1887C0.43457 27.9424 0.634258 27.7427 0.880586 27.7427C1.12691 27.7427 1.3266 27.9423 1.3266 28.1887V29.554C1.32654 29.8004 1.12686 30.0001 0.880586 30.0001Z" fill="#707487"/>
<path d="M0 12.1724V27.7748C0 28.249 0.387949 28.637 0.862148 28.637H13.5076C13.9818 28.637 14.3698 28.249 14.3698 27.7748V12.1724H0Z" fill="#E4EAF8"/>
<path d="M1.18934 27.7749V12.1724H0V27.7748C0 28.249 0.387949 28.637 0.862148 28.637H2.05154C1.57734 28.637 1.18934 28.249 1.18934 27.7749Z" fill="#D8DCE5"/>
<path d="M13.5077 8.44727H0.862148C0.387949 8.44727 0 8.83521 0 9.30942V9.77641H14.3699V9.30942C14.3698 8.83527 13.9819 8.44727 13.5077 8.44727Z" fill="#707487"/>
<path d="M0 9.77641H1.18934V9.30941C1.18934 8.83527 1.57728 8.44727 2.05143 8.44727H0.862207C0.388711 8.44727 5.85615e-05 8.83451 5.85615e-05 9.30941L0 9.77641Z" fill="#5B5D6E"/>
<path d="M10.1013 9.77686H0V12.2916H10.1013V9.77686Z" fill="#868B9B"/>
<path d="M1.18939 9.77686H0V12.2916H1.18939V9.77686Z" fill="#707487"/>
<path d="M14.3691 9.77686H10.0225V12.2916H14.3691V9.77686Z" fill="#CF5668"/>
<path d="M13.3853 9.77686H10.0225V12.2916H13.3853V9.77686Z" fill="#C83C50"/>
<path d="M12.1958 9.77686H10.0225V12.2916H12.1958V9.77686Z" fill="#FFC850"/>
<path d="M11.2119 9.77686H10.0225V12.2916H11.2119V9.77686Z" fill="#F9B428"/>
<path d="M7.1848 15.0415C4.60967 15.0415 2.51465 17.1365 2.51465 19.7117C2.51465 22.2868 4.60973 24.3818 7.1848 24.3818C9.46053 24.3818 11.3601 22.7452 11.7714 20.5875V18.8357C11.3602 16.6781 9.46053 15.0415 7.1848 15.0415Z" fill="#24D3B5"/>
<path d="M7.18437 16.4785C5.4016 16.4785 3.95117 17.9289 3.95117 19.7117C3.95117 21.4945 5.4016 22.945 7.18437 22.945C8.66363 22.945 9.91308 21.946 10.2961 20.5877V18.8359C9.91308 17.4774 8.66357 16.4785 7.18437 16.4785Z" fill="#20B7A1"/>
<path d="M3.70398 19.7117C3.70398 17.3369 5.48611 15.3719 7.78293 15.0802C7.58699 15.055 7.38748 15.0415 7.1848 15.0415C4.60967 15.0415 2.51465 17.1365 2.51465 19.7117C2.51465 22.2868 4.60973 24.3818 7.1848 24.3818C7.38748 24.3818 7.58699 24.3683 7.78293 24.3431C5.48611 24.0515 3.70398 22.0864 3.70398 19.7117Z" fill="#20B7A1"/>
<path d="M5.14154 19.7118C5.14154 18.132 6.28084 16.814 7.78066 16.5342C7.5876 16.4981 7.38873 16.4785 7.18535 16.4785C5.40258 16.4785 3.95215 17.9289 3.95215 19.7117C3.95215 21.4945 5.40258 22.945 7.18535 22.945C7.38873 22.945 7.5876 22.9255 7.78066 22.8893C6.28084 22.6095 5.14154 21.2915 5.14154 19.7118Z" fill="#199A8E"/>
<path d="M11.9523 18.8359H10.1609C9.8457 18.8359 9.58789 19.0938 9.58789 19.4089V20.0147C9.58789 20.3298 9.84576 20.5877 10.1609 20.5877H11.9523C12.2675 20.5877 12.5253 20.3298 12.5253 20.0147V19.4089C12.5253 19.0938 12.2675 18.8359 11.9523 18.8359Z" fill="#707487"/>
<path d="M11.9523 19.5765H10.1609C9.91707 19.5765 9.70813 19.4219 9.6258 19.2061C9.60172 19.2692 9.58789 19.3373 9.58789 19.4087V20.0144C9.58789 20.3295 9.84576 20.5874 10.1609 20.5874H11.9523C12.2675 20.5874 12.5253 20.3295 12.5253 20.0144V19.4087C12.5253 19.3374 12.5115 19.2692 12.4874 19.2061C12.4051 19.4219 12.1961 19.5765 11.9523 19.5765Z" fill="#5B5D6E"/>
</svg>
