<svg width="16" height="16" viewBox="0 0 16 16" fill="none" xmlns="http://www.w3.org/2000/svg">
<path d="M13.6603 2.34033C10.5407 -0.780109 5.46315 -0.780109 2.34356 2.34033C0.832415 3.85247 0 5.8625 0 8.00023C0 10.138 0.832415 12.148 2.34356 13.6595C3.90367 15.2201 5.95281 16 8.00193 16C10.051 16 12.1002 15.2201 13.6603 13.6595C16.7799 10.5391 16.7799 5.46136 13.6603 2.34033ZM12.7839 12.7828C10.1471 15.4203 5.85672 15.4203 3.21997 12.7828C1.94315 11.5057 1.23964 9.80689 1.23964 8.00023C1.23964 6.19356 1.94315 4.49478 3.21997 3.21698C5.85672 0.579522 10.1471 0.580147 12.7839 3.21698C15.42 5.85444 15.42 10.146 12.7839 12.7828Z" fill="#008080"/>
</svg>
