<svg width="19" height="26" viewBox="0 0 19 26" fill="none" xmlns="http://www.w3.org/2000/svg">
<path d="M8.91406 0H9.76302V2.17293H8.91406V0Z" fill="#1E81CE"/>
<path d="M10.5395 1.81218C10.8174 2.09639 10.9904 2.47046 11.0292 2.87066C11.0679 3.27086 10.9699 3.67243 10.7519 4.00694C10.5338 4.34146 10.2093 4.58824 9.83345 4.70523C9.45763 4.82222 9.05382 4.80218 8.69081 4.64853C8.32781 4.49488 8.02806 4.21712 7.84265 3.86258C7.65724 3.50804 7.59764 3.09865 7.67399 2.70417C7.75034 2.30968 7.95793 1.9545 8.26138 1.69913C8.56484 1.44377 8.94538 1.30403 9.33819 1.30371C9.78841 1.30453 10.2201 1.48726 10.5395 1.81218Z" fill="#5AAAE7"/>
<path d="M11.8858 5.64945V6.51862H6.79199V5.64945C6.79199 5.41893 6.88144 5.19785 7.04065 5.03485C7.19986 4.87185 7.41579 4.78027 7.64095 4.78027H11.0368C11.262 4.78027 11.4779 4.87185 11.6371 5.03485C11.7963 5.19785 11.8858 5.41893 11.8858 5.64945Z" fill="#3D9AE2"/>
<path d="M11.8854 6.51904V11.7341L10.1875 13.0378V6.51904H11.8854Z" fill="#5AAAE7"/>
<path d="M8.48991 6.51904V13.0378L6.79199 11.7341V6.51904H8.48991Z" fill="#5AAAE7"/>
<path d="M15.2812 0.43457L16.2236 2.6075H14.3389L15.2812 0.43457Z" fill="#898890"/>
<path d="M15.2812 4.3457H16.9792V11.7337H15.2812V4.3457Z" fill="#00CCB3"/>
<path d="M13.583 4.3457H15.2809V11.7337H13.583V4.3457Z" fill="#00B39D"/>
<path d="M16.9788 11.7339V14.3414H13.583V11.7339H15.2809H16.9788Z" fill="#D1D3D4"/>
<path d="M16.2233 2.60742L16.9788 4.34577H15.2809H13.583L14.3386 2.60742H16.2233Z" fill="#D1D3D4"/>
<path d="M5.09408 12.603V14.3413H1.69824V0.43457H5.09408V2.17292V3.91127V5.64961V7.38796V9.12631V10.8647V12.603Z" fill="#EE8700"/>
<path d="M18.6768 25.6407H13.583L16.1299 23.4678L18.6768 25.6407Z" fill="#CC7400"/>
<path d="M16.1299 10.8647V23.4678L13.583 25.6407V10.8647H16.1299Z" fill="#EE8700"/>
<path d="M18.6768 10.8647V25.6407L16.1299 23.4678V10.8647H18.6768Z" fill="#FF9811"/>
<path d="M0 10.8647H13.5834V25.6407H0V10.8647Z" fill="#FF9811"/>
<path d="M9.33888 13.4722V17.3834H5.94304V13.4722H4.24512V17.3834C4.24484 17.6118 4.28857 17.838 4.3738 18.049C4.45903 18.2601 4.58408 18.4518 4.7418 18.6133C4.89953 18.7748 5.08682 18.9028 5.29294 18.9901C5.49907 19.0773 5.71999 19.1221 5.94304 19.1218H9.33888C9.56193 19.1221 9.78285 19.0773 9.98898 18.9901C10.1951 18.9028 10.3824 18.7748 10.5401 18.6133C10.6978 18.4518 10.8229 18.2601 10.9081 18.049C10.9934 17.838 11.0371 17.6118 11.0368 17.3834V13.4722H9.33888Z" fill="#EE8700"/>
<path d="M5.09375 16.5142H8.48959V18.2525H5.09375V16.5142Z" fill="#E68300"/>
<path d="M5.09441 16.5143V18.2527C4.87135 18.2529 4.65044 18.2082 4.44431 18.1209C4.23818 18.0337 4.05089 17.9056 3.89317 17.7441C3.73545 17.5827 3.61039 17.3909 3.52516 17.1799C3.43993 16.9688 3.39621 16.7427 3.39649 16.5143V12.603H5.09441V16.5143Z" fill="#CC7400"/>
<path d="M10.1882 12.603V16.5143C10.1884 16.7427 10.1447 16.9688 10.0595 17.1799C9.97425 17.3909 9.84919 17.5827 9.69147 17.7441C9.53375 17.9056 9.34646 18.0337 9.14033 18.1209C8.9342 18.2082 8.71329 18.2529 8.49023 18.2527V12.603H10.1882Z" fill="#CC7400"/>
<path d="M2.97168 6.95361H5.09408V7.82279H2.97168V6.95361Z" fill="#CC7400"/>
<path d="M2.97168 1.73828H5.09408V2.60745H2.97168V1.73828Z" fill="#CC7400"/>
<path d="M3.82031 5.21484H5.09375V6.08402H3.82031V5.21484Z" fill="#CC7400"/>
<path d="M3.82031 3.47656H5.09375V4.34574H3.82031V3.47656Z" fill="#CC7400"/>
<path d="M3.82031 8.69189H5.09375V9.56107H3.82031V8.69189Z" fill="#CC7400"/>
<path d="M8.91406 2.60742H9.76302V3.4766H8.91406V2.60742Z" fill="#1E81CE"/>
</svg>
