<svg width="23" height="22" viewBox="0 0 23 22" fill="none" xmlns="http://www.w3.org/2000/svg">
<path d="M7.05734 0C6.87574 0 6.72852 0.144154 6.72852 0.321976V3.06919C6.72852 3.24701 6.87574 3.39117 7.05734 3.39117C7.23895 3.39117 7.38617 3.24701 7.38617 3.06919V0.321976C7.38617 0.144154 7.23895 0 7.05734 0Z" fill="#96C8EF"/>
<path d="M9.44309 0C9.26148 0 9.11426 0.144154 9.11426 0.321976V3.06919C9.11426 3.24701 9.26148 3.39117 9.44309 3.39117C9.62469 3.39117 9.77191 3.24701 9.77191 3.06919V0.321976C9.77191 0.144154 9.62469 0 9.44309 0Z" fill="#96C8EF"/>
<path d="M11.8298 0C11.6482 0 11.501 0.144154 11.501 0.321976V3.06919C11.501 3.24701 11.6482 3.39117 11.8298 3.39117C12.0114 3.39117 12.1586 3.24701 12.1586 3.06919V0.321976C12.1586 0.144154 12.0114 0 11.8298 0Z" fill="#96C8EF"/>
<path d="M14.2165 0C14.0349 0 13.8877 0.144154 13.8877 0.321976V3.06919C13.8877 3.24701 14.0349 3.39117 14.2165 3.39117C14.3981 3.39117 14.5453 3.24701 14.5453 3.06919V0.321976C14.5453 0.144154 14.3981 0 14.2165 0Z" fill="#96C8EF"/>
<path d="M16.6023 0C16.4207 0 16.2734 0.144154 16.2734 0.321976V3.06919C16.2734 3.24701 16.4207 3.39117 16.6023 3.39117C16.7839 3.39117 16.9311 3.24701 16.9311 3.06919V0.321976C16.9311 0.144154 16.7839 0 16.6023 0Z" fill="#96C8EF"/>
<path d="M7.05734 18.4839C6.87574 18.4839 6.72852 18.628 6.72852 18.8059V21.5531C6.72852 21.7309 6.87574 21.8751 7.05734 21.8751C7.23895 21.8751 7.38617 21.7309 7.38617 21.5531V18.8059C7.38617 18.628 7.23895 18.4839 7.05734 18.4839Z" fill="#96C8EF"/>
<path d="M9.44309 18.4839C9.26148 18.4839 9.11426 18.628 9.11426 18.8059V21.5531C9.11426 21.7309 9.26148 21.8751 9.44309 21.8751C9.62469 21.8751 9.77191 21.7309 9.77191 21.5531V18.8059C9.77191 18.628 9.62469 18.4839 9.44309 18.4839Z" fill="#96C8EF"/>
<path d="M11.8298 18.4839C11.6482 18.4839 11.501 18.628 11.501 18.8059V21.5531C11.501 21.7309 11.6482 21.8751 11.8298 21.8751C12.0114 21.8751 12.1586 21.7309 12.1586 21.5531V18.8059C12.1586 18.628 12.0114 18.4839 11.8298 18.4839Z" fill="#96C8EF"/>
<path d="M14.2165 18.4839C14.0349 18.4839 13.8877 18.628 13.8877 18.8059V21.5531C13.8877 21.7309 14.0349 21.8751 14.2165 21.8751C14.3981 21.8751 14.5453 21.7309 14.5453 21.5531V18.8059C14.5453 18.628 14.3981 18.4839 14.2165 18.4839Z" fill="#96C8EF"/>
<path d="M16.6023 18.4839C16.4207 18.4839 16.2734 18.628 16.2734 18.8059V21.5531C16.2734 21.7309 16.4207 21.8751 16.6023 21.8751C16.7839 21.8751 16.9311 21.7309 16.9311 21.5531V18.8059C16.9311 18.628 16.7839 18.4839 16.6023 18.4839Z" fill="#96C8EF"/>
<path d="M19.8659 6.58585H22.6716C22.8532 6.58585 23.0004 6.44169 23.0004 6.26387C23.0004 6.08605 22.8532 5.94189 22.6716 5.94189H19.8659C19.6843 5.94189 19.5371 6.08605 19.5371 6.26387C19.5371 6.44169 19.6843 6.58585 19.8659 6.58585Z" fill="#96C8EF"/>
<path d="M22.6716 8.27881H19.8659C19.6843 8.27881 19.5371 8.42296 19.5371 8.60078C19.5371 8.77861 19.6843 8.92276 19.8659 8.92276H22.6716C22.8532 8.92276 23.0004 8.77861 23.0004 8.60078C23.0004 8.42296 22.8532 8.27881 22.6716 8.27881Z" fill="#96C8EF"/>
<path d="M22.6716 10.6157H19.8659C19.6843 10.6157 19.5371 10.7599 19.5371 10.9377C19.5371 11.1155 19.6843 11.2597 19.8659 11.2597H22.6716C22.8532 11.2597 23.0004 11.1155 23.0004 10.9377C23.0004 10.7599 22.8532 10.6157 22.6716 10.6157Z" fill="#96C8EF"/>
<path d="M22.6716 12.9521H19.8659C19.6843 12.9521 19.5371 13.0963 19.5371 13.2741C19.5371 13.4519 19.6843 13.5961 19.8659 13.5961H22.6716C22.8532 13.5961 23.0004 13.4519 23.0004 13.2741C23.0004 13.0963 22.8532 12.9521 22.6716 12.9521Z" fill="#96C8EF"/>
<path d="M22.6716 15.2891H19.8659C19.6843 15.2891 19.5371 15.4332 19.5371 15.611C19.5371 15.7889 19.6843 15.933 19.8659 15.933H22.6716C22.8532 15.933 23.0004 15.7889 23.0004 15.611C23.0004 15.4332 22.8532 15.2891 22.6716 15.2891Z" fill="#96C8EF"/>
<path d="M3.79367 5.94189H0.988006C0.806401 5.94189 0.65918 6.08605 0.65918 6.26387C0.65918 6.44169 0.806401 6.58585 0.988006 6.58585H3.79367C3.97528 6.58585 4.1225 6.44169 4.1225 6.26387C4.1225 6.08605 3.97528 5.94189 3.79367 5.94189Z" fill="#96C8EF"/>
<path d="M3.79367 8.27881H0.988006C0.806401 8.27881 0.65918 8.42296 0.65918 8.60078C0.65918 8.77861 0.806401 8.92276 0.988006 8.92276H3.79367C3.97528 8.92276 4.1225 8.77861 4.1225 8.60078C4.1225 8.42296 3.97528 8.27881 3.79367 8.27881Z" fill="#96C8EF"/>
<path d="M3.79367 10.6157H0.988006C0.806401 10.6157 0.65918 10.7599 0.65918 10.9377C0.65918 11.1155 0.806401 11.2597 0.988006 11.2597H3.79367C3.97528 11.2597 4.1225 11.1155 4.1225 10.9377C4.1225 10.7599 3.97528 10.6157 3.79367 10.6157Z" fill="#96C8EF"/>
<path d="M3.79367 12.9521H0.988006C0.806401 12.9521 0.65918 13.0963 0.65918 13.2741C0.65918 13.4519 0.806401 13.5961 0.988006 13.5961H3.79367C3.97528 13.5961 4.1225 13.4519 4.1225 13.2741C4.1225 13.0963 3.97528 12.9521 3.79367 12.9521Z" fill="#96C8EF"/>
<path d="M3.79367 15.2891H0.988006C0.806401 15.2891 0.65918 15.4332 0.65918 15.611C0.65918 15.7889 0.806401 15.933 0.988006 15.933H3.79367C3.97528 15.933 4.1225 15.7889 4.1225 15.611C4.1225 15.4332 3.97528 15.2891 3.79367 15.2891Z" fill="#96C8EF"/>
<path d="M20.148 3.86058V17.8812C20.148 18.508 19.629 19.0162 18.9888 19.0162H4.66988C4.02973 19.0162 3.51074 18.508 3.51074 17.8812V3.86058C3.51074 3.23376 4.02973 2.72559 4.66988 2.72559H18.9888C19.629 2.72559 20.148 3.23367 20.148 3.86058Z" fill="#5AAAE7"/>
<path d="M19.1021 4.8091V17.0661C19.1021 17.6141 18.6484 18.0583 18.0888 18.0583H5.57093C5.01128 18.0583 4.55762 17.614 4.55762 17.0661V4.8091C4.55762 4.26111 5.01132 3.81689 5.57093 3.81689H18.0887C18.6484 3.81689 19.1021 4.26115 19.1021 4.8091Z" fill="#1E81CE"/>
<path d="M17.0113 6.50393V15.2382C17.0113 15.6284 16.6882 15.9452 16.2892 15.9452H7.36956C6.97057 15.9452 6.64746 15.6284 6.64746 15.2382V6.50393C6.64746 6.11325 6.97057 5.79688 7.36956 5.79688H16.2892C16.6882 5.79688 17.0113 6.11325 17.0113 6.50393Z" fill="#96C8EF"/>
<path d="M17.0124 6.50393V15.2382C17.0124 15.6284 16.6893 15.9452 16.2903 15.9452H8.4887C8.08971 15.9452 7.7666 15.6284 7.7666 15.2382V6.50393C7.7666 6.11325 8.08971 5.79688 8.4887 5.79688H16.2903C16.6893 5.79688 17.0124 6.11325 17.0124 6.50393Z" fill="#C2DFF6"/>
<path d="M9.40875 7.41113H6.64746V8.05508H9.40875V7.41113Z" fill="#787680"/>
<path d="M14.8295 5.79688H14.1719V10.8949H14.8295V5.79688Z" fill="#787680"/>
<path d="M9.41937 13.6416H8.76172V15.9452H9.41937V13.6416Z" fill="#787680"/>
<path d="M17.0117 13.5875V14.2314H12.1928V15.9456H11.5351V11.2937H10.2273C10.0457 11.2937 9.89844 11.1495 9.89844 10.9717V8.56807C9.89844 8.39033 10.0457 8.24609 10.2273 8.24609C10.4092 8.24609 10.5561 8.39033 10.5561 8.56807V10.6498H13.3639C13.5454 10.6498 13.6927 10.794 13.6927 10.9717C13.6927 11.1495 13.5454 11.2937 13.3639 11.2937H12.1928V13.5875H17.0117Z" fill="#787680"/>
<path d="M11.3182 7.73252C11.3182 8.15109 11.0556 8.50998 10.6829 8.65939C10.5632 8.70746 10.4326 8.73408 10.2953 8.73408C9.73018 8.73408 9.27246 8.28546 9.27246 7.73252C9.27246 7.17957 9.73018 6.73096 10.2953 6.73096C10.4326 6.73096 10.5632 6.75757 10.6829 6.80564C11.0556 6.95505 11.3182 7.31394 11.3182 7.73252Z" fill="#2D2D30"/>
<path d="M10.0452 13.1075C10.0452 13.4887 9.81234 13.8167 9.47784 13.9622C9.35946 14.0137 9.22838 14.0425 9.09024 14.0425C8.56322 14.0425 8.13574 13.6239 8.13574 13.1075C8.13574 12.5914 8.56322 12.1729 9.09024 12.1729C9.22834 12.1729 9.35946 12.2016 9.47784 12.2531C9.81238 12.3987 10.0452 12.7267 10.0452 13.1075Z" fill="#2D2D30"/>
<path d="M15.7273 10.9706C15.7273 11.5017 15.3752 11.9524 14.8872 12.1109C14.7658 12.1508 14.6355 12.1723 14.5001 12.1723C13.8223 12.1723 13.2725 11.6344 13.2725 10.9706C13.2725 10.3069 13.8222 9.76855 14.5001 9.76855C14.6356 9.76855 14.7658 9.79 14.8872 9.82995C15.3752 9.98837 15.7273 10.4396 15.7273 10.9706Z" fill="#2D2D30"/>
<path d="M11.3179 7.73254C11.3179 8.15112 11.0553 8.51001 10.6826 8.65942C10.3095 8.51043 10.0469 8.15112 10.0469 7.73254C10.0469 7.31396 10.3095 6.95465 10.6826 6.80566C11.0553 6.95507 11.3179 7.31396 11.3179 7.73254Z" fill="#3E3D42"/>
<path d="M10.0448 13.1073C10.0448 13.4885 9.81199 13.8165 9.47749 13.962C9.14338 13.8165 8.91016 13.4885 8.91016 13.1073C8.91016 12.726 9.14342 12.3985 9.47749 12.2529C9.81203 12.3985 10.0448 12.7265 10.0448 13.1073Z" fill="#3E3D42"/>
<path d="M15.727 10.9707C15.727 11.5018 15.3749 11.9526 14.8869 12.111C14.3989 11.9526 14.0469 11.5018 14.0469 10.9707C14.0469 10.4397 14.399 9.9885 14.8869 9.83008C15.3749 9.9885 15.727 10.4397 15.727 10.9707Z" fill="#3E3D42"/>
</svg>
