<svg width="21" height="22" viewBox="0 0 21 22" fill="none" xmlns="http://www.w3.org/2000/svg">
<path d="M20.6211 13.5284L19.7661 12.8807C19.8683 12.2569 19.9102 11.6256 19.8905 10.9994C19.9102 10.3731 19.8683 9.74176 19.7661 9.11803L20.6211 8.47037C20.854 8.29411 20.939 7.97881 20.8281 7.70562L19.8634 5.32387C19.7525 5.05072 19.4667 4.89084 19.1882 4.93299L18.1336 5.09288C17.525 4.2186 16.787 3.46454 15.9344 2.84395L16.1279 1.7257C16.171 1.43364 16.0133 1.14915 15.746 1.03584L13.4149 0.0495403C13.1475 -0.0643691 12.8395 0.0231147 12.667 0.261031L11.9942 1.17725C10.9618 0.998498 9.91697 0.9991 8.88205 1.1766L8.20927 0.261031C8.03676 0.0231147 7.73002 -0.0643691 7.46142 0.0495403L5.13035 1.03584C4.86302 1.14915 4.70531 1.43364 4.74842 1.7257L4.94195 2.84395C4.08691 3.46708 3.3489 4.22113 2.74151 5.09352L1.68809 4.93303C1.40103 4.89213 1.12259 5.05012 1.01291 5.32392L0.0482274 7.70562C-0.0626696 7.97877 0.0223641 8.29411 0.255218 8.47037L1.11027 9.11743C1.00799 9.74434 0.966103 10.3763 0.985827 10.978C0.966103 11.615 1.00799 12.2532 1.11027 12.8814L0.255218 13.5284C0.0223641 13.7047 -0.0626696 14.02 0.0482274 14.2932L1.01291 16.6749C1.12254 16.9481 1.39977 17.1029 1.68809 17.0658L2.74151 16.9053C3.3489 17.7777 4.08691 18.5318 4.94195 19.1549L4.74468 20.2742C4.70157 20.5662 4.85927 20.8507 5.12661 20.964L7.45768 21.9503C7.72628 22.0643 8.03306 21.9774 8.20553 21.7389L8.8821 20.8222C9.91949 20.9998 10.9618 21.0004 11.9943 20.8216L12.6708 21.7389C12.8421 21.9748 13.1496 22.0642 13.4187 21.9503L15.7498 20.964C16.0171 20.8507 16.1748 20.5662 16.1317 20.2742L15.9344 19.1549C16.787 18.5343 17.525 17.7803 18.1336 16.906L19.1883 17.0659C19.4692 17.1049 19.7526 16.9475 19.8635 16.675L20.8281 14.2932C20.939 14.02 20.854 13.7046 20.6211 13.5284Z" fill="url(#paint0_linear_649:93)"/>
<path d="M10.438 3.90967C6.6152 3.90967 3.49902 7.09359 3.49902 10.9995C3.49902 14.9053 6.6152 18.0893 10.438 18.0893C14.2607 18.0893 17.3769 14.9053 17.3769 10.9995C17.3769 7.09359 14.2607 3.90967 10.438 3.90967ZM8.35624 11.8373C8.60857 12.0822 8.60857 12.4947 8.35624 12.7396C8.12932 12.9975 7.7002 12.9975 7.47315 12.7396L6.21152 11.4506C5.9592 11.2057 5.9592 10.7932 6.21152 10.5482L7.47315 9.25915C7.71286 9.00139 8.11649 9.00139 8.35624 9.25915C8.60857 9.50407 8.60857 9.91657 8.35624 10.1615L7.54884 10.9994L8.35624 11.8373ZM11.3716 9.8651L10.7408 12.4432C10.6333 12.8643 10.1677 13.0078 9.97117 12.9073C9.63049 12.8299 9.42867 12.4818 9.50437 12.1339L10.1352 9.55577C10.2235 9.20768 10.5641 9.00147 10.9048 9.09162C11.2455 9.16896 11.4473 9.51701 11.3716 9.8651ZM14.6644 11.4506L13.4028 12.7396C13.1758 12.9975 12.7467 12.9975 12.5197 12.7396C12.2673 12.4947 12.2673 12.0822 12.5197 11.8373L13.3271 10.9995L12.5197 10.1615C12.2673 9.91661 12.2673 9.50412 12.5197 9.2592C12.7594 9.00143 13.163 9.00143 13.4028 9.2592L14.6644 10.5482C14.9167 10.7932 14.9167 11.2057 14.6644 11.4506Z" fill="white"/>
<defs>
<linearGradient id="paint0_linear_649:93" x1="10.4381" y1="21.9998" x2="10.4381" y2="-2.62259e-06" gradientUnits="userSpaceOnUse">
<stop stop-color="#008080"/>
<stop offset="1" stop-color="#14C6B9"/>
</linearGradient>
</defs>
</svg>
