<svg width="59" height="64" viewBox="0 0 59 64" fill="none" xmlns="http://www.w3.org/2000/svg">
<circle cx="28" cy="32" r="25" fill="#008080"/>
<path d="M2.29448 48.2013C5.66144 53.3912 10.5505 57.4133 16.2921 59.7167C22.0337 62.0201 28.3471 62.4922 34.3674 61.0683C40.3877 59.6443 45.8205 56.394 49.9219 51.7625C54.0232 47.131 56.5924 41.3448 57.2776 35.1965C57.9628 29.0481 56.7304 22.8383 53.7493 17.4175C50.7683 11.9967 46.1842 7.63009 40.6251 4.91571C35.066 2.20133 28.8036 1.27193 22.6958 2.25482" stroke="#008080" stroke-width="3" stroke-linecap="round"/>
<path d="M31.381 32.5348C31.381 32.3027 31.2924 32.0707 31.1156 31.8938L25.5479 26.3262C25.1938 25.972 24.6195 25.972 24.2655 26.3262C23.9115 26.6802 23.9115 27.2543 24.2655 27.6085L29.1921 32.5348L24.2657 37.4611C23.9117 37.8152 23.9117 38.3893 24.2657 38.7433C24.6197 39.0976 25.1939 39.0976 25.5481 38.7433L31.1158 33.1758C31.2926 32.9988 31.381 32.7668 31.381 32.5348Z" fill="white"/>
</svg>
