<svg width="10" height="15" viewBox="0 0 10 15" fill="none" xmlns="http://www.w3.org/2000/svg">
<path d="M5.00101 0C3.55708 0 1.90625 2.24271 1.90625 4.9992C1.90625 8.56078 4.80511 13.7473 4.90826 13.9666C4.93188 14.0168 4.96559 14.0454 5.00098 14.0454C5.06852 14.0454 5.13293 14.0168 5.178 13.9666C5.37491 13.7473 10.0002 8.56078 10.0002 4.9992C10.0002 2.24271 7.75764 0 5.00101 0ZM5.00101 7.61784C3.55477 7.61784 2.38237 6.44546 2.38237 4.9992C2.38237 3.55294 3.55477 2.38058 5.00101 2.38058C6.44725 2.38058 7.61965 3.55296 7.61965 4.99923C7.61965 6.44549 6.44725 7.61784 5.00101 7.61784Z" fill="#FF6469"/>
<path d="M4.90648 13.9666C4.8033 13.7474 1.90447 8.5608 1.90447 4.99923C1.90444 2.24271 3.55527 0 4.9992 0C2.24257 0 0 2.24271 0 4.9992C0 8.56078 4.62527 13.7473 4.82218 13.9666C4.86728 14.0168 4.93169 14.0454 4.9992 14.0454C4.96381 14.0454 4.9301 14.0168 4.90648 13.9666Z" fill="#FF6469"/>
</svg>
