<svg width="24" height="12" viewBox="0 0 24 12" fill="none" xmlns="http://www.w3.org/2000/svg">
<path d="M5.88104 3.09991H0.33267C0.244441 3.09991 0.159825 3.06486 0.0974369 3.00247C0.0350491 2.94009 0 2.85547 0 2.76724C0 2.67901 0.0350491 2.5944 0.0974369 2.53201C0.159825 2.46962 0.244441 2.43457 0.33267 2.43457H5.88104C5.96927 2.43457 6.05389 2.46962 6.11627 2.53201C6.17866 2.5944 6.21371 2.67901 6.21371 2.76724C6.21371 2.85547 6.17866 2.94009 6.11627 3.00247C6.05389 3.06486 5.96927 3.09991 5.88104 3.09991Z" fill="#ABE751"/>
<path d="M5.88093 4.95831H3.10684C3.01861 4.95831 2.93399 4.92326 2.87161 4.86087C2.80922 4.79848 2.77417 4.71387 2.77417 4.62564C2.77417 4.53741 2.80922 4.45279 2.87161 4.39041C2.93399 4.32802 3.01861 4.29297 3.10684 4.29297H5.88093C5.96916 4.29297 6.05378 4.32802 6.11616 4.39041C6.17855 4.45279 6.2136 4.53741 6.2136 4.62564C6.2136 4.71387 6.17855 4.79848 6.11616 4.86087C6.05378 4.92326 5.96916 4.95831 5.88093 4.95831Z" fill="#ABE751"/>
<path d="M2.00805 4.95831H1.26553C1.1773 4.95831 1.09269 4.92326 1.0303 4.86087C0.96791 4.79848 0.932861 4.71387 0.932861 4.62564C0.932861 4.53741 0.96791 4.45279 1.0303 4.39041C1.09269 4.32802 1.1773 4.29297 1.26553 4.29297H2.00805C2.09628 4.29297 2.1809 4.32802 2.24329 4.39041C2.30567 4.45279 2.34072 4.53741 2.34072 4.62564C2.34072 4.71387 2.30567 4.79848 2.24329 4.86087C2.1809 4.92326 2.09628 4.95831 2.00805 4.95831Z" fill="#ABE751"/>
<path d="M5.88097 7.01495H1.28384C1.19561 7.01495 1.111 6.9799 1.04861 6.91751C0.986221 6.85513 0.951172 6.77051 0.951172 6.68228C0.951172 6.59405 0.986221 6.50943 1.04861 6.44705C1.111 6.38466 1.19561 6.34961 1.28384 6.34961H5.88097C5.9692 6.34961 6.05381 6.38466 6.1162 6.44705C6.17859 6.50943 6.21364 6.59405 6.21364 6.68228C6.21364 6.77051 6.17859 6.85513 6.1162 6.91751C6.05381 6.9799 5.9692 7.01495 5.88097 7.01495Z" fill="#ABE751"/>
<path d="M5.88061 8.87335H4.05777C3.96954 8.87335 3.88492 8.8383 3.82253 8.77591C3.76015 8.71352 3.7251 8.62891 3.7251 8.54068C3.7251 8.45245 3.76015 8.36783 3.82253 8.30545C3.88492 8.24306 3.96954 8.20801 4.05777 8.20801H5.88061C5.96884 8.20801 6.05346 8.24306 6.11584 8.30545C6.17823 8.36783 6.21328 8.45245 6.21328 8.54068C6.21328 8.62891 6.17823 8.71352 6.11584 8.77591C6.05346 8.8383 5.96884 8.87335 5.88061 8.87335Z" fill="#ABE751"/>
<path d="M2.95922 8.87335H2.2167C2.17302 8.87335 2.12976 8.86474 2.0894 8.84803C2.04903 8.83131 2.01236 8.8068 1.98147 8.77591C1.95058 8.74502 1.92607 8.70835 1.90936 8.66799C1.89264 8.62762 1.88403 8.58436 1.88403 8.54068C1.88403 8.49699 1.89264 8.45373 1.90936 8.41337C1.92607 8.37301 1.95058 8.33634 1.98147 8.30545C2.01236 8.27455 2.04903 8.25005 2.0894 8.23333C2.12976 8.21661 2.17302 8.20801 2.2167 8.20801H2.95922C3.00291 8.20801 3.04617 8.21661 3.08653 8.23333C3.12689 8.25005 3.16357 8.27455 3.19446 8.30545C3.22535 8.33634 3.24985 8.37301 3.26657 8.41337C3.28329 8.45373 3.29189 8.49699 3.29189 8.54068C3.29189 8.58436 3.28329 8.62762 3.26657 8.66799C3.24985 8.70835 3.22535 8.74502 3.19446 8.77591C3.16357 8.8068 3.12689 8.83131 3.08653 8.84803C3.04617 8.86474 3.00291 8.87335 2.95922 8.87335Z" fill="#ABE751"/>
<path d="M5.88135 2.16748V9.11307L11.2499 5.60786L5.88135 2.16748Z" fill="#FF7816"/>
<path d="M11.2499 5.6073L14.9408 7.97325L24.0001 2.16768V0.873117C24.0001 0.641552 23.9081 0.419471 23.7444 0.25573C23.5806 0.0919885 23.3585 2.06961e-08 23.127 2.06961e-08H6.75465C6.63998 -2.49467e-05 6.52642 0.0225406 6.42047 0.0664076C6.31452 0.110275 6.21824 0.174584 6.13714 0.255663C6.05605 0.336742 5.99172 0.433002 5.94783 0.538946C5.90394 0.64489 5.88135 0.758441 5.88135 0.873117V2.16692L11.2499 5.60768V5.6073Z" fill="#FF9F00"/>
<path d="M14.9408 7.97337L11.2499 5.60742L5.88135 9.11262V10.4351C5.88135 10.5498 5.90394 10.6634 5.94783 10.7693C5.99172 10.8752 6.05605 10.9715 6.13714 11.0526C6.21824 11.1337 6.31452 11.198 6.42047 11.2418C6.52642 11.2857 6.63998 11.3083 6.75465 11.3082H23.127C23.2416 11.3082 23.3552 11.2857 23.4611 11.2418C23.567 11.1979 23.6633 11.1336 23.7444 11.0525C23.8254 10.9714 23.8898 10.8752 23.9336 10.7693C23.9775 10.6633 24.0001 10.5498 24.0001 10.4351V9.11262L18.6317 5.60742L14.9408 7.97337Z" fill="#FFD93B"/>
<path d="M18.6313 5.60786L23.9997 9.11307V2.16748L18.6313 5.60786Z" fill="#FF7816"/>
</svg>
