<svg width="17" height="14" viewBox="0 0 17 14" fill="none" xmlns="http://www.w3.org/2000/svg">
<path d="M0.271724 7.65384L6.41102 13.7313C6.58628 13.9048 6.81985 14 7.0689 14C7.31824 14 7.55167 13.9046 7.72692 13.7313L8.28432 13.1794C8.45944 13.0062 8.55591 12.7748 8.55591 12.5281C8.55591 12.2816 8.45944 12.0425 8.28432 11.8692L4.70274 8.31602L16.0816 8.31602C16.5946 8.31602 17 7.91844 17 7.41044L17 6.63019C17 6.12219 16.5946 5.68452 16.0816 5.68452L4.66211 5.68452L8.28419 2.11146C8.4593 1.93798 8.55577 1.71292 8.55577 1.46624C8.55577 1.21984 8.4593 0.991497 8.28419 0.818152L7.72678 0.26802C7.55153 0.0945386 7.3181 -1.07255e-07 7.06876 -8.54582e-08C6.81971 -6.36852e-08 6.58614 0.0957698 6.41088 0.269251L0.271587 6.34657C0.0959218 6.5206 -0.000687279 6.75291 3.20273e-06 6.99986C-0.000547999 7.24764 0.0959219 7.48008 0.271724 7.65384Z" fill="#008080"/>
</svg>
