<svg width="30" height="22" viewBox="0 0 30 22" fill="none" xmlns="http://www.w3.org/2000/svg">
<path d="M28.7344 15.17H4.21976C3.71915 15.17 3.30957 14.7604 3.30957 14.2598V0.910187C3.30957 0.409584 3.71915 0 4.21976 0H28.7344C29.235 0 29.6446 0.409584 29.6446 0.910187V14.2598C29.6446 14.7604 29.235 15.17 28.7344 15.17Z" fill="#008080"/>
<path d="M26.9525 4.54833C26.1746 4.2791 25.5598 3.6052 25.3148 2.75245C25.1742 2.26534 24.7635 1.93311 24.2979 1.93311H18.3891H16.9363H8.658C8.19249 1.93311 7.78174 2.26534 7.64105 2.75245C7.39607 3.60514 6.78129 4.27904 6.00335 4.54833C5.55891 4.70177 5.25586 5.15205 5.25586 5.66308V7.57905V7.59069V9.50665C5.25586 10.0177 5.55897 10.468 6.00335 10.6214C6.78129 10.8906 7.39607 11.5645 7.64105 12.4173C7.78169 12.9044 8.19243 13.2366 8.658 13.2366H16.9363H18.389H24.2979C24.7634 13.2366 25.1741 12.9044 25.3148 12.4173C25.5598 11.5646 26.1746 10.8907 26.9525 10.6214C27.397 10.468 27.7 10.0177 27.7 9.50665V7.59069V7.57905V5.66308C27.7001 5.15205 27.397 4.70177 26.9525 4.54833Z" fill="#4EA0A0"/>
<path d="M27.1568 18.5079H2.64212C2.14152 18.5079 1.73193 18.0983 1.73193 17.5977V4.24808C1.73193 3.74748 2.14152 3.33789 2.64212 3.33789H27.1568C27.6574 3.33789 28.067 3.74748 28.067 4.24808V17.5977C28.067 18.0983 27.6574 18.5079 27.1568 18.5079Z" fill="#008080"/>
<path d="M25.3739 7.88622C24.596 7.61699 23.9812 6.94309 23.7362 6.09034C23.5956 5.60323 23.1848 5.271 22.7193 5.271H16.8104H15.3576H7.07939C6.61387 5.271 6.20313 5.60323 6.06244 6.09034C5.81746 6.94303 5.20268 7.61693 4.42473 7.88622C3.98029 8.03966 3.67725 8.48994 3.67725 9.00097V10.9169V10.9286V12.8445C3.67725 13.3556 3.98035 13.8059 4.42473 13.9593C5.20268 14.2285 5.8174 14.9024 6.06244 15.7552C6.20307 16.2423 6.61382 16.5745 7.07939 16.5745H15.3576H16.8104H22.7193C23.1848 16.5745 23.5956 16.2423 23.7363 15.7552C23.9813 14.9025 24.596 14.2286 25.374 13.9593C25.8184 13.8059 26.1215 13.3556 26.1215 12.8445V10.9286V10.9169V9.00097C26.1215 8.48994 25.8184 8.03966 25.3739 7.88622Z" fill="#64C37D"/>
<path d="M25.3739 7.88622C24.596 7.61699 23.9812 6.94309 23.7362 6.09034C23.5956 5.60323 23.1848 5.271 22.7193 5.271H16.8104H15.3576H7.07939C6.61387 5.271 6.20313 5.60323 6.06244 6.09034C5.81746 6.94303 5.20268 7.61693 4.42473 7.88622C3.98029 8.03966 3.67725 8.48994 3.67725 9.00097V10.9169V10.9286V12.8445C3.67725 13.3556 3.98035 13.8059 4.42473 13.9593C5.20268 14.2285 5.8174 14.9024 6.06244 15.7552C6.20307 16.2423 6.61382 16.5745 7.07939 16.5745H15.3576H16.8104H22.7193C23.1848 16.5745 23.5956 16.2423 23.7363 15.7552C23.9813 14.9025 24.596 14.2286 25.374 13.9593C25.8184 13.8059 26.1215 13.3556 26.1215 12.8445V10.9286V10.9169V9.00097C26.1215 8.48994 25.8184 8.03966 25.3739 7.88622Z" fill="#4EA0A0"/>
<path d="M26.335 7.65286V21.0025C26.335 21.5031 25.9255 21.9126 25.4249 21.9126H0.910187C0.409584 21.9126 0 21.5031 0 21.0025V7.65286C0 7.15226 0.409584 6.74268 0.910187 6.74268H25.4249C25.9255 6.74268 26.335 7.15226 26.335 7.65286Z" fill="#057471"/>
<path d="M26.3352 7.65286V20.6384H2.1846C1.684 20.6384 1.27441 20.2288 1.27441 19.7282V6.74268H25.425C25.9256 6.74268 26.3352 7.15226 26.3352 7.65286Z" fill="#008080"/>
<path d="M23.642 11.291C22.864 11.0218 22.2493 10.3479 22.0043 9.49512C21.8637 9.00801 21.4529 8.67578 20.9873 8.67578H15.0785H13.6257H5.34746C4.88194 8.67578 4.4712 9.00801 4.3305 9.49512C4.08553 10.3478 3.47074 11.0217 2.6928 11.291C2.24836 11.4444 1.94531 11.8947 1.94531 12.4058V14.3217V14.3334V16.2493C1.94531 16.7604 2.24842 17.2106 2.6928 17.3641C3.47074 17.6333 4.08547 18.3072 4.3305 19.16C4.47114 19.6471 4.88188 19.9793 5.34746 19.9793H13.6257H15.0785H20.9874C21.4529 19.9793 21.8637 19.6471 22.0044 19.16C22.2494 18.3073 22.8641 17.6334 23.6421 17.3641C24.0865 17.2106 24.3895 16.7604 24.3895 16.2493V14.3334V14.3217V12.4058C24.3895 11.8947 24.0864 11.4444 23.642 11.291Z" fill="#4EA0A0"/>
<path d="M13.1672 17.8353C15.1046 17.8353 16.6752 16.2647 16.6752 14.3273C16.6752 12.3899 15.1046 10.8193 13.1672 10.8193C11.2298 10.8193 9.65918 12.3899 9.65918 14.3273C9.65918 16.2647 11.2298 17.8353 13.1672 17.8353Z" fill="white"/>
<path d="M13.1667 17.1821C13.4181 17.1821 13.6218 16.9784 13.6218 16.727V16.431C14.1234 16.247 14.4822 15.7647 14.4822 15.2002C14.4822 14.4809 13.8997 13.8952 13.1817 13.8897L13.1727 13.8894C13.1699 13.8893 13.167 13.8892 13.1641 13.8891C12.9513 13.8847 12.7715 13.6924 12.7715 13.4694C12.7715 13.2514 12.9487 13.0718 13.1624 13.0692L13.1651 13.0691C13.3838 13.0709 13.5618 13.2505 13.5618 13.4694C13.5618 13.7207 13.7656 13.9245 14.0169 13.9245C14.2683 13.9245 14.472 13.7207 14.472 13.4694C14.472 12.9118 14.1184 12.4336 13.6217 12.2453V11.9282C13.6217 11.6769 13.418 11.4731 13.1666 11.4731C12.9153 11.4731 12.7115 11.6769 12.7115 11.9282V12.2444C12.2162 12.4323 11.8611 12.9117 11.8611 13.4692C11.8611 14.186 12.4345 14.7815 13.1402 14.799L13.1535 14.7995C13.1596 14.7997 13.1656 14.7998 13.1716 14.7998C13.3923 14.7998 13.5719 14.9794 13.5719 15.2001C13.5719 15.4208 13.3924 15.6004 13.1703 15.6004H13.1615C12.9408 15.6004 12.7613 15.4208 12.7613 15.2C12.7613 14.9487 12.5575 14.745 12.3062 14.745C12.0548 14.745 11.8511 14.9487 11.8511 15.2C11.8511 15.7643 12.2096 16.2465 12.7115 16.4307V16.7269C12.7116 16.9784 12.9153 17.1821 13.1667 17.1821Z" fill="#008080"/>
</svg>
