<svg width="28" height="26" viewBox="0 0 28 26" fill="none" xmlns="http://www.w3.org/2000/svg">
<path d="M19.7852 19.3062H21.1786V23.9812H19.7852V19.3062Z" fill="#5F6C75"/>
<path d="M2.59277 12.0825H24.7282V19.9425H2.59277V12.0825Z" fill="#B78C7A"/>
<path d="M2.59277 12.0825H24.7282V13.4568H2.59277V12.0825Z" fill="#AB7B64"/>
<path d="M15.1699 24.9944L20.7757 24.6371L25.1073 24.9944V23.3452H15.1699V24.9944Z" fill="#6D7C84"/>
<path d="M15.1699 24.2798H25.1074V24.9944H15.1699V24.2798Z" fill="#5F6C75"/>
<path d="M16.4066 24.1695C16.4066 23.4864 15.8528 22.9326 15.1697 22.9326C15.0143 22.9326 14.8656 22.9613 14.7285 23.0136C14.2632 23.1913 14.3611 23.5833 14.3611 24.111C14.3611 24.7941 14.4864 25.159 15.1695 25.159C15.6972 25.159 16.1479 25.0759 16.3255 24.6106C16.3779 24.4736 16.4066 24.3249 16.4066 24.1695Z" fill="#E9EDF1"/>
<path d="M16.325 24.6106C16.148 25.0762 15.6972 25.4066 15.1695 25.4066C14.4867 25.4066 13.9326 24.853 13.9326 24.1697C13.9326 23.642 14.2636 23.1912 14.7286 23.0142C14.6758 23.151 14.6473 23.2995 14.6473 23.455C14.6473 24.1384 15.2014 24.6919 15.8842 24.6919C16.0392 24.6919 16.1882 24.6633 16.325 24.6106Z" fill="#DCE6EB"/>
<path d="M2.93672 25.304L1.87586 25.2256C1.78477 25.2256 1.71094 25.1518 1.71094 25.0607L1.87937 12.0825L3.21626 12.3228V24.6367L3.10164 25.139C3.10164 25.2301 3.02781 25.304 2.93672 25.304Z" fill="#AB7B64"/>
<path d="M3.2156 24.6367V25.2414C3.2156 25.3327 3.14193 25.4063 3.05068 25.4063H1.73133C1.64007 25.4063 1.56641 25.3327 1.56641 25.2414V12.3228H2.33603V24.4718C2.33603 24.563 2.40969 24.6367 2.50095 24.6367H3.2156Z" fill="#9A6A53"/>
<path d="M25.2349 25.1592L24.5389 25.0768C24.4479 25.0768 24.374 25.0029 24.374 24.9118L24.4863 12.1201L25.7554 12.2131V24.637L25.3998 24.9943C25.3998 25.0854 25.326 25.1592 25.2349 25.1592Z" fill="#AB7B64"/>
<path d="M25.7547 24.6368V25.2415C25.7547 25.3327 25.681 25.4064 25.5897 25.4064H24.2704C24.1791 25.4064 24.1055 25.3327 24.1055 25.2415V12.2129H24.8751V24.4719C24.8751 24.5631 24.9488 24.6368 25.04 24.6368H25.7547Z" fill="#9A6A53"/>
<path d="M8.07086 5.47683H1.55657C1.25295 5.47683 1.00684 5.23071 1.00684 4.9271V4.37737C1.00684 4.07375 1.25295 3.82764 1.55657 3.82764H8.07086C8.37448 3.82764 8.62059 4.07375 8.62059 4.37737V4.9271C8.62059 5.23071 8.37448 5.47683 8.07086 5.47683Z" fill="#F7F9FA"/>
<path d="M8.62059 4.7072V4.9271C8.62059 5.23055 8.37431 5.47683 8.07086 5.47683H1.55657C1.25257 5.47683 1.00684 5.23055 1.00684 4.9271V4.37737C1.00684 4.07392 1.25257 3.82764 1.55657 3.82764H1.8864V4.32239C1.8864 4.53459 2.05847 4.7072 2.27121 4.7072H8.62059Z" fill="#E9EDF1"/>
<path d="M8.07105 5.88882H1.55675C1.02632 5.88882 0.594727 5.45723 0.594727 4.9268V4.37707C0.594727 3.84663 1.02632 3.41504 1.55675 3.41504H8.07105C8.60149 3.41504 9.03308 3.84663 9.03308 4.37707V4.9268C9.03308 5.45728 8.60154 5.88882 8.07105 5.88882ZM1.55675 4.23963C1.481 4.23963 1.41932 4.30126 1.41932 4.37707V4.9268C1.41932 5.0026 1.481 5.06423 1.55675 5.06423H8.07105C8.14681 5.06423 8.20849 5.0026 8.20849 4.9268V4.37707C8.20849 4.30126 8.14681 4.23963 8.07105 4.23963H1.55675Z" fill="#B3E59F"/>
<path d="M9.03406 4.7008V4.92728C9.03406 5.45777 8.60252 5.88931 8.07203 5.88931L4.34085 6.2905L1.55773 5.88931C1.02724 5.88931 0.595703 5.45777 0.595703 4.92728V4.37755C0.595703 3.84707 1.02724 3.41553 1.55773 3.41553H1.88757V4.24012H1.55773C1.48187 4.24012 1.4203 4.30169 1.4203 4.37755V4.92728C1.4203 5.00315 1.48187 5.06472 1.55773 5.06472H8.07203C8.14734 5.06472 8.20946 5.00315 8.20946 4.92728V4.70739H8.9516C8.97963 4.70739 9.00712 4.70519 9.03406 4.7008Z" fill="#95D6A4"/>
<path d="M24.3739 10.819L16.7479 10.6505L16.4112 4.98014C16.3447 3.99601 17.1251 3.16113 18.1115 3.16113L18.9798 2.68018H23.4034C24.3898 2.68018 25.1702 3.51505 25.1037 4.49918L24.7289 10.0494L24.3739 10.819Z" fill="#E9EDF1"/>
<path d="M16.2236 3.32959V5.90397H15.9565L15.8614 4.49996C15.8317 4.05963 15.9713 3.64898 16.2236 3.32959Z" fill="#DCE6EB"/>
<path d="M17.4384 10.0498C17.3221 10.0498 17.2259 9.95925 17.2189 9.8432L17.1582 8.84165C17.1525 8.74847 17.2253 8.66788 17.3186 8.66706C18.2146 8.65876 18.9853 7.94955 18.98 7.02298V2.68066H17.5617C17.3794 2.68066 17.2043 2.7098 17.0401 2.76257C17.0402 2.76219 17.0404 2.7618 17.0406 2.76142C16.7191 2.8646 16.4327 3.06493 16.2237 3.32929V3.32973C15.9716 3.6489 15.8315 4.05922 15.8614 4.49967L16.2365 10.0497H16.2363L16.2885 10.8194L20.9026 11.4088L24.6769 10.8194L24.7291 10.0497H17.4384V10.0498Z" fill="#DCE6EB"/>
<path d="M8.07086 7.95046H1.55657C1.25295 7.95046 1.00684 7.70435 1.00684 7.40073V6.851C1.00684 6.54738 1.25295 6.30127 1.55657 6.30127H8.07086C8.37448 6.30127 8.62059 6.54738 8.62059 6.851V7.40073C8.62059 7.70435 8.37448 7.95046 8.07086 7.95046Z" fill="#F7F9FA"/>
<path d="M8.62059 7.18084V7.40073C8.62059 7.70418 8.37431 7.95046 8.07086 7.95046H1.55657C1.25257 7.95046 1.00684 7.70418 1.00684 7.40073V6.851C1.00684 6.54755 1.25257 6.30127 1.55657 6.30127H1.8864V6.79603C1.8864 7.00822 2.05847 7.18084 2.27121 7.18084H8.62059Z" fill="#E9EDF1"/>
<path d="M8.07105 8.36294H1.55675C1.02632 8.36294 0.594727 7.93135 0.594727 7.40092V6.85119C0.594727 6.32075 1.02632 5.88916 1.55675 5.88916H8.07105C8.60149 5.88916 9.03308 6.32075 9.03308 6.85119V7.40092C9.03308 7.9314 8.60154 8.36294 8.07105 8.36294ZM1.55675 6.71375C1.481 6.71375 1.41932 6.77538 1.41932 6.85119V7.40092C1.41932 7.47672 1.481 7.53835 1.55675 7.53835H8.07105C8.14681 7.53835 8.20849 7.47672 8.20849 7.40092V6.85119C8.20849 6.77538 8.14681 6.71375 8.07105 6.71375H1.55675Z" fill="#DF646E"/>
<path d="M9.03406 7.17492V7.4014C9.03406 7.93189 8.60252 8.36343 8.07203 8.36343L4.5841 8.77045L1.55773 8.36343C1.02724 8.36343 0.595703 7.93189 0.595703 7.4014V6.85167C0.595703 6.32119 1.02724 5.88965 1.55773 5.88965H1.88757V6.71424H1.55773C1.48187 6.71424 1.4203 6.77581 1.4203 6.85167V7.4014C1.4203 7.47727 1.48187 7.53884 1.55773 7.53884H8.07203C8.14734 7.53884 8.20946 7.47727 8.20946 7.4014V7.18151H8.9516C8.97963 7.18151 9.00712 7.17931 9.03406 7.17492Z" fill="#DC4955"/>
<path d="M8.07086 10.426H1.55657C1.25295 10.426 1.00684 10.1799 1.00684 9.87632V9.32659C1.00684 9.02297 1.25295 8.77686 1.55657 8.77686H8.07086C8.37448 8.77686 8.62059 9.02297 8.62059 9.32659V9.87632C8.62059 10.1799 8.37448 10.426 8.07086 10.426Z" fill="#F7F9FA"/>
<path d="M8.62059 9.65642V9.87632C8.62059 10.1798 8.37431 10.426 8.07086 10.426H1.55657C1.25257 10.426 1.00684 10.1798 1.00684 9.87632V9.32659C1.00684 9.02313 1.25257 8.77686 1.55657 8.77686H1.8864V9.27161C1.8864 9.48381 2.05847 9.65642 2.27121 9.65642H8.62059Z" fill="#E9EDF1"/>
<path d="M8.07105 10.8385H1.55675C1.02632 10.8385 0.594727 10.4069 0.594727 9.8765V9.32677C0.594727 8.79634 1.02632 8.36475 1.55675 8.36475H8.07105C8.60149 8.36475 9.03308 8.79634 9.03308 9.32677V9.8765C9.03308 10.4069 8.60154 10.8385 8.07105 10.8385ZM1.55675 9.18934C1.481 9.18934 1.41932 9.25097 1.41932 9.32677V9.8765C1.41932 9.95231 1.481 10.0139 1.55675 10.0139H8.07105C8.14681 10.0139 8.20849 9.95231 8.20849 9.8765V9.32677C8.20849 9.25097 8.14681 9.18934 8.07105 9.18934H1.55675Z" fill="#FFD064"/>
<path d="M9.03406 9.6505V9.87699C9.03406 10.4075 8.60252 10.839 8.07203 10.839H1.55773C1.02724 10.839 0.595703 10.4075 0.595703 9.87699V9.32726C0.595703 8.79677 1.02724 8.36523 1.55773 8.36523H1.88757V9.18983H1.55773C1.48187 9.18983 1.4203 9.2514 1.4203 9.32726V9.87699C1.4203 9.95285 1.48187 10.0144 1.55773 10.0144H8.07203C8.14734 10.0144 8.20946 9.95285 8.20946 9.87699V9.6571H8.9516C8.97963 9.6571 9.00712 9.6549 9.03406 9.6505Z" fill="#FFC250"/>
<path d="M11.5166 7.521H13.1658V9.32224H11.5166V7.521Z" fill="#5F6C75"/>
<path d="M26.32 12.2129L1.00715 12.3574C0.703538 12.3574 0.457424 12.1113 0.457424 11.8076L0.594857 11.5884C0.594857 11.2847 0.246383 10.8193 0.549999 10.8193H26.7721C27.0757 10.8193 27.3218 11.0655 27.3218 11.3691V11.9188C27.3218 12.2224 26.6236 12.2129 26.32 12.2129Z" fill="#AB7B64"/>
<path d="M27.3216 11.7539V11.9188C27.3216 12.2222 27.0753 12.4685 26.7718 12.4685H0.54973C0.246279 12.4685 0 12.2222 0 11.9188V11.3691C0 11.0656 0.246279 10.8193 0.54973 10.8193H0.714649V11.3691C0.714649 11.5813 0.886714 11.7539 1.09946 11.7539H27.3216Z" fill="#9A6A53"/>
<path d="M17.6309 7.48607H7.05237C6.8913 7.48607 6.76074 7.35551 6.76074 7.19443V0.684698C6.76074 0.523627 6.8913 0.393066 7.05237 0.393066H17.631C17.7921 0.393066 17.9226 0.523627 17.9226 0.684698V7.19443C17.9226 7.35551 17.792 7.48607 17.6309 7.48607Z" fill="#BED9FD"/>
<path d="M17.6886 6.38722V7.05784C17.6886 7.21215 17.5635 7.33726 17.4092 7.33726H7.27357C7.11926 7.33726 6.99414 7.21215 6.99414 7.05784V0.820932C6.99414 0.666622 7.11926 0.541504 7.27357 0.541504H7.94418V6.27546C7.94418 6.3372 7.99421 6.38722 8.05594 6.38722H17.6886Z" fill="#9EC8FC"/>
<path d="M17.6219 7.879H7.06185C6.68473 7.879 6.37793 7.5722 6.37793 7.19508V0.683919C6.37793 0.306804 6.68473 0 7.06185 0H17.6219C17.9991 0 18.3059 0.306804 18.3059 0.683919V7.19508C18.3059 7.5722 17.9991 7.879 17.6219 7.879ZM7.43083 7.05826H17.253C17.3813 7.05826 17.4852 6.9543 17.4852 6.82611V1.0529C17.4852 0.924646 17.3812 0.820747 17.253 0.820747H7.43083C7.30258 0.820747 7.19868 0.9247 7.19868 1.0529V6.82611C7.19862 6.9543 7.30258 7.05826 7.43083 7.05826Z" fill="#6D7C84"/>
<path d="M14.4182 10.8191H10.2637V10.4343C10.2637 9.73598 10.8297 9.16992 11.5281 9.16992H13.1538C13.8521 9.16992 14.4182 9.73598 14.4182 10.4343V10.8191Z" fill="#6D7C84"/>
<path d="M14.4185 10.4343V10.8191H10.2637V10.4343C10.2637 9.86151 10.6452 9.37719 11.168 9.22217C11.1163 9.36015 11.0883 9.50913 11.0883 9.6647V9.88459C11.0883 9.97568 11.1621 10.0495 11.2532 10.0495H14.3592C14.3976 10.171 14.4185 10.3002 14.4185 10.4343Z" fill="#5F6C75"/>
</svg>
