<svg width="36" height="36" viewBox="0 0 36 36" fill="none" xmlns="http://www.w3.org/2000/svg">
<path d="M2.68214 19.8201L8.98797 12.9148L6.76125 12.406C8.60675 7.74923 13.1361 4.60967 18.2537 4.60967C24.1021 4.60967 29.1953 8.75957 30.3658 14.4776L34.8811 13.5537C34.1081 9.7784 32.0384 6.34144 29.0504 3.87605C26.0222 1.37631 22.1882 0 18.2536 0C10.9876 0 4.58529 4.61104 2.2281 11.3709L0 10.862L2.68214 19.8201Z" fill="#838BC5"/>
<path d="M36 24.9855L33.3165 16.0273L27.0107 22.9332L29.2356 23.4409C27.3913 28.0986 22.8618 31.238 17.7431 31.238C11.8971 31.238 6.8035 27.0879 5.63386 21.3698L1.11682 22.2942C1.88849 26.0693 3.96016 29.5059 6.94647 31.9713C9.97634 34.4708 13.8112 35.8475 17.7431 35.8475C25.0103 35.8475 31.4145 31.2368 33.7686 24.4766L36 24.9855Z" fill="#838BC5"/>
</svg>
