<svg width="21" height="30" viewBox="0 0 21 30" fill="none" xmlns="http://www.w3.org/2000/svg">
<path d="M9.62482 1.71338H6.12496C5.64134 1.71338 5.25 2.09657 5.25 2.57012V5.99706C5.25 6.47061 5.64134 6.8538 6.12496 6.8538H6.99993V9.53824C6.99993 10.0118 7.39127 10.395 7.87489 10.395C8.35852 10.395 8.74986 10.0118 8.74986 9.53824V6.8538H9.62482C10.1084 6.8538 10.4998 6.47061 10.4998 5.99706V2.57012C10.4998 2.09657 10.1084 1.71338 9.62482 1.71338Z" fill="#CFD7E6"/>
<path d="M8.74996 9.53824V6.8538H9.62493C10.1086 6.8538 10.4999 6.47061 10.4999 5.99706V2.57012C10.4999 2.09657 10.1086 1.71338 9.62493 1.71338H7.875V10.395C8.35862 10.395 8.74996 10.0118 8.74996 9.53824Z" fill="#A3B2CC"/>
<path d="M15.7499 13.8221L7.87523 15.5355L0.000541178 13.8221C0.0175155 13.1237 -0.045657 12.8065 0.088096 12.1086C0.490522 10.1552 2.25801 8.68164 4.37537 8.68164H11.3751C13.4924 8.68164 15.2599 10.1552 15.6624 12.1086C15.7961 12.8064 15.7329 13.1237 15.7499 13.8221Z" fill="#F3F5F9"/>
<path d="M15.6621 12.1086C15.2597 10.1552 13.4922 8.68164 11.3749 8.68164H7.875V15.5355L15.7497 13.8221C15.7327 13.1237 15.7959 12.8065 15.6621 12.1086Z" fill="#CFD7E6"/>
<path d="M0.000976562 13.8218V26.6728C0.000976562 28.0951 1.17331 29.243 2.62587 29.243H13.1255C14.578 29.243 15.7503 28.0951 15.7503 26.6728V13.8218H0.000976562Z" fill="#FF6666"/>
<path d="M15.7497 13.8218H7.875V29.243H13.1248C14.5773 29.243 15.7497 28.0951 15.7497 26.6728V13.8218Z" fill="#E64560"/>
<path d="M13.1259 5.14023C13.6092 5.14023 14.0009 4.75666 14.0009 4.28349C14.0009 3.81033 13.6092 3.42676 13.1259 3.42676C12.6427 3.42676 12.251 3.81033 12.251 4.28349C12.251 4.75666 12.6427 5.14023 13.1259 5.14023Z" fill="#FFBE40"/>
<path d="M16.6259 3.42685C17.1092 3.42685 17.5009 3.04328 17.5009 2.57012C17.5009 2.09695 17.1092 1.71338 16.6259 1.71338C16.1427 1.71338 15.751 2.09695 15.751 2.57012C15.751 3.04328 16.1427 3.42685 16.6259 3.42685Z" fill="#FFBE40"/>
<path d="M16.6259 6.8541C17.1092 6.8541 17.5009 6.47052 17.5009 5.99736C17.5009 5.5242 17.1092 5.14062 16.6259 5.14062C16.1427 5.14062 15.751 5.5242 15.751 5.99736C15.751 6.47052 16.1427 6.8541 16.6259 6.8541Z" fill="#FFBE40"/>
<path d="M20.1259 5.14023C20.6092 5.14023 21.0009 4.75666 21.0009 4.28349C21.0009 3.81033 20.6092 3.42676 20.1259 3.42676C19.6427 3.42676 19.251 3.81033 19.251 4.28349C19.251 4.75666 19.6427 5.14023 20.1259 5.14023Z" fill="#FFBE40"/>
<path d="M20.1259 1.71347C20.6092 1.71347 21.0009 1.3299 21.0009 0.856737C21.0009 0.383574 20.6092 0 20.1259 0C19.6427 0 19.251 0.383574 19.251 0.856737C19.251 1.3299 19.6427 1.71347 20.1259 1.71347Z" fill="#FFBE40"/>
<path d="M20.1259 8.56748C20.6092 8.56748 21.0009 8.1839 21.0009 7.71074C21.0009 7.23758 20.6092 6.854 20.1259 6.854C19.6427 6.854 19.251 7.23758 19.251 7.71074C19.251 8.1839 19.6427 8.56748 20.1259 8.56748Z" fill="#FFBE40"/>
<path d="M11.3757 20.6756C11.8593 20.6756 12.2506 20.2924 12.2506 19.8188V18.1054C12.2506 17.6318 11.8593 17.2486 11.3757 17.2486C10.892 17.2486 10.5007 17.6318 10.5007 18.1054V18.9621H10.3396C10.0752 18.2363 9.49204 17.6653 8.75077 17.4064V16.3919C8.75077 15.9183 8.35942 15.5352 7.8758 15.5352C7.39218 15.5352 7.00084 15.9183 7.00084 16.3919V17.4064C6.25957 17.6653 5.67643 18.2363 5.41196 18.9621H5.25091V18.1054C5.25091 17.6318 4.85956 17.2486 4.37594 17.2486C3.89232 17.2486 3.50098 17.6318 3.50098 18.1054V19.8188C3.50098 20.2924 3.89232 20.6756 4.37594 20.6756H5.25091V22.389H4.37594C3.89232 22.389 3.50098 22.7722 3.50098 23.2458V24.9593C3.50098 25.4328 3.89232 25.816 4.37594 25.816C4.85956 25.816 5.25091 25.4328 5.25091 24.9593V24.1025H5.41196C5.77449 25.0976 6.7366 25.816 7.8758 25.816C9.01501 25.816 9.97712 25.0976 10.3396 24.1025H10.5007V24.9593C10.5007 25.4328 10.892 25.816 11.3757 25.816C11.8593 25.816 12.2506 25.4328 12.2506 24.9593V23.2458C12.2506 22.7722 11.8593 22.389 11.3757 22.389H10.5007V20.6756H11.3757Z" fill="#4D5E80"/>
<path d="M10.3388 24.1025H10.4999V24.9593C10.4999 25.4328 10.8912 25.816 11.3749 25.816C11.8585 25.816 12.2498 25.4328 12.2498 24.9593V23.2458C12.2498 22.7722 11.8585 22.389 11.3749 22.389H10.4999V20.6756H11.3749C11.8585 20.6756 12.2498 20.2924 12.2498 19.8188V18.1054C12.2498 17.6318 11.8585 17.2486 11.3749 17.2486C10.8912 17.2486 10.4999 17.6318 10.4999 18.1054V18.9621H10.3388C10.0744 18.2363 9.49124 17.6653 8.74997 17.4064V16.3919C8.74997 15.9183 8.35862 15.5352 7.875 15.5352V25.816C9.01426 25.816 9.97637 25.0976 10.3388 24.1025Z" fill="#3D4566"/>
</svg>
