<svg width="62" height="114" viewBox="0 0 62 114" fill="none" xmlns="http://www.w3.org/2000/svg">
<path d="M54.7059 0.235352H7.29405C5.96605 0.235352 4.71953 0.588219 3.64702 1.20828L1.91846 7.52942V105.006C1.91846 109.035 5.18413 112.301 9.21252 112.301H54.7057L61.026 109.647C61.6462 108.574 62 107.328 62 106V7.52942C62 3.50103 58.7343 0.235352 54.7059 0.235352V0.235352Z" fill="#5D5360"/>
<path d="M54.7059 109.647L3.64703 7.52915V1.20801C1.47595 2.47153 0 4.83605 0 7.52915V106C0 110.028 3.26568 113.294 7.29406 113.294H54.7059C57.399 113.294 59.7627 111.818 61.0262 109.647H54.7059Z" fill="#4B3F4E"/>
<path d="M54.7059 3.88232H46.4268C45.1652 3.88232 43.9291 4.49752 43.3313 5.60824C42.7157 6.75186 41.5076 7.52936 40.1178 7.52936H21.8824C20.4925 7.52936 19.2842 6.75186 18.6688 5.60824C18.0708 4.4973 16.8349 3.88232 15.5734 3.88232H7.29425C5.27994 3.88232 3.64722 5.51527 3.64722 7.52936V106C3.64722 108.014 5.28016 109.647 7.29425 109.647H54.7061C56.7204 109.647 58.3531 108.014 58.3531 106V7.52936C58.3529 5.51527 56.72 3.88232 54.7059 3.88232Z" fill="#ECEAEC"/>
<path d="M47.4118 106H40.1175L30.9999 104.13L21.8823 106H14.5883C10.5599 106 7.29419 102.734 7.29419 98.7057V18.4703C7.29419 14.4419 10.5599 11.1763 14.5883 11.1763H47.4118C51.4401 11.1763 54.7058 14.4419 54.7058 18.4703V98.7057C54.7058 102.734 51.4401 106 47.4118 106Z" fill="white"/>
<path d="M25.5295 95.0819H16.4813C14.467 95.0819 12.8342 93.4489 12.8342 91.4348V78.647L14.5884 75H25.5295C27.5438 75 29.1765 76.6329 29.1765 78.647V93.2354L25.5295 95.0819Z" fill="#FF9A9F"/>
<path d="M14.5882 89.5883V75C12.5741 75 10.9412 76.6327 10.9412 78.647V93.2354C10.9412 95.2495 12.5741 96.8824 14.5882 96.8824H25.5293C27.5434 96.8824 29.1763 95.2495 29.1763 93.2354H18.2352C16.2211 93.2354 14.5882 91.6026 14.5882 89.5883Z" fill="#FF8086"/>
<path d="M47.4118 65.9056H38.3636C36.3493 65.9056 34.7166 64.2726 34.7166 62.2586V49.4708L36.4707 45.8237H47.4118C49.4261 45.8237 51.0589 47.4567 51.0589 49.4708V64.0591L47.4118 65.9056Z" fill="#C3DDFF"/>
<path d="M36.4705 60.4121V45.8237C34.4564 45.8237 32.8235 47.4565 32.8235 49.4708V64.0591C32.8235 66.0732 34.4564 67.7061 36.4705 67.7061H47.4116C49.4257 67.7061 51.0586 66.0732 51.0586 64.0591H40.1176C38.1035 64.0591 36.4705 62.4264 36.4705 60.4121Z" fill="#A4CCFF"/>
<path d="M21.8824 88.6766H18.2354C17.2282 88.6766 16.4119 87.8602 16.4119 86.8531V85.0296C16.4119 84.0224 17.2282 83.2061 18.2354 83.2061H21.8824C22.8896 83.2061 23.7059 84.0224 23.7059 85.0296V86.8531C23.7059 87.8602 22.8893 88.6766 21.8824 88.6766Z" fill="white"/>
<path d="M40.1175 106H21.8824C20.8743 106 20.0588 105.183 20.0588 104.177C20.0588 103.17 20.8745 102.353 21.8824 102.353H40.1177C41.1258 102.353 41.9413 103.17 41.9413 104.177C41.9413 105.183 41.1255 106 40.1175 106Z" fill="#C8C5C9"/>
<path d="M25.5295 36.7288H16.4813C14.467 36.7288 12.8342 35.0959 12.8342 33.0818V20.294L14.5884 16.647H25.5295C27.5438 16.647 29.1765 18.2799 29.1765 20.294V34.8824L25.5295 36.7288Z" fill="#B3E59F"/>
<path d="M43.7646 54.9415H41.0293C40.0213 54.9415 39.2058 54.1249 39.2058 53.1179C39.2058 52.111 40.0215 51.2944 41.0293 51.2944H43.7646C44.7726 51.2944 45.5881 52.111 45.5881 53.1179C45.5881 54.1249 44.7726 54.9415 43.7646 54.9415Z" fill="white"/>
<path d="M43.7646 62.2349H41.0293C40.0213 62.2349 39.2058 61.4183 39.2058 60.4114C39.2058 59.4045 40.0215 58.5879 41.0293 58.5879H43.7646C44.7726 58.5879 45.5881 59.4045 45.5881 60.4114C45.5883 61.4186 44.7726 62.2349 43.7646 62.2349Z" fill="white"/>
<path d="M14.5882 31.2351V16.647C12.5741 16.647 10.9412 18.2797 10.9412 20.294V34.8824C10.9412 36.8964 12.5741 38.5294 14.5882 38.5294H25.5293C27.5434 38.5294 29.1763 36.8964 29.1763 34.8824H18.2352C16.2211 34.8821 14.5882 33.2494 14.5882 31.2351Z" fill="#95D6A4"/>
<path d="M21.8824 30.3236H18.2354C17.2282 30.3236 16.4119 29.5072 16.4119 28.5001V26.6765C16.4119 25.6694 17.2282 24.853 18.2354 24.853H21.8824C22.8896 24.853 23.7059 25.6694 23.7059 26.6765V28.5001C23.7059 29.5072 22.8893 30.3236 21.8824 30.3236Z" fill="white"/>
<path d="M47.4118 36.7288H38.3636C36.3493 36.7288 34.7166 35.0959 34.7166 33.0818V20.294L36.4707 16.647H47.4118C49.4261 16.647 51.0589 18.2799 51.0589 20.294V34.8824L47.4118 36.7288Z" fill="#FFE07D"/>
<path d="M36.4705 31.2351V16.647C34.4564 16.647 32.8235 18.2797 32.8235 20.294V34.8824C32.8235 36.8964 34.4564 38.5294 36.4705 38.5294H47.4116C49.4257 38.5294 51.0586 36.8964 51.0586 34.8824H40.1176C38.1035 34.8821 36.4705 33.2494 36.4705 31.2351Z" fill="#FFD064"/>
<path d="M25.5295 65.9056H16.4813C14.467 65.9056 12.8342 64.2726 12.8342 62.2586V49.4708L14.5884 45.8237H25.5295C27.5438 45.8237 29.1765 47.4567 29.1765 49.4708V64.0591L25.5295 65.9056Z" fill="#EAD1FF"/>
<path d="M14.5882 60.4121V45.8237C12.5741 45.8237 10.9412 47.4565 10.9412 49.4708V64.0591C10.9412 66.0732 12.5741 67.7061 14.5882 67.7061H25.5293C27.5434 67.7061 29.1763 66.0732 29.1763 64.0591H18.2352C16.2211 64.0591 14.5882 62.4264 14.5882 60.4121Z" fill="#D6BDEF"/>
<path d="M47.4118 95.0819H38.3636C36.3493 95.0819 34.7166 93.4489 34.7166 91.4348V78.647L36.4707 75H47.4118C49.4261 75 51.0589 76.6329 51.0589 78.647V93.2354L47.4118 95.0819Z" fill="#E2A975"/>
<path d="M36.4705 89.5883V75C34.4564 75 32.8235 76.6327 32.8235 78.647V93.2354C32.8235 95.2495 34.4564 96.8824 36.4705 96.8824H47.4116C49.4257 96.8824 51.0586 95.2495 51.0586 93.2354H40.1176C38.1035 93.2354 36.4705 91.6026 36.4705 89.5883Z" fill="#D19A6E"/>
</svg>
