<svg width="32" height="27" viewBox="0 0 32 27" fill="none" xmlns="http://www.w3.org/2000/svg">
<g clip-path="url(#clip0_638:2190)">
<path d="M23.3517 19.8452C20.0836 19.8452 17.4249 17.0535 17.4249 13.622V10.6534H15.6982V6.99902H17.516C19.3848 6.99902 20.9053 8.59548 20.9053 10.5578V13.622C20.9053 15.0385 22.0028 16.1908 23.3517 16.1908C24.7006 16.1908 25.7982 15.0385 25.7982 13.622V10.5578C25.7982 8.59548 27.3186 6.99902 29.1875 6.99902H31.0052V10.6534H29.2785V13.622C29.2785 17.0535 26.6197 19.8452 23.3517 19.8452Z" fill="#F1F4F6"/>
<path d="M24.6076 16.1908C25.9566 16.1908 27.0541 15.0385 27.0541 13.622V10.5578C27.0541 8.59548 28.5745 6.99902 30.4434 6.99902H29.1871C27.3183 6.99902 25.7978 8.59548 25.7978 10.5578V13.622C25.7978 14.8105 25.025 15.8127 23.9795 16.1046C24.1801 16.1606 24.3905 16.1908 24.6076 16.1908Z" fill="#E7ECF1"/>
<path d="M18.681 13.6219V11.7019C18.681 11.1228 18.2339 10.6533 17.6824 10.6533H17.4248V13.622C17.4248 17.0534 20.0836 19.8451 23.3516 19.8451C23.5637 19.8451 23.7733 19.8331 23.9797 19.8102C21.0059 19.4797 18.681 16.8306 18.681 13.6219Z" fill="#E7ECF1"/>
<path d="M15.5445 11.4724C15.0798 11.4724 14.7031 11.0769 14.7031 10.589V7.0636C14.7031 6.57568 15.0798 6.18018 15.5445 6.18018C16.0092 6.18018 16.3858 6.57572 16.3858 7.0636V10.589C16.3859 11.0769 16.0092 11.4724 15.5445 11.4724Z" fill="#4073C8"/>
<path d="M16.3859 9.0127V10.5888C16.3859 11.0771 16.009 11.4725 15.5443 11.4725C15.0797 11.4725 14.7031 11.0771 14.7031 10.5888V9.0127C14.7031 9.50054 15.0797 9.89594 15.5443 9.89594C16.009 9.89594 16.3859 9.50054 16.3859 9.0127Z" fill="#3B66C1"/>
<path d="M31.1587 11.4724C30.6941 11.4724 30.3174 11.0769 30.3174 10.589V7.0636C30.3174 6.57568 30.6941 6.18018 31.1587 6.18018C31.6234 6.18018 32.0001 6.57572 32.0001 7.0636V10.589C32.0001 11.0769 31.6234 11.4724 31.1587 11.4724Z" fill="#4073C8"/>
<path d="M32.0001 9.0127V10.5888C32.0001 11.0771 31.6232 11.4725 31.1586 11.4725C30.694 11.4725 30.3174 11.0771 30.3174 10.5888V9.0127C30.3174 9.50054 30.694 9.89594 31.1586 9.89594C31.6232 9.89594 32.0001 9.50054 32.0001 9.0127Z" fill="#3B66C1"/>
<path d="M23.3521 20.6306C22.8874 20.6306 22.5107 20.2351 22.5107 19.7472V16.2218C22.5107 15.7339 22.8874 15.3384 23.3521 15.3384C23.8168 15.3384 24.1934 15.7339 24.1934 16.2218V19.7472C24.1935 20.2351 23.8168 20.6306 23.3521 20.6306Z" fill="#4073C8"/>
<path d="M24.1935 18.1709V19.747C24.1935 20.2353 23.8166 20.6307 23.3519 20.6307C22.8873 20.6307 22.5107 20.2353 22.5107 19.747V18.1709C22.5107 18.6587 22.8873 19.0541 23.3519 19.0541C23.8166 19.0541 24.1935 18.6587 24.1935 18.1709Z" fill="#3B66C1"/>
</g>
<g clip-path="url(#clip1_638:2190)">
<path d="M9.51367 22.3423H16.4326V26.3639H9.51367V22.3423Z" fill="#F1F4F6"/>
<path d="M18.5946 26.8107H7.35138C7.23669 26.8107 7.1267 26.7636 7.0456 26.6798C6.9645 26.596 6.91895 26.4824 6.91895 26.3638C6.91895 26.2453 6.9645 26.1317 7.0456 26.0479C7.1267 25.9641 7.23669 25.917 7.35138 25.917H18.5946C18.7093 25.917 18.8193 25.9641 18.9004 26.0479C18.9815 26.1317 19.0271 26.2453 19.0271 26.3638C19.0271 26.4824 18.9815 26.596 18.9004 26.6798C18.8193 26.7636 18.7093 26.8107 18.5946 26.8107Z" fill="#4073C8"/>
<path d="M18.5949 3.12793C18.8788 3.12793 19.16 3.18572 19.4223 3.298C19.6846 3.41028 19.923 3.57485 20.1237 3.78232C20.3245 3.98979 20.4838 4.23609 20.5924 4.50716C20.7011 4.77823 20.757 5.06876 20.757 5.36217V13.8523H5.18945V5.36217C5.18945 4.76961 5.41725 4.20132 5.82274 3.78232C6.22822 3.36332 6.77818 3.12793 7.35162 3.12793H18.5949Z" fill="#E7ECF1"/>
<path d="M20.7567 15.6394H5.18908C4.95971 15.6394 4.73973 15.5453 4.57753 15.3777C4.41534 15.2101 4.32422 14.9828 4.32422 14.7457C4.32422 14.5087 4.41534 14.2814 4.57753 14.1138C4.73973 13.9462 4.95971 13.8521 5.18908 13.8521H20.7567C20.986 13.8521 21.206 13.9462 21.3682 14.1138C21.5304 14.2814 21.6215 14.5087 21.6215 14.7457C21.6215 14.9828 21.5304 15.2101 21.3682 15.3777C21.206 15.5453 20.986 15.6394 20.7567 15.6394Z" fill="#4073C8"/>
<path d="M12.9734 23.2361C12.0078 23.2368 11.0516 23.0408 10.1594 22.6592C9.26716 22.2777 8.45649 21.7182 7.77371 21.0127C7.09094 20.3072 6.54947 19.4695 6.18027 18.5475C5.81107 17.6255 5.62139 16.6374 5.62207 15.6396H20.3248C20.3248 17.6543 19.5503 19.5865 18.1716 21.0111C16.793 22.4357 14.9231 23.2361 12.9734 23.2361Z" fill="#F1F4F6"/>
<path d="M15.9044 13.8521C19.2129 11.6866 20.0263 6.55593 17.699 3.12772C15.2687 -0.452417 10.6706 -0.443927 8.24598 3.12772C5.92424 6.54834 6.72425 11.6813 10.0406 13.8521H15.9044Z" fill="#3B66C1"/>
<path d="M12.9731 12.0649C14.8837 12.0649 16.4326 10.0643 16.4326 7.5964C16.4326 5.12853 14.8837 3.12793 12.9731 3.12793C11.0625 3.12793 9.51367 5.12853 9.51367 7.5964C9.51367 10.0643 11.0625 12.0649 12.9731 12.0649Z" fill="#4073C8"/>
</g>
<defs>
<clipPath id="clip0_638:2190">
<rect width="17.2973" height="18.1622" fill="white" transform="translate(14.7031 4.32422)"/>
</clipPath>
<clipPath id="clip1_638:2190">
<rect width="25.946" height="26.8108" fill="white"/>
</clipPath>
</defs>
</svg>
