<svg width="79" height="167" viewBox="0 0 79 167" fill="none" xmlns="http://www.w3.org/2000/svg">
<g style="mix-blend-mode:multiply">
<path d="M2.51995 -9.18999C6.68995 5.42001 18.1 16.65 29.12 27.11C40.14 37.57 51.65 48.65 56.12 63.17C64.38 89.95 46.56 121.25 59.66 146.02C72.3 169.94 108.42 172.09 130.66 156.67C152.9 141.25 164.02 114.48 172.07 88.67C178.9 66.79 184.4 44.08 183.2 21.19C182 -1.69999 173.37 -25.01 155.92 -39.81C139.61 -53.73 117.78 -58.81 96.71 -62.67C64.34 -68.54 -12.97 -63.48 2.51995 -9.18999Z" fill="#CFE6E6"/>
</g>
<g style="mix-blend-mode:multiply">
<path d="M37.6099 69.1099C40.6788 81.514 39.3207 94.6004 33.7699 106.11C32.2265 109.647 29.8895 112.781 26.9399 115.27C23.9399 117.61 19.7799 118.82 16.1199 117.68C12.4599 116.54 9.7699 113.23 7.6899 109.94C5.99344 107.533 4.84953 104.78 4.3399 101.88C3.3999 94.3799 9.4999 87.9699 11.5899 80.6999C14.9999 68.8399 7.39991 56.4699 8.25991 44.1499C8.29615 41.7079 9.0854 39.3366 10.5199 37.3599C18.0999 28.1399 35.7799 61.6999 37.6099 69.1099Z" fill="#CFE6E6"/>
</g>
</svg>
