<svg width="69" height="160" viewBox="0 0 69 160" fill="none" xmlns="http://www.w3.org/2000/svg">
<g style="mix-blend-mode:multiply">
<path d="M39.7803 64.54C28.3403 72.71 14.7803 77.32 2.28027 83.65C-12.1497 90.94 -25.8597 101.15 -33.2197 115.58C-39.0197 127 -40.7197 140.78 -49.4997 150.11C-65.0197 166.65 -94.9897 158.73 -108.22 140.26C-121.45 121.79 -122.34 97.49 -121.92 74.79C-121.38 45.48 -119.22 15.48 -107.42 -11.34C-95.6197 -38.16 -72.3397 -61.56 -43.4197 -66.25C-33.6497 -67.84 -23.1197 -67.12 -14.6997 -61.93C-8.00972 -57.8 -2.94973 -51.06 4.42027 -48.3C18.6203 -42.98 35.9803 -53.3 49.4203 -45.3C59.2803 -39.46 63.8703 -24.05 66.4203 -13.65C73.4903 14.51 63.9603 47.33 39.7803 64.54Z" fill="#CFE6E6"/>
</g>
</svg>
