<svg width="45" height="44" viewBox="0 0 45 44" fill="none" xmlns="http://www.w3.org/2000/svg">
<path d="M31.9987 35.0689L39.4716 31.5389C41.1191 30.7073 43.1297 31.3169 44.0374 32.9241L28.8475 42.7498C26.8112 43.6895 24.5258 43.9482 22.3306 43.4875L11.8546 40.5471C10.8902 40.2764 9.85898 40.3895 8.97617 40.8623L6.78516 42.0341L7.0804 31.3493L7.16731 31.3518C10.2981 29.1275 14.4094 28.8398 17.8193 30.6066L18.4463 30.931C19.4264 31.4391 20.5093 31.7186 21.6133 31.7485L27.7714 31.919C29.7041 31.9718 31.3957 33.2322 31.9987 35.0689Z" fill="#F7CAA5"/>
<path d="M40.7797 11.8523C41.7195 13.2146 41.7195 15.0156 40.7797 16.3778C40.3202 17.0444 40.074 17.8353 40.074 18.645C40.074 18.7186 40.0761 18.793 40.0807 18.8666L40.0828 18.8965C40.1751 20.5262 39.2565 22.0548 37.7429 22.7916L37.7267 22.7991C36.9199 23.1871 36.2584 23.8237 35.8396 24.6151L35.8321 24.63C35.0666 26.0871 33.4773 26.9707 31.7823 26.8805L31.7528 26.8793C30.8413 26.8294 29.9373 27.0643 29.1659 27.5521C27.7284 28.4578 25.8992 28.4578 24.4616 27.5521C23.7597 27.1084 22.9459 26.8726 22.1155 26.873C22.0357 26.873 21.9546 26.8751 21.8747 26.8793L21.8452 26.8805C20.1503 26.9707 18.561 26.0871 17.7958 24.63L17.7884 24.6151C17.3692 23.8237 16.7076 23.1871 15.9009 22.7991L15.8847 22.7916C14.3698 22.0548 13.4525 20.5262 13.5448 18.8965L13.5473 18.8666C13.5959 17.9825 13.3502 17.1068 12.8479 16.3778C11.9068 15.016 11.9068 13.2142 12.8479 11.8523C13.3074 11.1858 13.5535 10.3949 13.5535 9.58482C13.5535 9.51163 13.5514 9.43678 13.5473 9.3636L13.5448 9.3349C13.465 7.68239 14.3885 6.14506 15.8847 5.43981L15.9009 5.43232C16.7076 5.04352 17.3688 4.4073 17.7884 3.61597L17.7958 3.60141C18.561 2.14392 20.1503 1.26028 21.8452 1.34969L21.8747 1.35176C22.7862 1.40083 23.6898 1.16589 24.4616 0.678949C25.8992 -0.226316 27.7284 -0.226316 29.1659 0.678949C29.9377 1.16589 30.8417 1.40083 31.7528 1.35176L31.7823 1.34969C33.4773 1.26028 35.0666 2.14392 35.8321 3.60141L35.8396 3.61597C36.2588 4.4073 36.9199 5.04352 37.7267 5.43232L37.7429 5.43981C39.2386 6.14506 40.1622 7.6828 40.0828 9.3349L40.0807 9.3636C40.0316 10.2477 40.2774 11.123 40.7797 11.8523Z" fill="#00EFD1"/>
<path d="M32.2244 37.4748H32.2007L22.0785 37.197C21.6082 37.1842 21.2373 36.7924 21.2501 36.3221C21.263 35.8518 21.6548 35.4809 22.1251 35.4938L31.2991 35.7458C31.2704 35.6069 31.2343 35.4701 31.1898 35.3354C30.6974 33.8409 29.321 32.815 27.7479 32.7701L21.5895 32.5996C20.3578 32.5643 19.1494 32.2524 18.0545 31.6869L17.4274 31.3621C14.3028 29.7341 10.5283 29.9978 7.66077 32.0453C7.27695 32.3181 6.74552 32.2279 6.47315 31.8445C6.20078 31.4611 6.2906 30.9292 6.674 30.6568C10.0614 28.2384 14.5199 27.9265 18.2108 29.8497L18.8375 30.1745C19.7045 30.6223 20.6609 30.8689 21.636 30.8968L27.7949 31.0673C29.2354 31.1059 30.6014 31.7156 31.5919 32.7622C32.5824 33.8084 33.1159 35.2056 33.0756 36.6461C33.0631 37.1072 32.6855 37.4744 32.2239 37.4744L32.2244 37.4748Z" fill="#EDB288"/>
<path d="M21.7687 23.0487C21.4594 23.0483 21.1745 22.8803 21.0244 22.6096C20.8747 22.3389 20.8834 22.0083 21.0473 21.7459L31.1358 5.5842C31.2955 5.32306 31.5828 5.16712 31.8893 5.17669C32.1953 5.18625 32.4727 5.35965 32.6157 5.63036C32.7588 5.90106 32.7455 6.22791 32.5804 6.48614L22.4919 22.6479C22.3364 22.8974 22.0627 23.0491 21.7687 23.0487Z" fill="#FEDB41"/>
<path d="M22.2234 14.1571C20.1492 14.1571 18.4622 12.2335 18.4622 9.86821C18.4622 7.50337 20.1492 5.58057 22.2234 5.58057C24.2971 5.58057 25.9841 7.50379 25.9841 9.86821C25.9841 12.2326 24.2967 14.1571 22.2234 14.1571ZM22.2234 7.28381C21.0886 7.28381 20.1654 8.44315 20.1654 9.86821C20.1654 11.2937 21.0886 12.4538 22.2234 12.4538C23.3577 12.4538 24.2809 11.2937 24.2809 9.86821C24.2809 8.44274 23.3577 7.28381 22.2234 7.28381Z" fill="#FEDB41"/>
<path d="M31.405 22.6517C29.3308 22.6517 27.6438 20.7276 27.6438 18.3623C27.6438 15.9975 29.3308 14.0747 31.405 14.0747C33.4787 14.0747 35.1658 15.9979 35.1658 18.3623C35.1658 20.7272 33.4787 22.6517 31.405 22.6517ZM31.405 15.778C30.2702 15.778 29.347 16.9373 29.347 18.3623C29.347 19.7878 30.2702 20.9484 31.405 20.9484C32.5394 20.9484 33.4625 19.7878 33.4625 18.3623C33.4625 16.9373 32.5394 15.778 31.405 15.778Z" fill="#FEDB41"/>
<path d="M6.78513 42.0339L6.75228 43.2381L0 43.0518L0.407515 28.2324L7.16104 28.4175L7.08037 31.3491L6.78513 42.0339Z" fill="#00ACEA"/>
</svg>
