<svg width="33" height="16" viewBox="0 0 33 16" fill="none" xmlns="http://www.w3.org/2000/svg">
<path d="M8.08642 4.2625H0.457421C0.336105 4.2625 0.219759 4.21431 0.133976 4.12852C0.0481924 4.04274 0 3.92639 0 3.80508C0 3.68376 0.0481924 3.56742 0.133976 3.48163C0.219759 3.39585 0.336105 3.34766 0.457421 3.34766H8.08642C8.20774 3.34766 8.32408 3.39585 8.40987 3.48163C8.49565 3.56742 8.54384 3.68376 8.54384 3.80508C8.54384 3.92639 8.49565 4.04274 8.40987 4.12852C8.32408 4.21431 8.20774 4.2625 8.08642 4.2625Z" fill="#ABE751"/>
<path d="M8.08624 6.81767H4.27187C4.15056 6.81767 4.03421 6.76948 3.94843 6.6837C3.86265 6.59792 3.81445 6.48157 3.81445 6.36025C3.81445 6.23894 3.86265 6.12259 3.94843 6.03681C4.03421 5.95102 4.15056 5.90283 4.27187 5.90283H8.08624C8.20756 5.90283 8.3239 5.95102 8.40969 6.03681C8.49547 6.12259 8.54366 6.23894 8.54366 6.36025C8.54366 6.48157 8.49547 6.59792 8.40969 6.6837C8.3239 6.76948 8.20756 6.81767 8.08624 6.81767Z" fill="#ABE751"/>
<path d="M2.7611 6.81767H1.74014C1.61882 6.81767 1.50247 6.76948 1.41669 6.6837C1.33091 6.59792 1.28271 6.48157 1.28271 6.36025C1.28271 6.23894 1.33091 6.12259 1.41669 6.03681C1.50247 5.95102 1.61882 5.90283 1.74014 5.90283H2.7611C2.88242 5.90283 2.99876 5.95102 3.08455 6.03681C3.17033 6.12259 3.21852 6.23894 3.21852 6.36025C3.21852 6.48157 3.17033 6.59792 3.08455 6.6837C2.99876 6.76948 2.88242 6.81767 2.7611 6.81767Z" fill="#ABE751"/>
<path d="M8.08632 9.64531H1.76528C1.64397 9.64531 1.52762 9.59712 1.44184 9.51134C1.35605 9.42555 1.30786 9.30921 1.30786 9.18789C1.30786 9.06657 1.35605 8.95023 1.44184 8.86444C1.52762 8.77866 1.64397 8.73047 1.76528 8.73047H8.08632C8.20764 8.73047 8.32398 8.77866 8.40977 8.86444C8.49555 8.95023 8.54374 9.06657 8.54374 9.18789C8.54374 9.30921 8.49555 9.42555 8.40977 9.51134C8.32398 9.59712 8.20764 9.64531 8.08632 9.64531Z" fill="#ABE751"/>
<path d="M8.0859 12.201H5.57949C5.45818 12.201 5.34183 12.1528 5.25605 12.067C5.17026 11.9812 5.12207 11.8649 5.12207 11.7436C5.12207 11.6222 5.17026 11.5059 5.25605 11.4201C5.34183 11.3343 5.45818 11.2861 5.57949 11.2861H8.0859C8.20721 11.2861 8.32356 11.3343 8.40934 11.4201C8.49513 11.5059 8.54332 11.6222 8.54332 11.7436C8.54332 11.8649 8.49513 11.9812 8.40934 12.067C8.32356 12.1528 8.20721 12.201 8.0859 12.201Z" fill="#ABE751"/>
<path d="M4.06896 12.201H3.048C2.98793 12.201 2.92845 12.1891 2.87295 12.1662C2.81745 12.1432 2.76703 12.1095 2.72455 12.067C2.68208 12.0245 2.64838 11.9741 2.6254 11.9186C2.60241 11.8631 2.59058 11.8036 2.59058 11.7436C2.59058 11.6835 2.60241 11.624 2.6254 11.5685C2.64838 11.513 2.68208 11.4626 2.72455 11.4201C2.76703 11.3776 2.81745 11.3439 2.87295 11.321C2.92845 11.298 2.98793 11.2861 3.048 11.2861H4.06896C4.12903 11.2861 4.18851 11.298 4.24401 11.321C4.29951 11.3439 4.34993 11.3776 4.39241 11.4201C4.43488 11.4626 4.46858 11.513 4.49156 11.5685C4.51455 11.624 4.52638 11.6835 4.52638 11.7436C4.52638 11.8036 4.51455 11.8631 4.49156 11.9186C4.46858 11.9741 4.43488 12.0245 4.39241 12.067C4.34993 12.1095 4.29951 12.1432 4.24401 12.1662C4.18851 12.1891 4.12903 12.201 4.06896 12.201Z" fill="#ABE751"/>
<path d="M8.08691 2.98047V12.5306L15.4686 7.71099L8.08691 2.98047Z" fill="#FF7816"/>
<path d="M15.4686 7.71003L20.5437 10.9632L33.0002 2.98056V1.20053C33.0002 0.882133 32.8737 0.576772 32.6485 0.351628C32.4234 0.126484 32.118 2.84571e-08 31.7996 2.84571e-08H9.28771C9.13003 -3.43017e-05 8.97389 0.0309932 8.82821 0.0913104C8.68252 0.151627 8.55014 0.240053 8.43863 0.351536C8.32713 0.46302 8.23867 0.595377 8.17832 0.74105C8.11798 0.886723 8.08691 1.04286 8.08691 1.20053V2.97951L15.4686 7.71055V7.71003Z" fill="#FF9F00"/>
<path d="M20.5437 10.9631L15.4686 7.70996L8.08691 12.5296V14.3481C8.08691 14.5057 8.11798 14.6619 8.17832 14.8075C8.23867 14.9532 8.32713 15.0856 8.43863 15.1971C8.55014 15.3085 8.68252 15.397 8.82821 15.4573C8.97389 15.5176 9.13003 15.5486 9.28771 15.5486H31.7996C31.9573 15.5486 32.1134 15.5175 32.259 15.4572C32.4047 15.3969 32.5371 15.3084 32.6485 15.197C32.76 15.0855 32.8484 14.9531 32.9088 14.8075C32.9691 14.6618 33.0002 14.5057 33.0002 14.3481V12.5296L25.6187 7.70996L20.5437 10.9631Z" fill="#FFD93B"/>
<path d="M25.6182 7.71099L32.9996 12.5306V2.98047L25.6182 7.71099Z" fill="#FF7816"/>
</svg>
