<svg width="25" height="31" viewBox="0 0 25 31" fill="none" xmlns="http://www.w3.org/2000/svg">
<path d="M12.5001 22.8262H11.4131C10.8128 22.8262 10.3262 23.3128 10.3262 23.9131V29.3479C10.3262 29.9482 10.8128 30.4349 11.4131 30.4349H12.5001C13.1004 30.4349 13.587 29.9482 13.587 29.3479V23.9131C13.587 23.3128 13.1004 22.8262 12.5001 22.8262Z" fill="#0A529B"/>
<path d="M12.5 22.8261H11.4131V21.7391C11.4139 21.0187 11.7005 20.328 12.2099 19.8186C12.7193 19.3091 13.41 19.0226 14.1305 19.0218H22.2826C22.7149 19.0213 23.1293 18.8493 23.435 18.5437C23.7407 18.238 23.9126 17.8236 23.9131 17.3913V14.6739C23.9126 14.2417 23.7407 13.8272 23.435 13.5216C23.1293 13.2159 22.7149 13.044 22.2826 13.0435H21.7392V11.9565H22.2826C23.0031 11.9574 23.6938 12.2439 24.2032 12.7534C24.7126 13.2628 24.9992 13.9535 25 14.6739V17.3913C24.9992 18.1118 24.7126 18.8025 24.2032 19.3119C23.6938 19.8213 23.0031 20.1079 22.2826 20.1087H14.1305C13.6982 20.1092 13.2838 20.2811 12.9781 20.5868C12.6725 20.8924 12.5005 21.3069 12.5 21.7391V22.8261Z" fill="#064186"/>
<path d="M15.7601 4.8916V9.7829H5.97754V4.8916" fill="#FCC42D"/>
<path d="M5.22267 4.89132H16.5148C16.5845 4.89143 16.6524 4.86961 16.7089 4.82894C16.7655 4.78828 16.8078 4.73084 16.8298 4.66478C16.8519 4.59872 16.8526 4.52739 16.8318 4.46092C16.811 4.39444 16.7698 4.3362 16.7141 4.29445L11.0681 0.06633C11.0106 0.0232713 10.9407 0 10.8688 0C10.797 0 10.7271 0.0232713 10.6695 0.06633L5.02342 4.29445C4.96767 4.3362 4.92649 4.39444 4.90572 4.46092C4.88494 4.52739 4.88563 4.59872 4.90768 4.66478C4.92974 4.73084 4.97203 4.78828 5.02857 4.82894C5.08511 4.86961 5.15302 4.89143 5.22267 4.89132Z" fill="#0A529B"/>
<path d="M9.23828 9.78284V7.06545C9.23828 6.92131 9.29554 6.78307 9.39746 6.68115C9.49939 6.57923 9.63762 6.52197 9.78176 6.52197H11.9557C12.0998 6.52197 12.238 6.57923 12.34 6.68115C12.4419 6.78307 12.4992 6.92131 12.4992 7.06545V9.78284" fill="#064186"/>
<path opacity="0.2" d="M5.97852 4.8916H15.7611V6.52203H5.97852V4.8916Z" fill="#064186"/>
<path opacity="0.2" d="M6.79377 11.9568H7.60899V4.8916H5.97855V11.1256C5.97645 11.344 6.06116 11.5542 6.21404 11.71C6.36692 11.8659 6.57545 11.9547 6.79377 11.9568Z" fill="#FCFAFA"/>
<path d="M19.5652 9.78271H2.17391C0.973293 9.78271 0 10.756 0 11.9566V13.5871C0 14.7877 0.973293 15.761 2.17391 15.761H19.5652C20.7658 15.761 21.7391 14.7877 21.7391 13.5871V11.9566C21.7391 10.756 20.7658 9.78271 19.5652 9.78271Z" fill="#A2D2F9"/>
<path opacity="0.2" d="M0.0683594 11.4131H21.6705C21.5499 10.9465 21.2776 10.5331 20.8965 10.238C20.5154 9.9429 20.0471 9.78274 19.5651 9.78271H2.17379C1.69179 9.78274 1.22345 9.9429 0.842358 10.238C0.461264 10.5331 0.189007 10.9465 0.0683594 11.4131Z" fill="#FCFAFA"/>
<path opacity="0.2" d="M21.6705 14.1304H0.0683594C0.189007 14.597 0.461264 15.0104 0.842358 15.3055C1.22345 15.6006 1.69179 15.7608 2.17379 15.7608H19.5651C20.0471 15.7608 20.5154 15.6006 20.8965 15.3055C21.2776 15.0104 21.5499 14.597 21.6705 14.1304Z" fill="#064186"/>
<path opacity="0.2" d="M12.5001 22.8262H11.4131C11.1248 22.8262 10.8484 22.9407 10.6445 23.1445C10.4407 23.3484 10.3262 23.6248 10.3262 23.9131V29.3479C10.3262 29.6362 10.4407 29.9127 10.6445 30.1165C10.8484 30.3203 11.1248 30.4349 11.4131 30.4349V24.5086C11.4131 24.4304 11.4285 24.353 11.4585 24.2807C11.4884 24.2085 11.5323 24.1428 11.5875 24.0875C11.6428 24.0323 11.7085 23.9884 11.7807 23.9585C11.853 23.9285 11.9304 23.9131 12.0086 23.9131H13.587C13.587 23.6248 13.4725 23.3484 13.2687 23.1445C13.0648 22.9407 12.7884 22.8262 12.5001 22.8262Z" fill="#FCFAFA"/>
</svg>
