<svg width="22" height="26" viewBox="0 0 22 26" fill="none" xmlns="http://www.w3.org/2000/svg">
<path fill-rule="evenodd" clip-rule="evenodd" d="M5.95801 11.958V13.2885C5.95801 13.5088 6.13656 13.6874 6.3554 13.6874H6.81472C6.91694 14.0877 7.07533 14.4664 7.28125 14.812L6.95585 15.1374C6.8018 15.293 6.8018 15.5464 6.95585 15.7005L7.89752 16.6422C8.05157 16.7963 8.30502 16.7963 8.46055 16.6422L8.78594 16.3167C9.13151 16.5227 9.51021 16.681 9.91051 16.7833V17.2426C9.91051 17.4615 10.0905 17.6415 10.3094 17.6415H11.6399C11.8588 17.6415 12.0387 17.4615 12.0387 17.2426V16.7833C12.439 16.681 12.8163 16.5227 13.1633 16.3167L13.4887 16.6422C13.6428 16.7963 13.8962 16.7963 14.0517 16.6422L14.9934 15.7005C15.1474 15.5464 15.1474 15.293 14.9934 15.1374L14.668 14.812C14.8739 14.4664 15.0323 14.0877 15.1345 13.6874H15.5939C15.8127 13.6874 15.9912 13.5088 15.9912 13.2885V11.958C15.9912 11.7391 15.8127 11.5591 15.5939 11.5591H15.1345C15.0323 11.1588 14.8739 10.7816 14.668 10.4345L14.9934 10.1091C15.1474 9.95499 15.1474 9.70159 14.9934 9.54606L14.0517 8.60577C13.8962 8.45024 13.6428 8.45024 13.4887 8.60577L13.1633 8.92973C12.8163 8.72381 12.439 8.56543 12.0387 8.46321V8.00389C12.0387 7.785 11.8588 7.60645 11.6399 7.60645H10.3094C10.0905 7.60645 9.91051 7.785 9.91051 8.00389V8.46321C9.51021 8.56543 9.13151 8.72386 8.78594 8.92973L8.46055 8.60577C8.3065 8.45024 8.05162 8.45024 7.89752 8.60577L6.95585 9.54606C6.8018 9.70159 6.8018 9.95499 6.95585 10.1091L7.28125 10.4345C7.07533 10.7816 6.91694 11.1588 6.81472 11.5591H6.3554C6.13656 11.5591 5.95801 11.7391 5.95801 11.958Z" fill="#BEB9DD"/>
<path fill-rule="evenodd" clip-rule="evenodd" d="M11.6406 7.60645H10.5391C11.2691 9.0536 11.6996 10.7945 11.7083 12.6678V12.7298C11.7083 14.5369 11.3181 16.2202 10.6427 17.6414H11.6406C11.8594 17.6414 12.0394 17.4614 12.0394 17.2425V16.7832C12.4397 16.681 12.8169 16.5226 13.164 16.3167L13.4894 16.6421C13.6435 16.7962 13.8969 16.7962 14.0524 16.6421L14.9941 15.7004C15.1481 15.5463 15.1481 15.2929 14.9941 15.1374L14.6687 14.8119C14.8746 14.4664 15.033 14.0877 15.1352 13.6873H15.5945C15.8134 13.6873 15.9919 13.5088 15.9919 13.2885V11.958C15.9919 11.7391 15.8134 11.5591 15.5945 11.5591H15.1352C15.033 11.1588 14.8746 10.7815 14.6687 10.4345L14.9941 10.109C15.1481 9.95494 15.1481 9.70153 14.9941 9.54601L14.0524 8.60572C13.8969 8.45019 13.6435 8.45019 13.4894 8.60572L13.164 8.92968C12.817 8.72376 12.4397 8.56538 12.0394 8.46316V8.00384C12.0394 7.78495 11.8594 7.60645 11.6406 7.60645Z" fill="#BEB9DD"/>
<path d="M10.4035 14.4309C10.3101 14.4309 10.2195 14.3966 10.1495 14.3339L8.88092 13.1992C8.72406 13.0589 8.71065 12.8181 8.85094 12.6613C8.99118 12.5045 9.23206 12.491 9.38886 12.6313L10.3654 13.5047L12.5229 10.9515C12.6587 10.7908 12.8991 10.7706 13.0598 10.9064C13.2205 11.0422 13.2407 11.2826 13.1048 11.4433L10.6944 14.2959C10.628 14.3745 10.5326 14.4228 10.43 14.43C10.4212 14.4306 10.4123 14.4309 10.4035 14.4309Z" fill="#2B4D66"/>
<path fill-rule="evenodd" clip-rule="evenodd" d="M2.04608 12.6231C2.04608 8.05854 5.46297 4.29307 9.87771 3.74159V4.60412V5.11532C9.88777 5.65961 10.3831 5.88712 10.7719 5.63224L12.7112 4.2092L11.8856 2.279L9.87771 0.995605V1.13239V1.66085V1.67525C4.4493 2.22392 0.185751 6.71795 0 12.2444V13.0018C0.116618 16.4548 1.82438 19.5046 4.41188 21.4399C5.94394 22.5861 7.09583 20.7055 5.62284 19.7811C3.45141 18.1482 2.04608 15.5505 2.04608 12.6231Z" fill="#75CEF8"/>
<path fill-rule="evenodd" clip-rule="evenodd" d="M11.2209 19.6141L8.88971 21.3248L8.12368 21.8878C7.69315 22.147 7.69315 22.6107 8.12368 22.8699L8.87817 23.4243L9.45125 23.8448L11.2209 25.1436C11.6097 25.397 12.105 25.1695 12.1151 24.6267V24.1155V23.8448V23.5712C12.8091 23.5012 13.4841 23.3666 14.1339 23.1737L15.0112 21.9218L14.8176 20.7198C13.9799 21.1159 13.0709 21.3858 12.1151 21.5048V20.6423V20.1311C12.105 19.5883 11.6097 19.3607 11.2209 19.6141Z" fill="#75CEF8"/>
<path fill-rule="evenodd" clip-rule="evenodd" d="M9.87793 0.995617C10.9406 1.72279 11.901 2.82433 12.7116 4.20955L13.1033 3.92158L13.8693 3.35856C14.2999 3.09938 14.2999 2.63572 13.8693 2.3765L13.1148 1.82358L12.8945 1.66086L10.7721 0.104287C10.3834 -0.150597 9.88804 0.0769196 9.87793 0.621205V0.995617Z" fill="#75CEF8"/>
<path fill-rule="evenodd" clip-rule="evenodd" d="M16.3542 5.45369C18.5356 7.08511 19.9467 9.68997 19.9467 12.6231C19.9467 16.1999 17.8502 19.2857 14.8178 20.7199C14.6392 21.5738 14.4204 22.3902 14.1641 23.1649C18.6968 21.8041 22 17.5995 22 12.6231C22 9.09233 20.3369 5.94896 17.7494 3.93592C16.3642 2.77541 15.0899 4.50042 16.3542 5.45369Z" fill="#75CEF8"/>
</svg>
