<svg width="22" height="27" viewBox="0 0 22 27" fill="none" xmlns="http://www.w3.org/2000/svg">
<path d="M10.3431 12.0248C10.2426 12.0248 10.142 11.9863 10.0652 11.9097C9.91185 11.7562 9.91185 11.5074 10.0652 11.354L13.3023 8.11699C13.4559 7.96361 13.7046 7.96361 13.858 8.11699C14.0116 8.27058 14.0116 8.5193 13.858 8.67269L10.6209 11.9097C10.5441 11.9863 10.4436 12.0248 10.3431 12.0248Z" fill="#426175"/>
<path d="M7.56051 8.60694C7.36025 8.60694 7.18931 8.45455 7.16976 8.2513C7.14922 8.03528 7.30759 7.8434 7.52361 7.82286L14.0358 7.20114C14.2516 7.1798 14.4437 7.33896 14.4642 7.55498C14.485 7.771 14.3266 7.96268 14.1106 7.98342L7.5982 8.60494C7.58564 8.60634 7.57307 8.60694 7.56051 8.60694Z" fill="#426175"/>
<path d="M13.7409 14.8979C13.7289 14.8979 13.7167 14.8973 13.7046 14.8961C13.4886 14.8764 13.3294 14.6851 13.3493 14.4689L13.933 8.11764C13.9529 7.90143 14.1442 7.74265 14.3602 7.7624C14.5764 7.78215 14.7354 7.97343 14.7154 8.18965L14.1318 14.5409C14.1131 14.7447 13.9417 14.8979 13.7409 14.8979Z" fill="#426175"/>
<path d="M10.4474 25.1817H3.16211L5.52891 16.6406H8.08061L10.4474 25.1817Z" fill="#426175"/>
<path d="M8.08051 16.6406H5.5288L5.37402 17.1997L7.58584 25.1817H10.4473L8.08051 16.6406Z" fill="#2C4456"/>
<path d="M12.955 26.1438H0.654431C0.293008 26.1438 0 25.8508 0 25.4894C0 24.4773 0.820581 23.6567 1.83284 23.6567H11.7768C12.7888 23.6567 13.6094 24.4773 13.6094 25.4894C13.6096 25.8508 13.3166 26.1438 12.955 26.1438Z" fill="#CDD6DF"/>
<path d="M4.18469 4.07984C3.94773 3.84289 3.55958 3.85405 3.33678 4.10478C-0.253712 8.14805 -0.112095 14.3405 3.76163 18.214C7.63516 22.0876 13.8276 22.2292 17.8707 18.6387C18.1214 18.4161 18.1328 18.0279 17.8956 17.7908L4.18469 4.07984Z" fill="#46D1C0"/>
<path d="M17.8959 17.7908L4.18495 4.07984C3.94799 3.84289 3.55984 3.85405 3.33704 4.10478C2.93832 4.55376 2.58587 5.02948 2.2793 5.52534L16.4506 19.6966C16.9464 19.3899 17.422 19.0374 17.8709 18.6387C18.1217 18.4161 18.133 18.0279 17.8959 17.7908Z" fill="#33BCA5"/>
<path d="M15.8136 7.47075C15.8136 8.193 15.2282 8.77842 14.5059 8.77842C13.7837 8.77842 13.1982 8.193 13.1982 7.47075C13.1982 6.7485 13.7837 6.16309 14.5059 6.16309C15.2282 6.16309 15.8136 6.7485 15.8136 7.47075Z" fill="#CDD6DF"/>
<path d="M21.6136 7.99111C21.6082 7.99111 21.6028 7.99111 21.5972 7.99071C21.3878 7.98194 21.2252 7.80501 21.234 7.59558C21.3146 5.68794 20.6492 3.9279 19.3605 2.63918C18.072 1.35066 16.3123 0.685064 14.4043 0.765646C14.197 0.775818 14.0179 0.612061 14.0091 0.402428C14.0002 0.192994 14.1627 0.0160722 14.3724 0.00729595C16.4948 -0.0826609 18.4567 0.661727 19.8974 2.10243C21.3381 3.54294 22.0821 5.50523 21.9926 7.62749C21.984 7.83154 21.8158 7.99111 21.6136 7.99111Z" fill="#88DBFD"/>
<path d="M19.7042 8.07182C19.6989 8.07182 19.6935 8.07182 19.6881 8.07142C19.4787 8.06264 19.3159 7.88572 19.3249 7.67628C19.3837 6.27886 18.8968 4.98995 17.9538 4.0467C17.0105 3.10365 15.7218 2.61616 14.3242 2.6756C14.1166 2.68498 13.9378 2.52202 13.9291 2.31239C13.9201 2.10295 14.0827 1.92603 14.2923 1.91706C15.9045 1.84944 17.3955 2.41471 18.4905 3.50995C19.5858 4.60499 20.1514 6.09596 20.0832 7.7082C20.0746 7.91225 19.9065 8.07182 19.7042 8.07182Z" fill="#88DBFD"/>
<path d="M17.7943 8.15198C17.7889 8.15198 17.7836 8.15198 17.778 8.15158C17.5685 8.1428 17.406 7.96588 17.4148 7.75645C17.4523 6.86905 17.1437 6.05126 16.5461 5.45367C15.9485 4.85609 15.1313 4.54792 14.2433 4.58502C14.0351 4.5934 13.857 4.43124 13.848 4.2216C13.8392 4.01217 14.0018 3.83525 14.2114 3.82647C15.3138 3.7802 16.3333 4.16715 17.0828 4.91692C17.8326 5.6665 18.2198 6.68634 18.1733 7.78836C18.1647 7.99241 17.9966 8.15198 17.7943 8.15198Z" fill="#88DBFD"/>
</svg>
