<svg width="16" height="22" viewBox="0 0 16 22" fill="none" xmlns="http://www.w3.org/2000/svg">
<path d="M14 8.25H13.3333V5.5C13.3333 2.46675 10.9413 0 8 0C5.05867 0 2.66667 2.46675 2.66667 5.5V8.25H2C0.897778 8.25 0 9.17492 0 10.3125V19.9375C0 21.0751 0.897778 22 2 22H14C15.1022 22 16 21.0751 16 19.9375V10.3125C16 9.17492 15.1022 8.25 14 8.25ZM4.44444 5.5C4.44444 3.47783 6.03911 1.83333 8 1.83333C9.96089 1.83333 11.5556 3.47783 11.5556 5.5V8.25H4.44444V5.5ZM8.88889 15.3285V17.4167C8.88889 17.9227 8.49156 18.3333 8 18.3333C7.50844 18.3333 7.11111 17.9227 7.11111 17.4167V15.3285C6.58222 15.0104 6.22222 14.4256 6.22222 13.75C6.22222 12.7389 7.01956 11.9167 8 11.9167C8.98044 11.9167 9.77778 12.7389 9.77778 13.75C9.77778 14.4256 9.41778 15.0104 8.88889 15.3285Z" fill="#C1C1C1"/>
</svg>
