<svg width="28" height="21" viewBox="0 0 28 21" fill="none" xmlns="http://www.w3.org/2000/svg">
<path d="M16.34 13.6404C15.6434 14.1048 14.8343 14.3503 14 14.3503C13.1658 14.3503 12.3566 14.1048 11.66 13.6404L0.18643 5.99112C0.122773 5.94868 0.0607578 5.90444 0 5.85894V18.3932C0 19.8302 1.16621 20.9707 2.57759 20.9707H25.4224C26.8594 20.9707 27.9999 19.8045 27.9999 18.3932V5.85889C27.9391 5.9045 27.877 5.94885 27.8131 5.99134L16.34 13.6404Z" fill="#C1C1C1"/>
<path d="M1.09648 4.62613L12.5701 12.2755C13.0044 12.5651 13.5022 12.7098 13.9999 12.7098C14.4978 12.7098 14.9956 12.565 15.4299 12.2755L26.9035 4.62613C27.5901 4.16866 28 3.40304 28 2.57671C28 1.15588 26.8441 0 25.4233 0H2.57671C1.15593 5.46875e-05 0 1.15593 0 2.57808C0 3.40304 0.409937 4.16866 1.09648 4.62613Z" fill="#C1C1C1"/>
</svg>
