<svg width="12" height="23" viewBox="0 0 12 23" fill="none" xmlns="http://www.w3.org/2000/svg">
<path d="M9.71539 0H2.32423C1.06767 0 0 1.03722 0 2.30895V19.8422C0 21.1139 1.04508 22.1485 2.30164 22.1485L9.70496 22.1404C10.9614 22.1404 11.9892 21.1056 11.9892 19.8337L12 2.30772C11.9998 1.03142 10.977 0 9.71539 0ZM4.95205 1.38431H7.09643C7.2848 1.38431 7.43824 1.53912 7.43824 1.73035C7.43824 1.92157 7.2848 2.07638 7.09643 2.07638H4.95205C4.76316 2.07638 4.61024 1.92157 4.61024 1.73035C4.61024 1.53912 4.76316 1.38431 4.95205 1.38431ZM3.66352 1.49444C3.7902 1.36637 4.0208 1.36461 4.1473 1.49444C4.21073 1.55847 4.24827 1.64837 4.24827 1.7402C4.24827 1.83027 4.21073 1.91999 4.1473 1.9842C4.08422 2.04841 3.99508 2.08623 3.90628 2.08623C3.81574 2.08623 3.72868 2.04841 3.66352 1.9842C3.60043 1.92017 3.56446 1.83027 3.56446 1.7402C3.56429 1.64837 3.60043 1.55847 3.66352 1.49444ZM5.95525 21.4626C5.39118 21.4626 4.93242 20.9978 4.93242 20.4269C4.93242 19.8559 5.39118 19.3913 5.95525 19.3913C6.51933 19.3913 6.97809 19.8559 6.97809 20.4269C6.97809 20.9978 6.51915 21.4626 5.95525 21.4626ZM10.9389 18.6874H1.19644V3.28777H10.9389V18.6874Z" fill="#C1C1C1"/>
</svg>
