<svg width="81" height="81" viewBox="0 0 81 81" fill="none" xmlns="http://www.w3.org/2000/svg">
<g clip-path="url(#clip0_631:336)">
<path d="M36.2733 39.2182C35.6865 37.7374 37.1804 35.7365 39.1147 36.3636L57.1631 42.3664H74.2376C75.4782 42.3664 76.4919 41.366 76.4919 40.1387V6.74968C76.4919 5.52254 75.4916 4.52197 74.2376 4.52197H6.75286C5.51231 4.52197 4.49854 5.52234 4.49854 6.74968V40.1519C4.49854 41.379 5.4989 42.3796 6.75286 42.3796H37.3137L36.2733 39.2182Z" fill="white"/>
<path d="M41.9692 42.0596L44.0637 48.3158H52.6142C53.8548 48.3158 54.8685 49.3161 54.8685 50.5701C54.8685 51.8241 53.8682 52.8244 52.6142 52.8244H45.571L46.5582 55.8257H50.3733C51.6138 55.8257 52.6276 56.8263 52.6276 58.08C52.6276 59.3206 51.6273 60.3344 50.3733 60.3344H48.0655L52.1208 72.4467L55.5625 64.4563C56.443 62.5221 58.7239 62.8955 59.2175 63.7494L69.4223 73.9408L73.9044 69.4588L63.6995 59.2808C62.7258 58.3737 62.6989 56.4262 64.4065 55.6124L72.4102 52.1841L41.9692 42.0596Z" fill="#FFC10D"/>
<path d="M71.9827 8.99072H9.00684V37.8709H71.9827V8.99072Z" fill="#56ACE0"/>
<path d="M16.4776 22.3971C15.4372 22.1437 14.7835 21.9169 14.5033 21.7302C14.2099 21.5434 14.0764 21.3032 14.0764 20.9832C14.0764 20.6632 14.2365 19.9428 15.3836 19.9294C16.384 19.916 17.3579 20.2763 18.3183 20.9966L19.5454 19.2224C17.9846 17.9419 16.1972 17.7817 15.4635 17.7817C14.343 17.7817 11.5683 18.2219 11.5683 21.0232C11.5683 22.0636 11.8617 22.8108 12.4487 23.3044C13.0356 23.7845 13.9695 24.1849 15.2233 24.4783C16.0237 24.665 16.5573 24.8784 16.8373 25.0651C17.1041 25.2519 17.2374 25.5053 17.2374 25.8521C17.2374 26.199 17.1041 26.8525 15.7967 26.9194C14.8095 26.9728 13.7025 26.4124 12.5418 25.372L11.0879 27.1595C12.4752 28.4401 14.0225 29.1339 15.7435 29.067C19.2383 28.9337 19.7319 26.7592 19.7319 25.7855C19.7319 24.8117 19.4385 24.0648 18.8649 23.5578C18.3053 23.0374 17.5048 22.6507 16.4776 22.3971Z" fill="#194F82"/>
<path d="M24.1076 18.1416H21.7197V28.8532H24.1076V18.1416Z" fill="#194F82"/>
<path d="M33.7518 26.3455H33.7384C33.1782 26.6657 32.4979 26.8256 31.6708 26.8256C29.2698 26.8256 28.6295 24.4912 28.6295 23.4775C28.6295 22.4771 29.3499 20.1159 31.871 20.1159C32.3512 20.1159 34.0453 20.7962 34.5122 21.2097L35.7528 19.4221C34.6189 18.4218 33.2849 17.9014 31.7375 17.9014C29.7632 17.9014 26.1616 19.2354 26.1616 23.464C26.1616 27.4125 29.4966 29.0667 31.7375 28.9867C33.6183 28.9066 35.0991 28.3998 36.1663 27.2125V23.424H33.7653V26.3455H33.7518V26.3455Z" fill="#194F82"/>
<path d="M45.7978 25.0381L40.5287 18.1416H38.2876V28.8532H40.6754V22.1435L45.7978 28.8532H48.1856V18.1416H45.7978V25.0381Z" fill="#194F82"/>
<path d="M57.2833 18.1416H54.8955V28.8532H57.2833V18.1416Z" fill="#194F82"/>
<path d="M62.3253 22.1435L67.4477 28.8532H69.8355V18.1416H67.4477V25.0381L62.1652 18.1416H59.9375V28.8532H62.3253V22.1435Z" fill="#194F82"/>
<path d="M79.454 49.7832L70.7033 46.8752H74.2382C77.9599 46.8752 80.988 43.847 80.988 40.152V6.74978C80.9882 3.02812 77.9601 0 74.2382 0H6.75368C3.03203 0 0.00390625 3.02812 0.00390625 6.74978V40.152C0.00390625 43.847 3.03203 46.8752 6.75368 46.8752H38.8219L49.707 79.4503C50.6141 81.7315 53.2688 81.2379 53.8956 79.6237L58.3645 69.2589L67.8221 78.6765C68.7026 79.557 70.1165 79.557 70.997 78.6765L78.6672 71.0197C79.4943 70.2993 79.6676 68.8186 78.6672 67.8314L69.2228 58.4138L79.601 53.9718C81.3883 53.4648 81.5885 50.3966 79.454 49.7832ZM36.2741 39.2449L37.3279 42.4063H6.75368C5.52654 42.3797 4.49935 41.3659 4.49935 40.1386V6.74978C4.49935 5.52264 5.49972 4.52207 6.75368 4.52207H74.2517C75.4922 4.52207 76.506 5.52243 76.506 6.74978V40.152C76.506 41.3791 75.5056 42.3797 74.2517 42.3797H57.1772L39.1287 36.3903C37.1678 35.7632 35.6871 37.7375 36.2741 39.2449ZM64.4071 55.599C62.6996 56.4127 62.7264 58.3604 63.7002 59.2675L73.905 69.4455L69.423 73.9275L59.2181 63.7361C58.7245 62.8956 56.4436 62.5089 55.5631 64.443L52.1215 72.4333L48.0662 60.3211H50.3739C51.6145 60.3211 52.6283 59.3207 52.6283 58.0667C52.6283 56.8128 51.6279 55.8124 50.3739 55.8124H46.5454L45.545 52.8111H52.575C53.8156 52.8111 54.8294 51.8107 54.8294 50.5568C54.8294 49.3162 53.8288 48.3024 52.575 48.3024H44.0245L41.9301 42.0462L72.3708 52.171L64.4071 55.599Z" fill="#194F82"/>
</g>
<defs>
<clipPath id="clip0_631:336">
<rect width="81" height="81" fill="white"/>
</clipPath>
</defs>
</svg>
