<svg width="18" height="21" viewBox="0 0 18 21" fill="none" xmlns="http://www.w3.org/2000/svg">
<path d="M8.6273 10.1156C10.017 10.1156 11.2204 9.61714 12.2036 8.63375C13.1868 7.65052 13.6853 6.44748 13.6853 5.05762C13.6853 3.66825 13.1868 2.46505 12.2034 1.4815C11.22 0.498424 10.0168 0 8.6273 0C7.23744 0 6.03439 0.498424 5.05116 1.48166C4.06792 2.46489 3.56934 3.66809 3.56934 5.05762C3.56934 6.44748 4.06792 7.65068 5.05132 8.63391C6.03471 9.61698 7.23792 10.1156 8.6273 10.1156Z" fill="#C1C1C1"/>
<path d="M17.4776 16.1476C17.4493 15.7384 17.3919 15.292 17.3075 14.8207C17.2222 14.3458 17.1125 13.8969 16.9811 13.4866C16.8454 13.0625 16.6608 12.6437 16.4327 12.2424C16.1959 11.8258 15.9178 11.4631 15.6057 11.1646C15.2793 10.8523 14.8797 10.6013 14.4177 10.4182C13.9572 10.236 13.4469 10.1437 12.9011 10.1437C12.6867 10.1437 12.4794 10.2317 12.079 10.4923C11.8326 10.653 11.5444 10.8389 11.2227 11.0444C10.9476 11.2197 10.5749 11.3839 10.1146 11.5326C9.66556 11.6779 9.20959 11.7516 8.75955 11.7516C8.30951 11.7516 7.8537 11.6779 7.40414 11.5326C6.94432 11.3841 6.57167 11.2199 6.2969 11.0446C5.97823 10.841 5.68985 10.6551 5.43975 10.4922C5.03986 10.2315 4.83238 10.1436 4.61801 10.1436C4.072 10.1436 3.56188 10.236 3.10159 10.4183C2.63985 10.6011 2.24012 10.8522 1.91344 11.1648C1.6015 11.4634 1.32321 11.826 1.08673 12.2424C0.858748 12.6437 0.674181 13.0623 0.53832 13.4867C0.407104 13.897 0.297358 14.3458 0.212124 14.8207C0.127691 15.2914 0.070334 15.7379 0.0419761 16.148C0.0140989 16.5499 0 16.9669 0 17.3881C0 18.4843 0.348466 19.3717 1.03562 20.0262C1.71429 20.672 2.61229 20.9996 3.70431 20.9996H13.8158C14.9078 20.9996 15.8055 20.6722 16.4843 20.0262C17.1716 19.3722 17.5201 18.4846 17.5201 17.3879C17.5199 16.9648 17.5056 16.5475 17.4776 16.1476Z" fill="#C1C1C1"/>
</svg>
